<?xml version="1.0" encoding="UTF-8"?> <svg xmlns="http://www.w3.org/2000/svg" id="Layer_2" data-name="Layer 2" viewBox="0 0 389.6 389.5"><defs><style> .cls-1 { fill: #fff; } .cls-2 { fill: #0e3152; } </style></defs><g id="Layer_2-2" data-name="Layer 2"><g><path class="cls-2" d="M141.7,0C63.5,0,0,63.5,0,141.7v247.8H247.8c78.3,0,141.7-63.4,141.7-141.7V0H141.7Zm132.6,304.5H121.7v-15.9l90.5-88.6c11.4-11.2,19.1-20.9,23.2-29.1,4-8.2,6.1-16.4,6.1-24.7,0-12.8-4.4-22.8-13.2-30-8.8-7.1-21.4-10.7-37.8-10.7-25.5,0-45.3,8.1-59.4,24.2l-15.9-13.7c8.5-9.9,19.3-17.6,32.5-23,13.2-5.4,28-8.1,44.6-8.1s39.7,5.2,52.7,15.7c12.9,10.5,19.4,24.8,19.4,43s-2.5,22-7.5,32.3c-5,10.4-14.4,22.3-28.3,35.7l-74,72.7h119.7v19.9Z"></path><path class="cls-1" d="M228.7,211.9c13.9-13.5,23.3-25.4,28.3-35.7,5-10.4,7.5-21.1,7.5-32.3,0-18.2-6.5-32.6-19.4-43-13-10.5-30.5-15.7-52.7-15.7s-31.4,2.7-44.6,8.1c-13.2,5.4-24,13.1-32.5,23l15.9,13.7c14.1-16.2,33.9-24.2,59.4-24.2s29,3.6,37.8,10.7c8.8,7.1,13.2,17.1,13.2,30s-2,16.5-6.1,24.7c-4,8.2-11.8,17.9-23.2,29.1l-90.5,88.6v15.9h152.6v-19.9h-119.7l74-72.7Z"></path></g></g></svg> 