<?xml version="1.0" encoding="UTF-8"?> <svg xmlns="http://www.w3.org/2000/svg" id="Layer_2" data-name="Layer 2" viewBox="0 0 389.6 389.5"><defs><style> .cls-1 { fill: #fff; } .cls-2 { fill: #0e3152; } </style></defs><g id="Layer_2-2" data-name="Layer 2"><g><path class="cls-2" d="M141.7,0C63.5,0,0,63.5,0,141.7v247.8H247.8c78.3,0,141.7-63.4,141.7-141.7V0H141.7Zm119,278.3c-6,9.6-14.9,17.3-26.7,22.8s-26.2,8.4-43.2,8.4-30.6-2.5-44.6-7.6c-14-5.1-25.2-11.9-33.7-20.4l10.9-17.7c7.3,7.5,16.9,13.5,28.9,18.2,12,4.7,24.9,7,38.5,7s31.6-3.9,41.3-11.7c9.7-7.8,14.6-18.5,14.6-32.2s-4.9-24-14.6-31.7c-9.7-7.7-24.5-11.5-44.1-11.5h-15.5v-16.5l60.3-75.5H121.4v-19.9h139.9v15.9l-61.5,77.4c22.8,1.2,40.1,7.4,52.1,18.5,11.9,11.1,17.9,25.5,17.9,43.4s-3,23.5-9,33.1Z"></path><path class="cls-1" d="M251.8,201.8c-11.9-11.1-29.3-17.3-52.1-18.5l61.5-77.4v-15.9H121.4v19.9h111.3l-60.3,75.5v16.5h15.5c19.7,0,34.4,3.8,44.1,11.5,9.7,7.7,14.6,18.2,14.6,31.7s-4.9,24.4-14.6,32.2c-9.7,7.8-23.5,11.7-41.3,11.7s-26.5-2.3-38.5-7c-12-4.7-21.7-10.7-28.9-18.2l-10.9,17.7c8.5,8.5,19.7,15.3,33.7,20.4,14,5.1,28.9,7.6,44.6,7.6s31.4-2.8,43.2-8.4,20.7-13.2,26.7-22.8c6-9.6,9-20.7,9-33.1,0-17.8-6-32.3-17.9-43.4Z"></path></g></g></svg> 