<?xml version="1.0" encoding="UTF-8"?> <svg xmlns="http://www.w3.org/2000/svg" id="Layer_2" data-name="Layer 2" viewBox="0 0 389.6 389.5"><defs><style> .cls-1 { fill: #fff; } .cls-2 { fill: #0e3152; } </style></defs><g id="Layer_2-2" data-name="Layer 2"><g><path class="cls-2" d="M141.7,0C63.5,0,0,63.5,0,141.7v247.8H247.8c78.3,0,141.7-63.5,141.7-141.7V0H141.7Zm122.7,272.5c-5.9,9.9-14.8,17.8-26.6,23.5-11.8,5.7-26.3,8.5-43.5,8.5s-30.3-2.5-44.3-7.6c-14-5.1-25.2-11.9-33.7-20.4l10.9-17.7c7.3,7.5,16.8,13.5,28.6,18.2s24.6,7,38.2,7,32-4,41.8-12.1c9.8-8.1,14.8-18.9,14.8-32.3s-5.5-26.2-16.6-33.9c-11.1-7.7-29.8-11.5-56.1-11.5h-46.3l11.2-109.1h119v19.9h-99.5l-7.5,69.3h28c31.5,0,54.4,5.6,68.8,16.9,14.4,11.3,21.6,27.1,21.6,47.4s-3,23.9-8.9,33.9Z"></path><path class="cls-1" d="M251.7,191.2c-14.4-11.3-37.4-16.9-68.8-16.9h-28l7.5-69.3h99.5v-19.9h-119l-11.2,109.1h46.3c26.3,0,45,3.8,56.1,11.5,11.1,7.7,16.6,19,16.6,33.9s-4.9,24.2-14.8,32.3c-9.8,8.1-23.8,12.1-41.8,12.1s-26.4-2.3-38.2-7-21.3-10.7-28.6-18.2l-10.9,17.7c8.5,8.5,19.7,15.3,33.7,20.4,14,5.1,28.8,7.6,44.3,7.6s31.7-2.8,43.5-8.5c11.8-5.7,20.7-13.5,26.6-23.5,5.9-9.9,8.9-21.2,8.9-33.9,0-20.3-7.2-36.1-21.6-47.4Z"></path></g></g></svg> 