<?xml version="1.0" encoding="UTF-8"?> <svg xmlns="http://www.w3.org/2000/svg" id="Layer_2" data-name="Layer 2" viewBox="0 0 389.6 389.6"><defs><style> .cls-1 { fill: #fff; } .cls-2 { fill: #0e3152; } </style></defs><g id="Layer_2-2" data-name="Layer 2"><g><g id="Layer_1-2" data-name="Layer 1-2"><path class="cls-2" d="M389.6,0V247.8c0,78.3-63.5,141.7-141.7,141.7H0V141.7C0,63.5,63.5,0,141.7,0h247.8Z"></path></g><path class="cls-1" d="M241.3,181.4c11.1,5.4,19.7,13,26,22.8,6.2,9.8,9.3,21.3,9.3,34.3s-3.2,25-9.6,35.1c-6.4,10.2-15.3,18-26.6,23.5-11.3,5.5-24,8.2-38.1,8.2-28.8,0-50.9-9.5-66.2-28.4-15.3-19-23-45.7-23-80.3s4.1-44.8,12.4-61.5c8.3-16.8,19.9-29.5,34.8-38.1,14.9-8.6,32.3-12.9,52.2-12.9s38.7,3.9,51.6,11.8l-9,18c-10.4-6.8-24.5-10.3-42.3-10.3s-42.9,7.6-56.6,22.8c-13.7,15.2-20.5,37.4-20.5,66.4s.3,11.1,.9,17.7c5.4-11.8,14-21,25.8-27.5s25.4-9.8,40.7-9.8,27,2.7,38.1,8.1Zm-1.6,92.2c9.8-8.6,14.8-20,14.8-34.3s-4.9-25.7-14.8-34.2c-9.8-8.5-23.2-12.7-39.9-12.7s-20.7,2.1-29.1,6.2c-8.4,4.1-15,9.8-19.7,17.1-4.8,7.3-7.1,15.3-7.1,24.2s2.2,16,6.7,23c4.5,7,11,12.7,19.7,17.1s19.1,6.5,31.1,6.5,28.5-4.3,38.4-12.9Z"></path></g></g></svg> 