<?xml version="1.0" encoding="UTF-8"?> <svg xmlns="http://www.w3.org/2000/svg" id="Layer_2" data-name="Layer 2" viewBox="0 0 539.7 439.7"><defs><style> .cls-1 { fill: #094170; } .cls-2 { fill: #f4a506; } .cls-3 { fill: #fff; } .cls-4 { fill: #0e3152; } .cls-5 { fill: #ffca07; } </style></defs><g id="Layer_1-2" data-name="Layer 1"><g><polygon class="cls-2" points="0 90.2 0 101.7 0 294.4 0 318.9 34.4 331.9 34.4 294.4 34.4 101.7 34.4 77.2 0 90.2"></polygon><polygon class="cls-5" points="34.4 77.2 34.4 101.7 34.4 294.4 34.4 331.9 68.9 318.9 68.9 294.4 68.9 101.7 68.9 90.2 34.4 77.2"></polygon><polygon class="cls-4" points="0 233.9 0 291.1 0 366.2 0 390.8 34.4 403.8 34.4 366.2 34.4 291.1 34.4 220.9 0 233.9"></polygon><polygon class="cls-1" points="34.4 221 34.4 284.7 34.4 366.2 34.4 403.8 68.9 390.8 68.9 366.2 68.9 284.7 68.9 234 34.4 221"></polygon><polygon class="cls-2" points="0 249 0 263.5 34.4 250.5 34.4 236 0 249"></polygon><polygon class="cls-5" points="34.4 236 34.4 250.5 68.9 263.5 68.9 249 34.4 236"></polygon><polygon class="cls-2" points="93.8 90.2 93.8 101.7 93.8 294.4 93.8 318.9 128.2 331.9 128.2 294.4 128.2 101.7 128.2 77.2 93.8 90.2"></polygon><polygon class="cls-5" points="128.2 77.2 128.2 101.7 128.2 294.4 128.2 331.9 162.7 318.9 162.7 294.4 162.7 101.7 162.7 90.2 128.2 77.2"></polygon><polygon class="cls-4" points="93.8 191.5 93.8 366.2 93.8 390.8 128.2 403.8 128.2 366.2 128.2 178.4 93.8 191.5"></polygon><polygon class="cls-1" points="128.2 178.4 128.2 327.1 128.2 366.2 128.2 403.8 162.7 390.8 162.7 366.2 162.7 327.1 162.7 191.5 128.2 178.4"></polygon><polygon class="cls-2" points="93.8 206.5 93.8 221 128.2 207.9 128.2 193.4 93.8 206.5"></polygon><polygon class="cls-5" points="128.2 193.4 128.2 207.9 162.7 221 162.7 206.5 128.2 193.4"></polygon><polygon class="cls-2" points="188.1 90.2 188.1 101.7 188.1 294.4 188.1 328.9 222.5 341.9 222.5 294.4 222.5 101.7 222.5 77.2 188.1 90.2"></polygon><polygon class="cls-5" points="222.5 77.2 222.5 101.7 222.5 294.4 222.5 341.9 256.9 328.9 256.9 294.4 256.9 101.7 256.9 90.2 222.5 77.2"></polygon><polygon class="cls-4" points="188.1 184.9 188.1 366.2 188.1 390.8 222.5 403.8 222.5 366.2 222.5 171.9 188.1 184.9"></polygon><polygon class="cls-1" points="222.5 171.9 222.5 196.4 222.5 366.2 222.5 403.8 256.9 390.8 256.9 366.2 256.9 196.4 256.9 184.9 222.5 171.9"></polygon><polygon class="cls-2" points="188.1 199.9 188.1 214.4 222.5 201.4 222.5 186.9 188.1 199.9"></polygon><polygon class="cls-5" points="222.5 186.9 222.5 201.4 256.9 214.4 256.9 199.9 222.5 186.9"></polygon><polygon class="cls-2" points="282.3 90.2 282.3 101.7 282.3 294.4 282.3 328.9 316.8 341.9 316.8 294.4 316.8 101.7 316.8 77.2 282.3 90.2"></polygon><polygon class="cls-5" points="316.8 77.2 316.8 101.7 316.8 294.4 316.8 341.9 351.2 328.9 351.2 294.4 351.2 101.7 351.2 90.2 316.8 77.2"></polygon><polygon class="cls-4" points="282.3 188.2 282.3 366.2 282.3 390.8 316.8 403.8 316.8 366.2 316.8 175.2 282.3 188.2"></polygon><polygon class="cls-1" points="316.8 175.2 316.8 330.3 316.8 366.2 316.8 403.8 351.2 390.8 351.2 366.2 351.2 330.3 351.2 188.2 316.8 175.2"></polygon><polygon class="cls-2" points="282.3 203.2 282.3 217.7 316.8 204.7 316.8 190.2 282.3 203.2"></polygon><polygon class="cls-5" points="316.8 190.2 316.8 204.7 351.2 217.7 351.2 203.2 316.8 190.2"></polygon><polygon class="cls-2" points="376.6 90.2 376.6 101.7 376.6 294.4 376.6 348.9 411 361.9 411 294.4 411 101.7 411 77.2 376.6 90.2"></polygon><polygon class="cls-5" points="411 77.2 411 101.7 411 294.4 411 361.9 445.5 348.9 445.5 294.4 445.5 101.7 445.5 90.2 411 77.2"></polygon><polygon class="cls-4" points="376.6 171.9 376.6 366.2 376.6 390.8 411 403.8 411 366.2 411 158.8 376.6 171.9"></polygon><polygon class="cls-1" points="411 158.8 411 346.6 411 366.2 411 403.8 445.5 390.8 445.5 366.2 445.5 346.6 445.5 171.9 411 158.8"></polygon><polygon class="cls-2" points="376.6 186.9 376.6 201.4 411 188.3 411 173.8 376.6 186.9"></polygon><polygon class="cls-5" points="411 173.8 411 188.3 445.5 201.4 445.5 186.9 411 173.8"></polygon><polygon class="cls-2" points="470.8 90.2 470.8 101.7 470.8 294.4 470.8 348.9 505.3 361.9 505.3 294.4 505.3 101.7 505.3 77.2 470.8 90.2"></polygon><polygon class="cls-5" points="505.3 77.2 505.3 101.7 505.3 294.4 505.3 361.9 539.7 348.9 539.7 294.4 539.7 101.7 539.7 90.2 505.3 77.2"></polygon><polygon class="cls-4" points="470.8 171.9 470.8 366.2 470.8 390.8 505.3 403.8 505.3 366.2 505.3 158.8 470.8 171.9"></polygon><polygon class="cls-1" points="505.3 158.8 505.3 346.6 505.3 366.2 505.3 403.8 539.7 390.8 539.7 366.2 539.7 346.6 539.7 171.9 505.3 158.8"></polygon><polygon class="cls-2" points="470.8 186.9 470.8 201.4 505.3 188.3 505.3 173.8 470.8 186.9"></polygon><polygon class="cls-5" points="505.3 173.8 505.3 188.3 539.7 201.4 539.7 186.9 505.3 173.8"></polygon><g><path class="cls-3" d="M22.6,360.5c1,.8,1.5,2,1.5,3.4s-.2,1.7-.7,2.5c-.4,.7-1.1,1.3-2,1.8s-2,.7-3.3,.7-2.1-.2-3.1-.5c-1-.3-1.9-.7-2.6-1.3l1.2-2.2c.6,.5,1.2,.8,2,1.1,.8,.3,1.6,.4,2.4,.4s1.8-.2,2.4-.6c.6-.4,.9-1,.9-1.7s-.3-1.4-.9-1.8c-.6-.4-1.7-.6-3.2-.6h-3.7l.8-8.3h8.9v2.4h-6.5l-.3,3.5h1.5c2.1,0,3.7,.4,4.8,1.2Z"></path><path class="cls-3" d="M35.4,359.8c.8,.4,1.4,.9,1.9,1.6,.4,.7,.7,1.5,.7,2.5s-.2,1.9-.7,2.6c-.5,.7-1.2,1.3-2,1.7-.8,.4-1.8,.6-2.8,.6-2.1,0-3.7-.7-4.9-2-1.2-1.3-1.7-3.2-1.7-5.6s.3-3.2,.9-4.4c.6-1.2,1.5-2.1,2.6-2.8,1.1-.6,2.4-.9,3.9-.9s1.5,0,2.2,.3,1.3,.4,1.8,.7l-1,2.1c-.8-.5-1.7-.7-2.9-.7s-2.6,.4-3.4,1.3c-.8,.9-1.2,2.2-1.2,3.9h0c.4-.5,1-.9,1.7-1.2,.7-.3,1.5-.4,2.3-.4s1.9,.2,2.7,.6Zm-1,6.1c.6-.5,.8-1.1,.8-1.9s-.3-1.4-.8-1.9-1.3-.7-2.2-.7-1.7,.2-2.2,.7c-.6,.5-.9,1.1-.9,1.9s.3,1.4,.8,1.8c.6,.5,1.3,.7,2.3,.7s1.6-.2,2.2-.7Z"></path><path class="cls-3" d="M39.8,360.4c-.7-.8-1-1.8-1-3s.3-2.3,1-3c.7-.8,1.5-1.2,2.6-1.2s2,.4,2.6,1.1c.7,.8,1,1.8,1,3s-.3,2.3-1,3c-.7,.8-1.6,1.1-2.6,1.1s-2-.4-2.6-1.2Zm4-1.1c.3-.5,.5-1.1,.5-2s-.2-1.5-.5-2c-.3-.5-.8-.7-1.4-.7s-1,.2-1.4,.7-.5,1.1-.5,1.9,.2,1.5,.5,1.9c.3,.5,.8,.7,1.4,.7s1.1-.2,1.4-.7Zm7.7-6h2.1l-10.4,15.2h-2.1l10.4-15.2Zm-1.8,14.2c-.7-.8-1-1.8-1-3s.3-2.3,1-3c.7-.8,1.5-1.2,2.6-1.2s2,.4,2.6,1.2c.7,.8,1,1.8,1,3s-.3,2.3-1,3c-.7,.8-1.6,1.2-2.6,1.2s-2-.4-2.6-1.2Zm4-1.1c.3-.5,.5-1.1,.5-1.9s-.2-1.5-.5-1.9c-.3-.5-.8-.7-1.4-.7s-1,.2-1.4,.7c-.3,.5-.5,1.1-.5,2s.2,1.5,.5,2c.3,.5,.8,.7,1.4,.7s1-.2,1.4-.7Z"></path></g><g><path class="cls-3" d="M115.8,359.8c.8,.4,1.4,.9,1.9,1.6,.4,.7,.7,1.5,.7,2.5s-.2,1.9-.7,2.6c-.5,.7-1.2,1.3-2,1.7-.8,.4-1.8,.6-2.8,.6-2.1,0-3.7-.7-4.9-2-1.2-1.3-1.7-3.2-1.7-5.6s.3-3.2,.9-4.4c.6-1.2,1.5-2.1,2.6-2.8,1.1-.6,2.4-.9,3.9-.9s1.5,0,2.2,.3,1.3,.4,1.8,.7l-1,2.1c-.8-.5-1.7-.7-2.9-.7s-2.6,.4-3.4,1.3c-.8,.9-1.2,2.2-1.2,3.9h0c.4-.5,1-.9,1.7-1.2,.7-.3,1.5-.4,2.3-.4s1.9,.2,2.7,.6Zm-1,6.1c.6-.5,.8-1.1,.8-1.9s-.3-1.4-.8-1.9-1.3-.7-2.2-.7-1.7,.2-2.2,.7c-.6,.5-.9,1.1-.9,1.9s.3,1.4,.8,1.8c.6,.5,1.3,.7,2.3,.7s1.6-.2,2.2-.7Z"></path><path class="cls-3" d="M129.8,355.1c1.2,1.3,1.7,3.2,1.7,5.6s-.3,3.2-.9,4.4c-.6,1.2-1.5,2.1-2.6,2.8-1.1,.6-2.4,.9-3.9,.9s-1.5,0-2.2-.3c-.7-.2-1.3-.4-1.8-.7l1-2.1c.8,.5,1.7,.7,2.9,.7s2.6-.4,3.4-1.3c.8-.9,1.2-2.2,1.2-3.9h0c-.4,.5-1,.9-1.7,1.2s-1.5,.4-2.3,.4-1.9-.2-2.7-.6-1.4-.9-1.9-1.6c-.4-.7-.7-1.5-.7-2.5s.2-1.8,.7-2.6,1.2-1.3,2-1.7c.8-.4,1.8-.6,2.8-.6,2.1,0,3.7,.7,4.9,2Zm-2.4,4.7c.6-.5,.9-1.1,.9-1.9s-.3-1.4-.8-1.8c-.6-.5-1.3-.7-2.3-.7s-1.6,.2-2.2,.7-.8,1.1-.8,1.9,.3,1.4,.8,1.9c.6,.5,1.3,.7,2.2,.7s1.7-.2,2.2-.7Z"></path><path class="cls-3" d="M134.2,360.4c-.7-.8-1-1.8-1-3s.3-2.3,1-3c.7-.8,1.5-1.2,2.6-1.2s2,.4,2.6,1.1c.7,.8,1,1.8,1,3s-.3,2.3-1,3c-.7,.8-1.6,1.1-2.6,1.1s-2-.4-2.6-1.2Zm4-1.1c.3-.5,.5-1.1,.5-2s-.2-1.5-.5-2c-.3-.5-.8-.7-1.4-.7s-1,.2-1.4,.7-.5,1.1-.5,1.9,.2,1.5,.5,1.9c.3,.5,.8,.7,1.4,.7s1.1-.2,1.4-.7Zm7.7-6h2.1l-10.4,15.2h-2.1l10.4-15.2Zm-1.8,14.2c-.7-.8-1-1.8-1-3s.3-2.3,1-3c.7-.8,1.5-1.2,2.6-1.2s2,.4,2.6,1.2c.7,.8,1,1.8,1,3s-.3,2.3-1,3c-.7,.8-1.6,1.2-2.6,1.2s-2-.4-2.6-1.2Zm4-1.1c.3-.5,.5-1.1,.5-1.9s-.2-1.5-.5-1.9c-.3-.5-.8-.7-1.4-.7s-1,.2-1.4,.7c-.3,.5-.5,1.1-.5,2s.2,1.5,.5,2c.3,.5,.8,.7,1.4,.7s1-.2,1.4-.7Z"></path></g><g><path class="cls-3" d="M214.7,353.4v1.9l-5.9,13.3h-3l5.7-12.8h-6v2.6h-2.6v-5h11.8Z"></path><path class="cls-3" d="M221.9,353.4v15.2h-2.8v-12.8h-3.2v-2.4h6Z"></path><path class="cls-3" d="M225.7,360.4c-.7-.8-1-1.8-1-3s.3-2.3,1-3c.7-.8,1.5-1.2,2.6-1.2s2,.4,2.6,1.1c.7,.8,1,1.8,1,3s-.3,2.3-1,3c-.7,.8-1.6,1.1-2.6,1.1s-2-.4-2.6-1.2Zm4-1.1c.3-.5,.5-1.1,.5-2s-.2-1.5-.5-2c-.3-.5-.8-.7-1.4-.7s-1,.2-1.4,.7c-.3,.5-.5,1.1-.5,1.9s.2,1.5,.5,1.9c.3,.5,.8,.7,1.4,.7s1.1-.2,1.4-.7Zm7.7-6h2.1l-10.4,15.2h-2.1l10.4-15.2Zm-1.8,14.2c-.7-.8-1-1.8-1-3s.3-2.3,1-3c.7-.8,1.5-1.2,2.6-1.2s2,.4,2.6,1.2c.7,.8,1,1.8,1,3s-.3,2.3-1,3c-.7,.8-1.6,1.2-2.6,1.2s-2-.4-2.6-1.2Zm4-1.1c.3-.5,.5-1.1,.5-1.9s-.2-1.5-.5-1.9c-.3-.5-.8-.7-1.4-.7s-1,.2-1.4,.7c-.3,.5-.5,1.1-.5,2s.2,1.5,.5,2c.3,.5,.8,.7,1.4,.7s1-.2,1.4-.7Z"></path></g><g><path class="cls-3" d="M306.2,353.4v1.9l-5.9,13.3h-3l5.7-12.8h-6v2.6h-2.6v-5h11.8Z"></path><path class="cls-3" d="M310.5,367.9c-1-.6-1.7-1.5-2.3-2.7-.6-1.2-.8-2.6-.8-4.2s.3-3,.8-4.2c.5-1.2,1.3-2.1,2.3-2.7s2-.9,3.3-.9,2.3,.3,3.3,.9,1.7,1.5,2.3,2.7c.6,1.2,.8,2.6,.8,4.2s-.3,3-.8,4.2c-.6,1.2-1.3,2.1-2.3,2.7-1,.6-2.1,.9-3.3,.9s-2.3-.3-3.3-.9Zm5.8-2.9c.6-.9,.9-2.2,.9-4s-.3-3.1-.9-4-1.5-1.3-2.6-1.3-1.9,.4-2.6,1.3-.9,2.2-.9,4,.3,3.1,.9,4c.6,.9,1.5,1.3,2.6,1.3s1.9-.4,2.6-1.3Z"></path><path class="cls-3" d="M322.8,360.4c-.7-.8-1-1.8-1-3s.3-2.3,1-3c.7-.8,1.5-1.2,2.6-1.2s2,.4,2.6,1.1,1,1.8,1,3-.3,2.3-1,3-1.6,1.1-2.6,1.1-2-.4-2.6-1.2Zm4-1.1c.3-.5,.5-1.1,.5-2s-.2-1.5-.5-2c-.3-.5-.8-.7-1.4-.7s-1,.2-1.4,.7-.5,1.1-.5,1.9,.2,1.5,.5,1.9c.3,.5,.8,.7,1.4,.7s1.1-.2,1.4-.7Zm7.7-6h2.1l-10.4,15.2h-2.1l10.4-15.2Zm-1.8,14.2c-.7-.8-1-1.8-1-3s.3-2.3,1-3c.7-.8,1.5-1.2,2.6-1.2s2,.4,2.6,1.2c.7,.8,1,1.8,1,3s-.3,2.3-1,3c-.7,.8-1.6,1.2-2.6,1.2s-2-.4-2.6-1.2Zm4-1.1c.3-.5,.5-1.1,.5-1.9s-.2-1.5-.5-1.9c-.3-.5-.8-.7-1.4-.7s-1,.2-1.4,.7c-.3,.5-.5,1.1-.5,2s.2,1.5,.5,2c.3,.5,.8,.7,1.4,.7s1-.2,1.4-.7Z"></path></g><g><path class="cls-3" d="M401.5,353.3v1.9l-5.9,13.3h-3l5.7-12.8h-6v2.6h-2.6v-5h11.8Z"></path><path class="cls-3" d="M412.3,360.5c1,.8,1.5,2,1.5,3.4s-.2,1.7-.7,2.5c-.4,.7-1.1,1.3-2,1.8-.9,.4-2,.7-3.3,.7s-2.1-.2-3.2-.5c-1-.3-1.9-.7-2.6-1.3l1.2-2.2c.6,.5,1.2,.8,2,1.1,.8,.3,1.6,.4,2.4,.4s1.8-.2,2.4-.6c.6-.4,.9-1,.9-1.7s-.3-1.4-.9-1.8c-.6-.4-1.7-.6-3.2-.6h-3.7l.8-8.3h8.9v2.4h-6.5l-.3,3.5h1.5c2.1,0,3.7,.4,4.8,1.2Z"></path><path class="cls-3" d="M416,360.4c-.7-.8-1-1.8-1-3s.3-2.3,1-3c.7-.8,1.5-1.2,2.6-1.2s2,.4,2.6,1.1,1,1.8,1,3-.3,2.3-1,3-1.6,1.1-2.6,1.1-2-.4-2.6-1.2Zm4-1.1c.3-.5,.5-1.1,.5-2s-.2-1.5-.5-2c-.3-.5-.8-.7-1.4-.7s-1,.2-1.4,.7c-.3,.5-.5,1.1-.5,1.9s.2,1.5,.5,1.9c.3,.5,.8,.7,1.4,.7s1.1-.2,1.4-.7Zm7.7-6h2.1l-10.4,15.2h-2.1l10.4-15.2Zm-1.8,14.2c-.7-.8-1-1.8-1-3s.3-2.3,1-3c.7-.8,1.5-1.2,2.6-1.2s2,.4,2.6,1.2c.7,.8,1,1.8,1,3s-.3,2.3-1,3c-.7,.8-1.6,1.2-2.6,1.2s-2-.4-2.6-1.2Zm4-1.1c.3-.5,.5-1.1,.5-1.9s-.2-1.5-.5-1.9c-.3-.5-.8-.7-1.4-.7s-1,.2-1.4,.7c-.3,.5-.5,1.1-.5,2s.2,1.5,.5,2c.3,.5,.8,.7,1.4,.7s1-.2,1.4-.7Z"></path></g><g><path class="cls-3" d="M495.7,353.3v1.9l-5.9,13.3h-3l5.7-12.8h-6v2.6h-2.6v-5h11.8Z"></path><path class="cls-3" d="M506.6,360.5c1,.8,1.5,2,1.5,3.4s-.2,1.7-.7,2.5c-.4,.7-1.1,1.3-2,1.8-.9,.4-2,.7-3.3,.7s-2.1-.2-3.2-.5c-1-.3-1.9-.7-2.6-1.3l1.2-2.2c.6,.5,1.2,.8,2,1.1,.8,.3,1.6,.4,2.4,.4s1.8-.2,2.4-.6c.6-.4,.9-1,.9-1.7s-.3-1.4-.9-1.8c-.6-.4-1.7-.6-3.2-.6h-3.7l.8-8.3h8.9v2.4h-6.5l-.3,3.5h1.5c2.1,0,3.7,.4,4.8,1.2Z"></path><path class="cls-3" d="M510.3,360.4c-.7-.8-1-1.8-1-3s.3-2.3,1-3c.7-.8,1.5-1.2,2.6-1.2s2,.4,2.6,1.1,1,1.8,1,3-.3,2.3-1,3-1.6,1.1-2.6,1.1-2-.4-2.6-1.2Zm4-1.1c.3-.5,.5-1.1,.5-2s-.2-1.5-.5-2c-.3-.5-.8-.7-1.4-.7s-1,.2-1.4,.7c-.3,.5-.5,1.1-.5,1.9s.2,1.5,.5,1.9c.3,.5,.8,.7,1.4,.7s1.1-.2,1.4-.7Zm7.7-6h2.1l-10.4,15.2h-2.1l10.4-15.2Zm-1.8,14.2c-.7-.8-1-1.8-1-3s.3-2.3,1-3c.7-.8,1.5-1.2,2.6-1.2s2,.4,2.6,1.2c.7,.8,1,1.8,1,3s-.3,2.3-1,3c-.7,.8-1.6,1.2-2.6,1.2s-2-.4-2.6-1.2Zm4-1.1c.3-.5,.5-1.1,.5-1.9s-.2-1.5-.5-1.9c-.3-.5-.8-.7-1.4-.7s-1,.2-1.4,.7c-.3,.5-.5,1.1-.5,2s.2,1.5,.5,2c.3,.5,.8,.7,1.4,.7s1-.2,1.4-.7Z"></path></g><g><path class="cls-4" d="M25.2,113.9h-2.7v3.5h-2.7v-3.5H11.4v-2l7.5-9.8h3l-7.1,9.4h5v-3.1h2.7v3.1h2.7v2.4Z"></path><path class="cls-4" d="M39.9,113.9h-2.7v3.5h-2.7v-3.5h-8.3v-2l7.5-9.8h3l-7.1,9.4h5v-3.1h2.7v3.1h2.7v2.4Z"></path><path class="cls-4" d="M41.2,109.2c-.7-.8-1-1.8-1-3s.3-2.3,1-3c.7-.8,1.5-1.2,2.6-1.2s2,.4,2.6,1.1c.7,.8,1,1.8,1,3s-.3,2.3-1,3c-.7,.8-1.6,1.1-2.6,1.1s-2-.4-2.6-1.2Zm4-1.1c.3-.5,.5-1.1,.5-2s-.2-1.5-.5-2c-.3-.5-.8-.7-1.4-.7s-1,.2-1.4,.7-.5,1.1-.5,1.9,.2,1.5,.5,1.9c.3,.5,.8,.7,1.4,.7s1.1-.2,1.4-.7Zm7.7-6h2.1l-10.4,15.2h-2.1l10.4-15.2Zm-1.8,14.2c-.7-.8-1-1.8-1-3s.3-2.3,1-3c.7-.8,1.5-1.2,2.6-1.2s2,.4,2.6,1.2c.7,.8,1,1.8,1,3s-.3,2.3-1,3c-.7,.8-1.6,1.2-2.6,1.2s-2-.4-2.6-1.2Zm4-1.1c.3-.5,.5-1.1,.5-1.9s-.2-1.5-.5-1.9c-.3-.5-.8-.7-1.4-.7s-1,.2-1.4,.7c-.3,.5-.5,1.1-.5,2s.2,1.5,.5,2c.3,.5,.8,.7,1.4,.7s1-.2,1.4-.7Z"></path></g><g><path class="cls-4" d="M119.1,109.8c.7,.8,1.1,1.8,1.1,2.9s-.2,1.7-.7,2.4c-.4,.7-1.1,1.3-2,1.7-.9,.4-2,.6-3.3,.6s-2.1-.2-3.1-.5c-1-.3-1.9-.7-2.6-1.3l1.2-2.2c.6,.5,1.2,.8,2,1.1,.8,.3,1.6,.4,2.4,.4s1.8-.2,2.4-.6c.6-.4,.9-1,.9-1.7s-.3-1.3-.8-1.7c-.5-.4-1.4-.6-2.5-.6h-1.4v-1.9l3.5-4.1h-6.9v-2.4h10.4v1.9l-3.7,4.4c1.4,.2,2.5,.7,3.2,1.4Z"></path><path class="cls-4" d="M127.3,102.1v15.2h-2.8v-12.8h-3.2v-2.4h6Z"></path><path class="cls-4" d="M131.1,109.2c-.7-.8-1-1.8-1-3s.3-2.3,1-3c.7-.8,1.5-1.2,2.6-1.2s2,.4,2.6,1.1c.7,.8,1,1.8,1,3s-.3,2.3-1,3c-.7,.8-1.6,1.1-2.6,1.1s-2-.4-2.6-1.2Zm4-1.1c.3-.5,.5-1.1,.5-2s-.2-1.5-.5-2c-.3-.5-.8-.7-1.4-.7s-1,.2-1.4,.7-.5,1.1-.5,1.9,.2,1.5,.5,1.9c.3,.5,.8,.7,1.4,.7s1.1-.2,1.4-.7Zm7.7-6h2.1l-10.4,15.2h-2.1l10.4-15.2Zm-1.8,14.2c-.7-.8-1-1.8-1-3s.3-2.3,1-3c.7-.8,1.5-1.2,2.6-1.2s2,.4,2.6,1.2c.7,.8,1,1.8,1,3s-.3,2.3-1,3c-.7,.8-1.6,1.2-2.6,1.2s-2-.4-2.6-1.2Zm4-1.1c.3-.5,.5-1.1,.5-1.9s-.2-1.5-.5-1.9c-.3-.5-.8-.7-1.4-.7s-1,.2-1.4,.7c-.3,.5-.5,1.1-.5,2s.2,1.5,.5,2c.3,.5,.8,.7,1.4,.7s1-.2,1.4-.7Z"></path></g><g><path class="cls-4" d="M212,114.9v2.4h-11.2v-1.9l6-5.7c.7-.7,1.1-1.2,1.4-1.7,.2-.5,.4-1,.4-1.4,0-.7-.2-1.3-.7-1.6-.5-.4-1.2-.6-2.1-.6-1.5,0-2.7,.5-3.6,1.6l-2-1.5c.6-.8,1.4-1.4,2.4-1.9,1-.4,2.1-.7,3.4-.7s3,.4,4,1.2c1,.8,1.5,1.8,1.5,3.2s-.2,1.6-.5,2.3-1,1.5-2,2.5l-4.1,3.9h7.2Z"></path><path class="cls-4" d="M223.6,103.9c1.2,1.3,1.7,3.2,1.7,5.6s-.3,3.2-.9,4.4c-.6,1.2-1.5,2.1-2.6,2.8-1.1,.6-2.4,.9-3.9,.9s-1.5,0-2.2-.3c-.7-.2-1.3-.4-1.8-.7l1-2.1c.8,.5,1.7,.7,2.9,.7s2.6-.4,3.4-1.3,1.2-2.2,1.2-3.9h0c-.4,.5-1,.9-1.7,1.2s-1.5,.4-2.3,.4-1.9-.2-2.7-.6c-.8-.4-1.4-.9-1.9-1.6-.4-.7-.7-1.5-.7-2.5s.2-1.8,.7-2.6,1.2-1.3,2-1.7,1.8-.6,2.8-.6c2.1,0,3.7,.7,4.9,2Zm-2.4,4.7c.6-.5,.9-1.1,.9-1.9s-.3-1.4-.8-1.8c-.6-.5-1.3-.7-2.3-.7s-1.6,.2-2.2,.7c-.5,.5-.8,1.1-.8,1.9s.3,1.4,.8,1.9c.6,.5,1.3,.7,2.2,.7s1.7-.2,2.2-.7Z"></path><path class="cls-4" d="M228,109.2c-.7-.8-1-1.8-1-3s.3-2.3,1-3c.7-.8,1.5-1.2,2.6-1.2s2,.4,2.6,1.1c.7,.8,1,1.8,1,3s-.3,2.3-1,3c-.7,.8-1.6,1.1-2.6,1.1s-2-.4-2.6-1.2Zm4-1.1c.3-.5,.5-1.1,.5-2s-.2-1.5-.5-2c-.3-.5-.8-.7-1.4-.7s-1,.2-1.4,.7c-.3,.5-.5,1.1-.5,1.9s.2,1.5,.5,1.9c.3,.5,.8,.7,1.4,.7s1.1-.2,1.4-.7Zm7.7-6h2.1l-10.4,15.2h-2.1l10.4-15.2Zm-1.8,14.2c-.7-.8-1-1.8-1-3s.3-2.3,1-3c.7-.8,1.5-1.2,2.6-1.2s2,.4,2.6,1.2c.7,.8,1,1.8,1,3s-.3,2.3-1,3c-.7,.8-1.6,1.2-2.6,1.2s-2-.4-2.6-1.2Zm4-1.1c.3-.5,.5-1.1,.5-1.9s-.2-1.5-.5-1.9c-.3-.5-.8-.7-1.4-.7s-1,.2-1.4,.7c-.3,.5-.5,1.1-.5,2s.2,1.5,.5,2c.3,.5,.8,.7,1.4,.7s1-.2,1.4-.7Z"></path></g><g><path class="cls-4" d="M304.4,109.8c.7,.8,1.1,1.8,1.1,2.9s-.2,1.7-.7,2.4c-.4,.7-1.1,1.3-2,1.7-.9,.4-2,.6-3.3,.6s-2.1-.2-3.1-.5c-1-.3-1.9-.7-2.6-1.3l1.2-2.2c.6,.5,1.2,.8,2,1.1,.8,.3,1.6,.4,2.4,.4s1.8-.2,2.4-.6c.6-.4,.9-1,.9-1.7s-.3-1.3-.8-1.7c-.5-.4-1.4-.6-2.5-.6h-1.4v-1.9l3.5-4.1h-6.9v-2.4h10.4v1.9l-3.7,4.4c1.4,.2,2.5,.7,3.2,1.4Z"></path><path class="cls-4" d="M310.5,116.6c-1-.6-1.7-1.5-2.3-2.7-.5-1.2-.8-2.6-.8-4.2s.3-3,.8-4.2c.6-1.2,1.3-2.1,2.3-2.7,1-.6,2-.9,3.3-.9s2.3,.3,3.3,.9c1,.6,1.7,1.5,2.3,2.7,.5,1.2,.8,2.6,.8,4.2s-.3,3-.8,4.2c-.6,1.2-1.3,2.1-2.3,2.7-1,.6-2.1,.9-3.3,.9s-2.3-.3-3.3-.9Zm5.8-2.9c.6-.9,.9-2.2,.9-4s-.3-3.1-.9-4-1.5-1.3-2.6-1.3-1.9,.4-2.6,1.3-.9,2.2-.9,4,.3,3.1,.9,4c.6,.9,1.5,1.3,2.6,1.3s1.9-.4,2.6-1.3Z"></path><path class="cls-4" d="M322.8,109.2c-.7-.8-1-1.8-1-3s.3-2.3,1-3c.7-.8,1.5-1.2,2.6-1.2s2,.4,2.6,1.1c.7,.8,1,1.8,1,3s-.3,2.3-1,3c-.7,.8-1.6,1.1-2.6,1.1s-2-.4-2.6-1.2Zm4-1.1c.3-.5,.5-1.1,.5-2s-.2-1.5-.5-2c-.3-.5-.8-.7-1.4-.7s-1,.2-1.4,.7c-.3,.5-.5,1.1-.5,1.9s.2,1.5,.5,1.9c.3,.5,.8,.7,1.4,.7s1.1-.2,1.4-.7Zm7.7-6h2.1l-10.4,15.2h-2.1l10.4-15.2Zm-1.8,14.2c-.7-.8-1-1.8-1-3s.3-2.3,1-3c.7-.8,1.5-1.2,2.6-1.2s2,.4,2.6,1.2c.7,.8,1,1.8,1,3s-.3,2.3-1,3c-.7,.8-1.6,1.2-2.6,1.2s-2-.4-2.6-1.2Zm4-1.1c.3-.5,.5-1.1,.5-1.9s-.2-1.5-.5-1.9c-.3-.5-.8-.7-1.4-.7s-1,.2-1.4,.7c-.3,.5-.5,1.1-.5,2s.2,1.5,.5,2c.3,.5,.8,.7,1.4,.7s1-.2,1.4-.7Z"></path></g><g><path class="cls-4" d="M401.1,114.9v2.4h-11.2v-1.9l6-5.7c.7-.7,1.1-1.2,1.4-1.7,.2-.5,.4-1,.4-1.4,0-.7-.2-1.3-.7-1.6-.5-.4-1.2-.6-2.1-.6-1.5,0-2.7,.5-3.6,1.6l-2-1.5c.6-.8,1.4-1.4,2.4-1.9,1-.4,2.1-.7,3.4-.7s3,.4,4,1.2c1,.8,1.5,1.8,1.5,3.2s-.2,1.6-.5,2.3-1,1.5-2,2.5l-4.1,3.9h7.2Z"></path><path class="cls-4" d="M412.2,109.3c1,.8,1.5,2,1.5,3.4s-.2,1.7-.7,2.5c-.4,.7-1.1,1.3-2,1.8-.9,.4-2,.7-3.3,.7s-2.1-.2-3.2-.5c-1-.3-1.9-.7-2.6-1.3l1.2-2.2c.6,.5,1.2,.8,2,1.1,.8,.3,1.6,.4,2.4,.4s1.8-.2,2.4-.6c.6-.4,.9-1,.9-1.7s-.3-1.4-.9-1.8c-.6-.4-1.7-.6-3.2-.6h-3.7l.8-8.3h8.9v2.4h-6.5l-.3,3.5h1.5c2.1,0,3.7,.4,4.8,1.2Z"></path><path class="cls-4" d="M416,109.2c-.7-.8-1-1.8-1-3s.3-2.3,1-3c.7-.8,1.5-1.2,2.6-1.2s2,.4,2.6,1.1c.7,.8,1,1.8,1,3s-.3,2.3-1,3c-.7,.8-1.6,1.1-2.6,1.1s-2-.4-2.6-1.2Zm4-1.1c.3-.5,.5-1.1,.5-2s-.2-1.5-.5-2c-.3-.5-.8-.7-1.4-.7s-1,.2-1.4,.7c-.3,.5-.5,1.1-.5,1.9s.2,1.5,.5,1.9c.3,.5,.8,.7,1.4,.7s1.1-.2,1.4-.7Zm7.7-6h2.1l-10.4,15.2h-2.1l10.4-15.2Zm-1.8,14.2c-.7-.8-1-1.8-1-3s.3-2.3,1-3c.7-.8,1.5-1.2,2.6-1.2s2,.4,2.6,1.2c.7,.8,1,1.8,1,3s-.3,2.3-1,3c-.7,.8-1.6,1.2-2.6,1.2s-2-.4-2.6-1.2Zm4-1.1c.3-.5,.5-1.1,.5-1.9s-.2-1.5-.5-1.9c-.3-.5-.8-.7-1.4-.7s-1,.2-1.4,.7c-.3,.5-.5,1.1-.5,2s.2,1.5,.5,2c.3,.5,.8,.7,1.4,.7s1-.2,1.4-.7Z"></path></g><g><path class="cls-4" d="M495.4,114.9v2.4h-11.2v-1.9l6-5.7c.7-.7,1.1-1.2,1.4-1.7,.2-.5,.4-1,.4-1.4,0-.7-.2-1.3-.7-1.6-.5-.4-1.2-.6-2.1-.6-1.5,0-2.7,.5-3.6,1.6l-2-1.5c.6-.8,1.4-1.4,2.4-1.9,1-.4,2.1-.7,3.4-.7s3,.4,4,1.2c1,.8,1.5,1.8,1.5,3.2s-.2,1.6-.5,2.3-1,1.5-2,2.5l-4.1,3.9h7.2Z"></path><path class="cls-4" d="M506.5,109.3c1,.8,1.5,2,1.5,3.4s-.2,1.7-.7,2.5c-.4,.7-1.1,1.3-2,1.8-.9,.4-2,.7-3.3,.7s-2.1-.2-3.2-.5c-1-.3-1.9-.7-2.6-1.3l1.2-2.2c.6,.5,1.2,.8,2,1.1,.8,.3,1.6,.4,2.4,.4s1.8-.2,2.4-.6c.6-.4,.9-1,.9-1.7s-.3-1.4-.9-1.8c-.6-.4-1.7-.6-3.2-.6h-3.7l.8-8.3h8.9v2.4h-6.5l-.3,3.5h1.5c2.1,0,3.7,.4,4.8,1.2Z"></path><path class="cls-4" d="M510.2,109.2c-.7-.8-1-1.8-1-3s.3-2.3,1-3c.7-.8,1.5-1.2,2.6-1.2s2,.4,2.6,1.1c.7,.8,1,1.8,1,3s-.3,2.3-1,3c-.7,.8-1.6,1.1-2.6,1.1s-2-.4-2.6-1.2Zm4-1.1c.3-.5,.5-1.1,.5-2s-.2-1.5-.5-2c-.3-.5-.8-.7-1.4-.7s-1,.2-1.4,.7c-.3,.5-.5,1.1-.5,1.9s.2,1.5,.5,1.9c.3,.5,.8,.7,1.4,.7s1.1-.2,1.4-.7Zm7.7-6h2.1l-10.4,15.2h-2.1l10.4-15.2Zm-1.8,14.2c-.7-.8-1-1.8-1-3s.3-2.3,1-3c.7-.8,1.5-1.2,2.6-1.2s2,.4,2.6,1.2c.7,.8,1,1.8,1,3s-.3,2.3-1,3c-.7,.8-1.6,1.2-2.6,1.2s-2-.4-2.6-1.2Zm4-1.1c.3-.5,.5-1.1,.5-1.9s-.2-1.5-.5-1.9c-.3-.5-.8-.7-1.4-.7s-1,.2-1.4,.7c-.3,.5-.5,1.1-.5,2s.2,1.5,.5,2c.3,.5,.8,.7,1.4,.7s1-.2,1.4-.7Z"></path></g><g><path class="cls-4" d="M21.9,437.1v2.4H10.7v-1.9l6-5.7c.7-.7,1.1-1.2,1.4-1.7,.2-.5,.4-1,.4-1.4,0-.7-.2-1.3-.7-1.6-.5-.4-1.2-.6-2.1-.6-1.5,0-2.7,.5-3.6,1.6l-2-1.5c.6-.8,1.4-1.4,2.4-1.9,1-.4,2.1-.7,3.4-.7s3,.4,4,1.2c1,.8,1.5,1.8,1.5,3.2s-.2,1.6-.5,2.3-1,1.5-2,2.5l-4.1,3.9h7.2Z"></path><path class="cls-4" d="M26.6,438.8c-1-.6-1.7-1.5-2.3-2.7-.6-1.2-.8-2.6-.8-4.2s.3-3,.8-4.2c.6-1.2,1.3-2.1,2.3-2.7,1-.6,2-.9,3.3-.9s2.3,.3,3.3,.9c1,.6,1.7,1.5,2.3,2.7,.6,1.2,.8,2.6,.8,4.2s-.3,3-.8,4.2c-.6,1.2-1.3,2.1-2.3,2.7-1,.6-2.1,.9-3.3,.9s-2.3-.3-3.3-.9Zm5.8-2.9c.6-.9,.9-2.2,.9-4s-.3-3.1-.9-4-1.5-1.3-2.6-1.3-1.9,.4-2.6,1.3-.9,2.2-.9,4,.3,3.1,.9,4c.6,.9,1.5,1.3,2.6,1.3s1.9-.4,2.6-1.3Z"></path><path class="cls-4" d="M43.3,424.3v15.2h-2.8v-12.8h-3.2v-2.4h6Z"></path><path class="cls-4" d="M56.3,426c1.2,1.3,1.7,3.2,1.7,5.6s-.3,3.2-.9,4.4c-.6,1.2-1.5,2.1-2.6,2.8-1.1,.6-2.4,.9-3.9,.9s-1.5,0-2.2-.3c-.7-.2-1.3-.4-1.8-.7l1-2.1c.8,.5,1.7,.7,2.9,.7s2.6-.4,3.4-1.3c.8-.9,1.2-2.2,1.2-3.9h0c-.4,.5-1,.9-1.7,1.2s-1.5,.4-2.3,.4-1.9-.2-2.7-.6-1.4-.9-1.9-1.6c-.4-.7-.7-1.5-.7-2.5s.2-1.8,.7-2.6,1.2-1.3,2-1.7c.8-.4,1.8-.6,2.8-.6,2.1,0,3.7,.7,4.9,2Zm-2.4,4.7c.6-.5,.9-1.1,.9-1.9s-.3-1.4-.8-1.8c-.6-.5-1.3-.7-2.3-.7s-1.6,.2-2.2,.7-.8,1.1-.8,1.9,.3,1.4,.8,1.9c.6,.5,1.3,.7,2.2,.7s1.7-.2,2.2-.7Z"></path></g><g><path class="cls-4" d="M113.1,437.1v2.4h-11.2v-1.9l6-5.7c.7-.7,1.1-1.2,1.4-1.7,.2-.5,.4-1,.4-1.4,0-.7-.2-1.3-.7-1.6-.5-.4-1.2-.6-2.1-.6-1.5,0-2.7,.5-3.6,1.6l-2-1.5c.6-.8,1.4-1.4,2.4-1.9,1-.4,2.1-.7,3.4-.7s3,.4,4,1.2c1,.8,1.5,1.8,1.5,3.2s-.2,1.6-.5,2.3-1,1.5-2,2.5l-4.1,3.9h7.2Z"></path><path class="cls-4" d="M117.7,438.8c-1-.6-1.7-1.5-2.3-2.7-.6-1.2-.8-2.6-.8-4.2s.3-3,.8-4.2c.6-1.2,1.3-2.1,2.3-2.7,1-.6,2-.9,3.3-.9s2.3,.3,3.3,.9c1,.6,1.7,1.5,2.3,2.7,.6,1.2,.8,2.6,.8,4.2s-.3,3-.8,4.2c-.6,1.2-1.3,2.1-2.3,2.7-1,.6-2.1,.9-3.3,.9s-2.3-.3-3.3-.9Zm5.8-2.9c.6-.9,.9-2.2,.9-4s-.3-3.1-.9-4-1.5-1.3-2.6-1.3-1.9,.4-2.6,1.3-.9,2.2-.9,4,.3,3.1,.9,4c.6,.9,1.5,1.3,2.6,1.3s1.9-.4,2.6-1.3Z"></path><path class="cls-4" d="M140.2,437.1v2.4h-11.2v-1.9l6-5.7c.7-.7,1.1-1.2,1.4-1.7,.2-.5,.4-1,.4-1.4,0-.7-.2-1.3-.7-1.6-.5-.4-1.2-.6-2.1-.6-1.5,0-2.7,.5-3.6,1.6l-2-1.5c.6-.8,1.4-1.4,2.4-1.9,1-.4,2.1-.7,3.4-.7s3,.4,4,1.2c1,.8,1.5,1.8,1.5,3.2s-.2,1.6-.5,2.3-1,1.5-2,2.5l-4.1,3.9h7.2Z"></path><path class="cls-4" d="M144.8,438.8c-1-.6-1.7-1.5-2.3-2.7-.6-1.2-.8-2.6-.8-4.2s.3-3,.8-4.2c.6-1.2,1.3-2.1,2.3-2.7,1-.6,2-.9,3.3-.9s2.3,.3,3.3,.9c1,.6,1.7,1.5,2.3,2.7,.6,1.2,.8,2.6,.8,4.2s-.3,3-.8,4.2c-.6,1.2-1.3,2.1-2.3,2.7-1,.6-2.1,.9-3.3,.9s-2.3-.3-3.3-.9Zm5.8-2.9c.6-.9,.9-2.2,.9-4s-.3-3.1-.9-4-1.5-1.3-2.6-1.3-1.9,.4-2.6,1.3-.9,2.2-.9,4,.3,3.1,.9,4c.6,.9,1.5,1.3,2.6,1.3s1.9-.4,2.6-1.3Z"></path></g><g><path class="cls-4" d="M210.5,437.1v2.4h-11.2v-1.9l6-5.7c.7-.7,1.1-1.2,1.4-1.7,.2-.5,.4-1,.4-1.4,0-.7-.2-1.3-.7-1.6-.5-.4-1.2-.6-2.1-.6-1.5,0-2.7,.5-3.6,1.6l-2-1.5c.6-.8,1.4-1.4,2.4-1.9s2.1-.7,3.4-.7,3,.4,4,1.2c1,.8,1.5,1.8,1.5,3.2s-.2,1.6-.5,2.3-1,1.5-2,2.5l-4.1,3.9h7.2Z"></path><path class="cls-4" d="M215.1,438.8c-1-.6-1.7-1.5-2.3-2.7-.5-1.2-.8-2.6-.8-4.2s.3-3,.8-4.2c.6-1.2,1.3-2.1,2.3-2.7s2-.9,3.3-.9,2.3,.3,3.3,.9c1,.6,1.7,1.5,2.3,2.7,.6,1.2,.8,2.6,.8,4.2s-.3,3-.8,4.2c-.6,1.2-1.3,2.1-2.3,2.7-1,.6-2.1,.9-3.3,.9s-2.3-.3-3.3-.9Zm5.8-2.9c.6-.9,.9-2.2,.9-4s-.3-3.1-.9-4-1.5-1.3-2.6-1.3-1.9,.4-2.6,1.3-.9,2.2-.9,4,.3,3.1,.9,4c.6,.9,1.5,1.3,2.6,1.3s1.9-.4,2.6-1.3Z"></path><path class="cls-4" d="M237.6,437.1v2.4h-11.2v-1.9l6-5.7c.7-.7,1.1-1.2,1.4-1.7,.2-.5,.4-1,.4-1.4,0-.7-.2-1.3-.7-1.6-.5-.4-1.2-.6-2.1-.6-1.5,0-2.7,.5-3.6,1.6l-2-1.5c.6-.8,1.4-1.4,2.4-1.9,1-.4,2.1-.7,3.4-.7s3,.4,4,1.2c1,.8,1.5,1.8,1.5,3.2s-.2,1.6-.5,2.3-1,1.5-2,2.5l-4.1,3.9h7.2Z"></path><path class="cls-4" d="M244.4,424.3v15.2h-2.8v-12.8h-3.2v-2.4h6Z"></path></g><g><path class="cls-4" d="M302.5,437.1v2.4h-11.2v-1.9l6-5.7c.7-.7,1.1-1.2,1.4-1.7,.2-.5,.4-1,.4-1.4,0-.7-.2-1.3-.7-1.6-.5-.4-1.2-.6-2.1-.6-1.5,0-2.7,.5-3.6,1.6l-2-1.5c.6-.8,1.4-1.4,2.4-1.9,1-.4,2.1-.7,3.4-.7s3,.4,4,1.2c1,.8,1.5,1.8,1.5,3.2s-.2,1.6-.5,2.3-1,1.5-2,2.5l-4.1,3.9h7.2Z"></path><path class="cls-4" d="M307.2,438.8c-1-.6-1.7-1.5-2.3-2.7-.6-1.2-.8-2.6-.8-4.2s.3-3,.8-4.2c.6-1.2,1.3-2.1,2.3-2.7,1-.6,2-.9,3.3-.9s2.3,.3,3.3,.9,1.7,1.5,2.3,2.7c.5,1.2,.8,2.6,.8,4.2s-.3,3-.8,4.2c-.6,1.2-1.3,2.1-2.3,2.7-1,.6-2.1,.9-3.3,.9s-2.3-.3-3.3-.9Zm5.8-2.9c.6-.9,.9-2.2,.9-4s-.3-3.1-.9-4c-.6-.9-1.5-1.3-2.6-1.3s-1.9,.4-2.6,1.3c-.6,.9-.9,2.2-.9,4s.3,3.1,.9,4c.6,.9,1.5,1.3,2.6,1.3s1.9-.4,2.6-1.3Z"></path><path class="cls-4" d="M329.6,437.1v2.4h-11.2v-1.9l6-5.7c.7-.7,1.1-1.2,1.4-1.7,.2-.5,.4-1,.4-1.4,0-.7-.2-1.3-.7-1.6-.5-.4-1.2-.6-2.1-.6-1.5,0-2.7,.5-3.6,1.6l-2-1.5c.6-.8,1.4-1.4,2.4-1.9,1-.4,2.1-.7,3.4-.7s3,.4,4,1.2c1,.8,1.5,1.8,1.5,3.2s-.2,1.6-.5,2.3-1,1.5-2,2.5l-4.1,3.9h7.2Z"></path><path class="cls-4" d="M342.3,437.1v2.4h-11.2v-1.9l6-5.7c.7-.7,1.1-1.2,1.4-1.7,.2-.5,.4-1,.4-1.4,0-.7-.2-1.3-.7-1.6-.5-.4-1.2-.6-2.1-.6-1.5,0-2.7,.5-3.6,1.6l-2-1.5c.6-.8,1.4-1.4,2.4-1.9,1-.4,2.1-.7,3.4-.7s3,.4,4,1.2c1,.8,1.5,1.8,1.5,3.2s-.2,1.6-.5,2.3-1,1.5-2,2.5l-4.1,3.9h7.2Z"></path></g><g><path class="cls-4" d="M396.8,437.1v2.4h-11.2v-1.9l6-5.7c.7-.7,1.1-1.2,1.4-1.7,.2-.5,.4-1,.4-1.4,0-.7-.2-1.3-.7-1.6-.5-.4-1.2-.6-2.1-.6-1.5,0-2.7,.5-3.6,1.6l-2-1.5c.6-.8,1.4-1.4,2.4-1.9,1-.4,2.1-.7,3.4-.7s3,.4,4,1.2c1,.8,1.5,1.8,1.5,3.2s-.2,1.6-.5,2.3-1,1.5-2,2.5l-4.1,3.9h7.2Z"></path><path class="cls-4" d="M401.5,438.8c-1-.6-1.7-1.5-2.3-2.7-.6-1.2-.8-2.6-.8-4.2s.3-3,.8-4.2c.5-1.2,1.3-2.1,2.3-2.7,1-.6,2-.9,3.3-.9s2.3,.3,3.3,.9,1.7,1.5,2.3,2.7c.5,1.2,.8,2.6,.8,4.2s-.3,3-.8,4.2c-.6,1.2-1.3,2.1-2.3,2.7-1,.6-2.1,.9-3.3,.9s-2.3-.3-3.3-.9Zm5.8-2.9c.6-.9,.9-2.2,.9-4s-.3-3.1-.9-4-1.5-1.3-2.6-1.3-1.9,.4-2.6,1.3-.9,2.2-.9,4,.3,3.1,.9,4c.6,.9,1.5,1.3,2.6,1.3s1.9-.4,2.6-1.3Z"></path><path class="cls-4" d="M423.9,437.1v2.4h-11.2v-1.9l6-5.7c.7-.7,1.1-1.2,1.4-1.7,.2-.5,.4-1,.4-1.4,0-.7-.2-1.3-.7-1.6-.5-.4-1.2-.6-2.1-.6-1.5,0-2.7,.5-3.6,1.6l-2-1.5c.6-.8,1.4-1.4,2.4-1.9s2.1-.7,3.4-.7,3,.4,4,1.2c1,.8,1.5,1.8,1.5,3.2s-.2,1.6-.5,2.3-1,1.5-2,2.5l-4.1,3.9h7.2Z"></path><path class="cls-4" d="M435.2,432c.7,.8,1.1,1.8,1.1,2.9s-.2,1.7-.7,2.4c-.4,.7-1.1,1.3-2,1.7-.9,.4-2,.6-3.3,.6s-2.1-.2-3.1-.5c-1-.3-1.9-.7-2.6-1.3l1.2-2.2c.5,.5,1.2,.8,2,1.1,.8,.3,1.6,.4,2.4,.4s1.8-.2,2.4-.6c.6-.4,.9-1,.9-1.7s-.3-1.3-.8-1.7c-.5-.4-1.4-.6-2.5-.6h-1.4v-1.9l3.5-4.1h-6.9v-2.4h10.4v1.9l-3.7,4.4c1.4,.2,2.5,.7,3.2,1.4Z"></path></g><g><path class="cls-4" d="M490.2,437.1v2.4h-11.2v-1.9l6-5.7c.7-.7,1.1-1.2,1.4-1.7,.2-.5,.4-1,.4-1.4,0-.7-.2-1.3-.7-1.6-.5-.4-1.2-.6-2.1-.6-1.5,0-2.7,.5-3.6,1.6l-2-1.5c.6-.8,1.4-1.4,2.4-1.9,1-.4,2.1-.7,3.4-.7s3,.4,4,1.2c1,.8,1.5,1.8,1.5,3.2s-.2,1.6-.5,2.3-1,1.5-2,2.5l-4.1,3.9h7.2Z"></path><path class="cls-4" d="M494.8,438.8c-1-.6-1.7-1.5-2.3-2.7-.6-1.2-.8-2.6-.8-4.2s.3-3,.8-4.2c.5-1.2,1.3-2.1,2.3-2.7,1-.6,2-.9,3.3-.9s2.3,.3,3.3,.9,1.7,1.5,2.3,2.7c.5,1.2,.8,2.6,.8,4.2s-.3,3-.8,4.2c-.6,1.2-1.3,2.1-2.3,2.7-1,.6-2.1,.9-3.3,.9s-2.3-.3-3.3-.9Zm5.8-2.9c.6-.9,.9-2.2,.9-4s-.3-3.1-.9-4-1.5-1.3-2.6-1.3-1.9,.4-2.6,1.3-.9,2.2-.9,4,.3,3.1,.9,4c.6,.9,1.5,1.3,2.6,1.3s1.9-.4,2.6-1.3Z"></path><path class="cls-4" d="M517.3,437.1v2.4h-11.2v-1.9l6-5.7c.7-.7,1.1-1.2,1.4-1.7,.2-.5,.4-1,.4-1.4,0-.7-.2-1.3-.7-1.6-.5-.4-1.2-.6-2.1-.6-1.5,0-2.7,.5-3.6,1.6l-2-1.5c.6-.8,1.4-1.4,2.4-1.9s2.1-.7,3.4-.7,3,.4,4,1.2c1,.8,1.5,1.8,1.5,3.2s-.2,1.6-.5,2.3-1,1.5-2,2.5l-4.1,3.9h7.2Z"></path><path class="cls-4" d="M532.1,436.1h-2.7v3.5h-2.7v-3.5h-8.3v-2l7.5-9.8h3l-7.1,9.4h5v-3.1h2.7v3.1h2.7v2.4Z"></path></g><g><g><path class="cls-4" d="M97.1,12.9h2.8v15.2h-2.8V12.9Z"></path><path class="cls-4" d="M113.9,17.6c.9,.9,1.3,2.1,1.3,3.8v6.6h-2.7v-6.3c0-1-.2-1.8-.7-2.3-.5-.5-1.2-.8-2-.8s-1.8,.3-2.4,.9c-.6,.6-.9,1.5-.9,2.6v5.9h-2.7v-11.6h2.6v1.5c.4-.5,1-.9,1.7-1.2,.7-.3,1.4-.4,2.3-.4,1.5,0,2.6,.4,3.5,1.3Z"></path><path class="cls-4" d="M129.3,16.5l-5,11.6h-2.8l-5-11.6h2.8l3.6,8.6,3.7-8.6h2.6Z"></path><path class="cls-4" d="M141.6,23.2h-9.1c.2,.9,.6,1.5,1.2,2,.7,.5,1.5,.7,2.5,.7s2.3-.4,3.1-1.3l1.5,1.7c-.5,.6-1.2,1.1-2,1.4-.8,.3-1.7,.5-2.7,.5s-2.4-.3-3.4-.8c-1-.5-1.7-1.2-2.2-2.1-.5-.9-.8-1.9-.8-3.1s.3-2.1,.8-3.1c.5-.9,1.2-1.6,2.1-2.1,.9-.5,1.9-.8,3.1-.8s2.1,.3,3,.7,1.6,1.2,2.1,2.1c.5,.9,.7,2,.7,3.1s0,.5,0,.8Zm-8-3.9c-.6,.5-1,1.2-1.1,2.1h6.6c-.1-.8-.5-1.5-1.1-2-.6-.5-1.3-.8-2.2-.8s-1.6,.3-2.2,.8Z"></path><path class="cls-4" d="M145,27.9c-.9-.2-1.6-.6-2.2-.9l1-2.1c.5,.3,1.1,.6,1.9,.8,.7,.2,1.5,.3,2.2,.3,1.6,0,2.4-.4,2.4-1.3s-.2-.7-.6-.8c-.4-.2-1.1-.3-2-.5-1-.1-1.7-.3-2.3-.5-.6-.2-1.1-.5-1.6-1-.4-.5-.7-1.1-.7-2s.5-2,1.4-2.6c.9-.7,2.2-1,3.7-1s1.6,0,2.4,.3c.8,.2,1.4,.4,2,.7l-1,2.1c-1-.6-2.1-.9-3.3-.9s-1.4,.1-1.8,.4c-.4,.2-.6,.6-.6,.9s.2,.7,.7,.9c.4,.2,1.1,.4,2.1,.5,.9,.1,1.7,.3,2.3,.5,.6,.2,1.1,.5,1.5,1,.4,.4,.6,1.1,.6,1.9s-.5,2-1.4,2.6c-.9,.7-2.2,1-3.8,1s-1.9-.1-2.8-.4Z"></path><path class="cls-4" d="M162.4,27.5c-.3,.3-.7,.5-1.2,.6s-.9,.2-1.4,.2c-1.3,0-2.3-.3-3-1s-1-1.6-1-2.9v-5.6h-1.9v-2.2h1.9v-2.7h2.7v2.7h3.1v2.2h-3.1v5.5c0,.6,.1,1,.4,1.3s.7,.4,1.2,.4,1.1-.2,1.5-.5l.8,1.9Z"></path><path class="cls-4" d="M173,17.6c.9,.8,1.4,2.1,1.4,3.7v6.8h-2.6v-1.4c-.3,.5-.8,.9-1.4,1.2-.6,.3-1.4,.4-2.2,.4s-1.6-.1-2.3-.4c-.7-.3-1.2-.7-1.5-1.2-.4-.5-.5-1.1-.5-1.8,0-1,.4-1.9,1.2-2.5,.8-.6,2-.9,3.7-.9h3v-.2c0-.8-.2-1.4-.7-1.9s-1.2-.7-2.2-.7-1.3,.1-1.9,.3c-.6,.2-1.2,.5-1.6,.8l-1.1-2c.6-.5,1.3-.8,2.2-1.1s1.8-.4,2.7-.4c1.7,0,3,.4,3.9,1.2Zm-2.5,8.2c.5-.3,.9-.8,1.1-1.3v-1.3h-2.8c-1.6,0-2.3,.5-2.3,1.5s.2,.9,.6,1.2c.4,.3,.9,.4,1.6,.4s1.3-.2,1.8-.5Z"></path><path class="cls-4" d="M178.6,27.9c-.9-.2-1.6-.6-2.2-.9l1-2.1c.5,.3,1.1,.6,1.9,.8,.7,.2,1.5,.3,2.2,.3,1.6,0,2.4-.4,2.4-1.3s-.2-.7-.6-.8c-.4-.2-1.1-.3-2-.5-1-.1-1.7-.3-2.3-.5-.6-.2-1.1-.5-1.6-1-.4-.5-.7-1.1-.7-2s.5-2,1.4-2.6c.9-.7,2.2-1,3.7-1s1.6,0,2.4,.3c.8,.2,1.4,.4,2,.7l-1,2.1c-1-.6-2.1-.9-3.3-.9s-1.4,.1-1.8,.4c-.4,.2-.6,.6-.6,.9s.2,.7,.7,.9c.4,.2,1.1,.4,2.1,.5,.9,.1,1.7,.3,2.3,.5,.6,.2,1.1,.5,1.5,1,.4,.4,.6,1.1,.6,1.9s-.5,2-1.4,2.6c-.9,.7-2.2,1-3.8,1s-1.9-.1-2.8-.4Z"></path><path class="cls-4" d="M189.1,14.1c-.3-.3-.5-.7-.5-1.2s.2-.9,.5-1.2c.3-.3,.7-.5,1.2-.5s.9,.1,1.2,.4c.3,.3,.5,.7,.5,1.1s-.2,.9-.5,1.2c-.3,.3-.7,.5-1.2,.5s-.9-.2-1.2-.5Zm-.1,2.4h2.7v11.6h-2.7v-11.6Z"></path></g><g id="Layer_1-2" data-name="Layer 1-2"><path class="cls-4" d="M87.1,0V24c0,7.6-6.2,13.8-13.8,13.8h-24V13.8c0-7.6,6.2-13.8,13.8-13.8h24Z"></path></g><g><path class="cls-4" d="M356.5,13.5c1,.4,1.7,1.1,2.2,1.9,.5,.8,.8,1.8,.8,2.9s-.3,2.1-.8,2.9c-.5,.8-1.3,1.4-2.2,1.9s-2.1,.7-3.4,.7h-3.4v4.4h-2.8V12.9h6.3c1.3,0,2.5,.2,3.4,.7Zm-.8,7c.6-.5,1-1.3,1-2.2s-.3-1.7-1-2.2c-.6-.5-1.6-.8-2.8-.8h-3.3v6h3.3c1.2,0,2.2-.3,2.8-.8Z"></path><path class="cls-4" d="M372.9,23.2h-9.1c.2,.9,.6,1.5,1.2,2,.7,.5,1.5,.7,2.5,.7s2.3-.4,3.2-1.3l1.5,1.7c-.5,.6-1.2,1.1-2,1.4-.8,.3-1.7,.5-2.7,.5s-2.4-.3-3.4-.8c-1-.5-1.7-1.2-2.2-2.1-.5-.9-.8-1.9-.8-3.1s.3-2.1,.8-3.1c.5-.9,1.2-1.6,2.1-2.1,.9-.5,1.9-.8,3.1-.8s2.1,.3,3,.7,1.6,1.2,2.1,2.1c.5,.9,.8,2,.8,3.1s0,.5,0,.8Zm-8-3.9c-.6,.5-1,1.2-1.1,2.1h6.6c-.1-.8-.5-1.5-1.1-2-.6-.5-1.3-.8-2.2-.8s-1.6,.3-2.2,.8Z"></path><path class="cls-4" d="M385.7,17.6c.9,.9,1.3,2.1,1.3,3.8v6.6h-2.7v-6.3c0-1-.2-1.8-.7-2.3-.5-.5-1.2-.8-2-.8s-1.8,.3-2.4,.9c-.6,.6-.9,1.5-.9,2.6v5.9h-2.7v-11.6h2.6v1.5c.4-.5,1-.9,1.7-1.2,.7-.3,1.4-.4,2.3-.4,1.5,0,2.6,.4,3.5,1.3Z"></path><path class="cls-4" d="M401.4,23.2h-9.1c.2,.9,.6,1.5,1.2,2,.7,.5,1.5,.7,2.5,.7s2.3-.4,3.1-1.3l1.5,1.7c-.5,.6-1.2,1.1-2,1.4s-1.7,.5-2.7,.5-2.4-.3-3.4-.8c-1-.5-1.7-1.2-2.2-2.1-.5-.9-.8-1.9-.8-3.1s.3-2.1,.8-3.1c.5-.9,1.2-1.6,2.1-2.1,.9-.5,1.9-.8,3.1-.8s2.1,.3,3,.7,1.6,1.2,2.1,2.1,.7,2,.7,3.1,0,.5,0,.8Zm-8-3.9c-.6,.5-1,1.2-1.1,2.1h6.6c-.1-.8-.5-1.5-1.1-2s-1.3-.8-2.2-.8-1.6,.3-2.2,.8Z"></path><path class="cls-4" d="M422.2,17.6c.9,.8,1.3,2.1,1.3,3.8v6.6h-2.7v-6.3c0-1-.2-1.8-.7-2.3-.4-.5-1.1-.8-1.9-.8s-1.6,.3-2.2,.9c-.6,.6-.8,1.5-.8,2.6v5.9h-2.7v-6.3c0-1-.2-1.8-.7-2.3-.4-.5-1.1-.8-1.9-.8s-1.7,.3-2.2,.9-.8,1.5-.8,2.6v5.9h-2.7v-11.6h2.6v1.5c.4-.5,1-.9,1.6-1.2s1.4-.4,2.2-.4,1.6,.2,2.3,.5c.7,.3,1.2,.8,1.6,1.4,.5-.6,1.1-1.1,1.8-1.4,.8-.3,1.6-.5,2.5-.5,1.5,0,2.6,.4,3.5,1.3Z"></path><path class="cls-4" d="M436.4,17.1c.9,.5,1.6,1.2,2.1,2.1,.5,.9,.8,1.9,.8,3.1s-.3,2.2-.8,3.1c-.5,.9-1.2,1.6-2.1,2.1s-1.9,.7-3,.7-2.8-.5-3.7-1.6v5.6h-2.7v-15.8h2.6v1.5c.4-.6,1-1,1.7-1.2s1.4-.4,2.2-.4c1.1,0,2.1,.2,3,.7Zm-.9,7.8c.6-.7,1-1.5,1-2.6s-.3-2-1-2.6-1.5-1-2.5-1-1.2,.1-1.8,.4c-.5,.3-.9,.7-1.2,1.3-.3,.6-.5,1.2-.5,1.9s.2,1.4,.5,1.9c.3,.6,.7,1,1.2,1.3s1.1,.4,1.8,.4c1,0,1.8-.3,2.5-1Z"></path><path class="cls-4" d="M450.1,17.6c.9,.8,1.4,2.1,1.4,3.7v6.8h-2.6v-1.4c-.3,.5-.8,.9-1.4,1.2-.6,.3-1.4,.4-2.2,.4s-1.6-.1-2.3-.4c-.7-.3-1.2-.7-1.5-1.2-.4-.5-.5-1.1-.5-1.8,0-1,.4-1.9,1.2-2.5,.8-.6,2-.9,3.7-.9h3v-.2c0-.8-.2-1.4-.7-1.9s-1.2-.7-2.2-.7-1.3,.1-1.9,.3c-.6,.2-1.2,.5-1.6,.8l-1.1-2c.6-.5,1.3-.8,2.2-1.1s1.8-.4,2.7-.4c1.7,0,3,.4,3.9,1.2Zm-2.5,8.2c.5-.3,.9-.8,1.1-1.3v-1.3h-2.8c-1.6,0-2.3,.5-2.3,1.5s.2,.9,.6,1.2c.4,.3,.9,.4,1.6,.4s1.3-.2,1.8-.5Z"></path><path class="cls-4" d="M461.9,27.5c-.3,.3-.7,.5-1.2,.6s-.9,.2-1.4,.2c-1.3,0-2.3-.3-3-1s-1-1.6-1-2.9v-5.6h-1.9v-2.2h1.9v-2.7h2.7v2.7h3.1v2.2h-3.1v5.5c0,.6,.1,1,.4,1.3,.3,.3,.7,.4,1.2,.4s1.1-.2,1.5-.5l.8,1.9Z"></path><path class="cls-4" d="M472.5,17.6c.9,.8,1.4,2.1,1.4,3.7v6.8h-2.6v-1.4c-.3,.5-.8,.9-1.4,1.2-.6,.3-1.4,.4-2.2,.4s-1.6-.1-2.3-.4c-.7-.3-1.2-.7-1.5-1.2-.4-.5-.5-1.1-.5-1.8,0-1,.4-1.9,1.2-2.5,.8-.6,2-.9,3.7-.9h3v-.2c0-.8-.2-1.4-.7-1.9s-1.2-.7-2.2-.7-1.3,.1-1.9,.3c-.6,.2-1.2,.5-1.6,.8l-1.1-2c.6-.5,1.3-.8,2.2-1.1s1.8-.4,2.7-.4c1.7,0,3,.4,3.9,1.2Zm-2.5,8.2c.5-.3,.9-.8,1.1-1.3v-1.3h-2.8c-1.6,0-2.3,.5-2.3,1.5s.2,.9,.6,1.2c.4,.3,.9,.4,1.6,.4s1.3-.2,1.8-.5Z"></path><path class="cls-4" d="M487.4,17.6c.9,.9,1.3,2.1,1.3,3.8v6.6h-2.7v-6.3c0-1-.2-1.8-.7-2.3-.5-.5-1.2-.8-2-.8s-1.8,.3-2.4,.9c-.6,.6-.9,1.5-.9,2.6v5.9h-2.7v-11.6h2.6v1.5c.4-.5,1-.9,1.7-1.2s1.4-.4,2.3-.4c1.5,0,2.6,.4,3.5,1.3Z"></path></g><g id="Layer_1-2-2" data-name="Layer 1-2"><path class="cls-5" d="M336.8,0V24c0,7.6-6.2,13.8-13.8,13.8h-24V13.8c0-7.6,6.2-13.8,13.8-13.8h24Z"></path></g></g></g></g></svg> 