<?xml version="1.0" encoding="UTF-8"?> <svg xmlns="http://www.w3.org/2000/svg" id="Layer_2" data-name="Layer 2" viewBox="0 0 49.4 43.8"><defs><style> .cls-1 { fill: none; stroke: #0e3152; stroke-linecap: round; stroke-miterlimit: 10; stroke-width: 1.5px; } </style></defs><g id="Layer_1-2" data-name="Layer 1"><g><path class="cls-1" d="M31.1,11.7l-1.5-3.5c-.4-.2-.6-.3-1-.5l-1.7,.6c-.3-.1-.6-.2-.9-.3-.6-.8-1.4-1.5-2.2-2.2-.1-.3-.2-.6-.3-.9l.6-1.7c-.2-.4-.3-.6-.5-1l-3.5-1.5c-.4,.1-.6,.2-1,.4l-.8,1.6c-.3,.2-.5,.3-.8,.4-1-.1-2-.1-3,0-.3-.2-.5-.3-.8-.4l-.8-1.6c-.4-.1-.6-.2-1-.4l-3.5,1.5c-.2,.4-.3,.6-.5,1l.6,1.7c-.1,.3-.2,.6-.3,.9-.8,.6-1.5,1.4-2.2,2.2-.3,.1-.6,.2-.9,.3l-1.7-.6c-.4,.2-.6,.3-1,.5l-1.5,3.5c.1,.4,.2,.6,.4,1l1.6,.8c.2,.3,.3,.5,.4,.8-.1,1-.1,2,0,3-.2,.3-.3,.5-.4,.8l-1.6,.8c-.1,.4-.2,.6-.4,1l1.5,3.5c.4,.2,.6,.3,1,.5l1.7-.6c.3,.1,.6,.2,.9,.3,.6,.8,1.4,1.5,2.2,2.2,.1,.3,.2,.6,.3,.9l-.6,1.7c.2,.4,.3,.6,.5,1l3.5,1.5c.4-.1,.6-.2,1-.4l.8-1.6c.3-.2,.5-.3,.8-.4,1,.1,2,.1,3,0,.3,.2,.5,.3,.8,.4l.8,1.6c.4,.1,.6,.2,1,.4l3.5-1.5c.2-.4,.3-.6,.5-1l-.6-1.7c.1-.3,.2-.6,.3-.9,.8-.6,1.5-1.4,2.2-2.2,.3-.1,.6-.2,.9-.3l1.7,.6c.4-.2,.6-.3,1-.5l1.5-3.5c-.1-.4-.2-.6-.4-1l-1.6-.8c-.2-.3-.3-.5-.4-.8,.1-1,.1-2,0-3,.2-.3,.3-.5,.4-.8l1.6-.8c.1-.4,.2-.6,.4-1Z"></path><path class="cls-1" d="M48.6,29.5l-.8-1.9c-.4-.2-.6-.3-1.1-.4l-1.3,.5c-.4,0-.6-.2-.9-.3-.3-.4-.7-.7-1-1,0-.4-.2-.6-.3-.9l.5-1.3c-.2-.4-.3-.6-.4-1.1l-1.9-.8c-.4,.2-.6,.3-1.1,.4l-.5,1.3c-.3,.2-.5,.3-.8,.5-.5,0-1,0-1.4,0-.3-.2-.5-.3-.8-.5l-.5-1.3c-.4-.2-.6-.3-1.1-.4l-1.9,.8c-.2,.4-.3,.6-.4,1.1l.5,1.3c0,.4-.2,.6-.3,.9-.4,.3-.7,.7-1,1-.4,0-.6,.2-.9,.3l-1.3-.5c-.4,.2-.6,.3-1.1,.4l-.8,1.9c.2,.4,.3,.6,.4,1.1l1.3,.5c.2,.3,.3,.5,.5,.8,0,.5,0,1,0,1.4-.2,.3-.3,.5-.5,.8l-1.3,.5c-.2,.4-.3,.6-.4,1.1l.8,1.9c.4,.2,.6,.3,1.1,.4l1.3-.5c.4,0,.6,.2,.9,.3,.3,.4,.7,.7,1,1,0,.4,.2,.6,.3,.9l-.5,1.3c.2,.4,.3,.6,.4,1.1l1.9,.8c.4-.2,.6-.3,1.1-.4l.5-1.3c.3-.2,.5-.3,.8-.5,.5,0,1,0,1.4,0,.3,.2,.5,.3,.8,.5l.5,1.3c.4,.2,.6,.3,1.1,.4l1.9-.8c.2-.4,.3-.6,.4-1.1l-.5-1.3c0-.4,.2-.6,.3-.9,.4-.3,.7-.7,1-1,.4,0,.6-.2,.9-.3l1.3,.5c.4-.2,.6-.3,1.1-.4l.8-1.9c-.2-.4-.3-.6-.4-1.1l-1.3-.5c-.2-.3-.3-.5-.5-.8,0-.5,0-1,0-1.4,.2-.3,.3-.5,.5-.8l1.3-.5c.2-.4,.3-.6,.4-1.1Z"></path><path class="cls-1" d="M41.6,31.3c.8,1.8-.1,3.9-1.9,4.7-1.8,.8-3.9-.1-4.7-1.9s.1-3.9,1.9-4.7c1.8-.8,3.9,.1,4.7,1.9Z"></path><ellipse class="cls-1" cx="15.9" cy="15.8" rx="8.9" ry="8.9"></ellipse><g><path class="cls-1" d="M13.5,17.5h0c0,.9,.7,1.6,1.6,1.6h1.8c.8,0,1.4-.6,1.4-1.4h0c0-.6-.4-1.1-1-1.3l-2.9-1c-.6-.2-1-.7-1-1.3h0c0-.8,.6-1.4,1.4-1.4h1.8c.9,0,1.6,.7,1.6,1.6h0"></path><line class="cls-1" x1="15.9" y1="12.6" x2="15.9" y2="10.2"></line><line class="cls-1" x1="15.9" y1="19.1" x2="15.9" y2="21.5"></line></g></g></g></svg> 