<?xml version="1.0" encoding="UTF-8"?> <svg xmlns="http://www.w3.org/2000/svg" id="Layer_2" data-name="Layer 2" viewBox="0 0 50.4 49.2"><defs><style> .cls-1 { fill: none; stroke: #0e3152; stroke-linecap: round; stroke-miterlimit: 10; stroke-width: 1.5px; } </style></defs><g id="Layer_1-2" data-name="Layer 1"><g><path class="cls-1" d="M30.5,36.5l12.2-4.4c1.5-.5,3.2,.1,3.9,1.5h0c.8,1.6,.1,3.4-1.5,4.2l-21.4,10.6-12.2-4H.8v-13.3H8.9c5.4-6.6,12.2-1.3,12.2-1.3h4.8c2.6,0,4.7,2.1,4.7,4.6v2h-9.5"></path><ellipse class="cls-1" cx="40.7" cy="9.5" rx="8.9" ry="8.8"></ellipse><g><path class="cls-1" d="M43.5,6.6l-2.8-.5c-.9-.2-1.8,.5-2,1.4h0c-.2,.9,.5,1.8,1.4,1.9l1.1,.2c.9,.2,1.6,1,1.4,1.9h0c-.2,.9-1,1.5-2,1.4l-2.8-.5"></path><line class="cls-1" x1="41.3" y1="6.2" x2="41.7" y2="4"></line><line class="cls-1" x1="39.7" y1="15.1" x2="40.1" y2="12.8"></line></g><ellipse class="cls-1" cx="19.9" cy="17.2" rx="7.3" ry="7.2"></ellipse><g><path class="cls-1" d="M20.8,14l-2.2,.8c-.7,.2-1.1,1-.9,1.8h0c.3,.7,1.1,1.1,1.8,.9l.9-.3c.7-.2,1.5,.1,1.8,.9h0c.3,.7-.1,1.5-.9,1.8l-2.2,.8"></path><line class="cls-1" x1="19" y1="14.6" x2="18.4" y2="12.8"></line><line class="cls-1" x1="21.5" y1="21.5" x2="20.9" y2="19.8"></line></g></g></g></svg> 