<?xml version="1.0" encoding="UTF-8"?> <svg xmlns="http://www.w3.org/2000/svg" id="Layer_2" data-name="Layer 2" viewBox="0 0 58.3 51.9"><defs><style> .cls-1 { fill: none; stroke: #0e3152; stroke-linecap: round; stroke-miterlimit: 10; stroke-width: 1.5px; } </style></defs><g id="Layer_1-2" data-name="Layer 1"><g><g><g><path class="cls-1" d="M16.6,10.6c1.9-.7,4.4-.9,6.9,.4,1.7-2.6,4-6.7,4.7-7.6,.4-.5,.4-.7,.2-1-.3-.3-.9-.3-1.5-.1-1.2,.4-2.7,0-4.5-.5-3.4-1-8.4-2.3-10.4,1.2-.2,.3,0,.3,.3,.7,.7,.7,2.7,4.3,4.3,6.8Z"></path><path class="cls-1" d="M16.2,15.4c-7.9,4.2-11,12.4-11,16.4"></path><g><path class="cls-1" d="M16.5,33.2h0c0,1.1,.9,2,2,2h2c1.1,0,2-.9,2-2v-.6c0-.9-.6-1.6-1.4-1.9l-3.3-1.1c-.8-.3-1.4-1-1.4-1.9v-.6c0-1.1,.9-2,2-2h2c1.1,0,2,.9,2,2h0"></path><line class="cls-1" x1="19.5" y1="25.2" x2="19.5" y2="22.2"></line><line class="cls-1" x1="19.5" y1="35.2" x2="19.5" y2="38.2"></line></g><path class="cls-1" d="M29.5,23.2c0-1.2,1.7-2.2,4-2.7-2.3-3.4-5.5-6.7-9.7-9.2-3.3-2-6.6-1.1-8.7,0C4.9,16.8,.8,27.5,.8,32.8c0,10.6,8.4,13.4,18.8,13.4s7.1-.3,10-1.2V23.2Z"></path></g><g><path class="cls-1" d="M36.5,20.2c-3.9,0-7,1.3-7,3v25c0,1.7,3.1,3,7,3s7-1.3,7-3V23.2c0-1.7-3.1-3-7-3Z"></path><path class="cls-1" d="M29.5,23.2v5c0,1.7,3.1,3,7,3s7-1.3,7-3v-5"></path><path class="cls-1" d="M29.5,28.2v5c0,1.7,3.1,3,7,3s7-1.3,7-3v-5"></path><path class="cls-1" d="M29.5,33.2v5c0,1.7,3.1,3,7,3s7-1.3,7-3v-5"></path><path class="cls-1" d="M29.5,38.2v5c0,1.7,3.1,3,7,3s7-1.3,7-3v-5"></path><path class="cls-1" d="M29.5,43.2v5c0,1.7,3.1,3,7,3s7-1.3,7-3v-5"></path><ellipse class="cls-1" cx="36.5" cy="23.2" rx="7" ry="3"></ellipse><path class="cls-1" d="M43.5,34.2v5c0,1.7,3.1,3,7,3s7-1.3,7-3v-5"></path><path class="cls-1" d="M43.5,39.2v5c0,1.7,3.1,3,7,3s7-1.3,7-3v-5"></path><ellipse class="cls-1" cx="50.5" cy="34.2" rx="7" ry="3"></ellipse></g></g><path class="cls-1" d="M36.5,20.2c-3.9,0-7,1.3-7,3v25c0,1.7,3.1,3,7,3s7-1.3,7-3V23.2c0-1.7-3.1-3-7-3Z"></path></g></g></svg> 