<?xml version="1.0" encoding="UTF-8"?> <svg xmlns="http://www.w3.org/2000/svg" id="Layer_2" data-name="Layer 2" viewBox="0 0 33.6 46.9"><defs><style> .cls-1 { fill: none; stroke: #0e3152; stroke-linecap: round; stroke-miterlimit: 10; stroke-width: 1.5px; } </style></defs><g id="Layer_1-2" data-name="Layer 1"><g><path class="cls-1" d="M8.3,13.4v4.9c0,3.3,2,6.2,4.8,7.6,1.1,.5,2.4,.8,3.7,.8s2.6-.3,3.7-.8c2.9-1.4,4.8-4.3,4.8-7.6v-4.9"></path><path class="cls-1" d="M28.1,13.3c.8,.1,1.4,.8,1.4,1.6v.9c0,1.3-1.1,2.4-2.5,2.4h-1.6v-4.9"></path><path class="cls-1" d="M5.9,13.3c-.9,0-1.7,.7-1.7,1.7v.9c0,1.3,1.1,2.4,2.5,2.4h1.6v-4.9"></path><path class="cls-1" d="M24.9,13.4s-4.3,0-5.4-4.2c0,0-3.2,5.3-10.7,4.2h-2.9v-4.8C5.9,4.3,9.4,.8,13.9,.8h6.2c4.4,0,8,3.5,8,7.9v4.8h-3.2Z"></path><path class="cls-1" d="M13.1,25.9v4.4H7.3c-3.6,0-6.6,2.9-6.6,6.5v9.3H32.9v-9.3c0-1.9-.8-3.6-2.1-4.8-1.2-1.1-2.7-1.7-4.5-1.7h-5.7v-4.4"></path><path class="cls-1" d="M32.9,36.8v3.6c-1.9,2.4-4.2,4.3-6.2,5.8H7.7v-3.2c10.7-2.1,15-12.7,15-12.7h3.6c3.6,0,6.6,2.9,6.6,6.5Z"></path><path class="cls-1" d="M22,41.9c-1.9,1.6-4.1,3.1-6.6,4.2"></path><path class="cls-1" d="M30.8,32h0c-1.1,1.7-2.7,3.9-4.8,6.2"></path><line class="cls-1" x1="7.7" y1="43" x2="7.7" y2="39.8"></line></g></g></svg> 