<?xml version="1.0" encoding="UTF-8"?> <svg xmlns="http://www.w3.org/2000/svg" id="Layer_2" data-name="Layer 2" viewBox="0 0 64.04 65.56"><defs><style> .cls-1 { stroke: #dd8227; } .cls-1, .cls-2 { fill: none; } .cls-1, .cls-2, .cls-3 { stroke-linecap: round; stroke-linejoin: round; stroke-width: 2px; } .cls-2, .cls-3 { stroke: #0e3152; } .cls-3 { fill: #dd8227; } </style></defs><g id="Layer_1-2" data-name="Layer 1"><g><path class="cls-3" d="M28.24,52.45v7.57c0,2.51,4.74,4.54,10.59,4.54s10.59-2.03,10.59-4.54v-7.57"></path><path class="cls-3" d="M49.42,44.88v7.57c0,2.51-4.74,4.54-10.59,4.54s-10.59-2.03-10.59-4.54v-7.57"></path><polyline class="cls-2" points="46.4 20.67 46.4 7.05 40.34 1 1 1 1 58.5 22.19 58.5"></polyline><polyline class="cls-2" points="37.32 5.54 37.32 10.08 41.86 10.08"></polyline><line class="cls-2" x1="8.57" y1="43.37" x2="8.57" y2="52.45"></line><line class="cls-2" x1="20.67" y1="41.86" x2="20.67" y2="52.45"></line><line class="cls-2" x1="14.62" y1="38.83" x2="14.62" y2="52.45"></line><ellipse class="cls-3" cx="38.83" cy="44.88" rx="10.59" ry="4.54"></ellipse><path class="cls-1" d="M63.04,37.32v7.57c0,2.29-3.95,4.18-9.08,4.49"></path><ellipse class="cls-1" cx="52.45" cy="29.75" rx="10.59" ry="4.54"></ellipse><line class="cls-1" x1="41.86" y1="35.8" x2="41.86" y2="29.75"></line><path class="cls-1" d="M63.04,29.75v7.57c0,2.37-4.24,4.32-9.65,4.52"></path><path class="cls-1" d="M53.96,56.94c5.13-.31,9.08-2.21,9.08-4.49v-7.57"></path><circle class="cls-2" cx="26.72" cy="25.21" r="4.54"></circle><circle class="cls-2" cx="13.11" cy="14.62" r="4.54"></circle><line class="cls-2" x1="11.59" y1="29.75" x2="28.24" y2="10.08"></line></g></g></svg> 