<?xml version="1.0" encoding="UTF-8"?> <svg xmlns="http://www.w3.org/2000/svg" xmlns:xlink="http://www.w3.org/1999/xlink" id="Layer_2" data-name="Layer 2" viewBox="0 0 200 200"><defs><style> .cls-1 { fill: url(#linear-gradient); } .cls-2 { fill: none; stroke: #fff; stroke-linecap: round; stroke-linejoin: round; stroke-width: 3px; } </style><linearGradient id="linear-gradient" x1="0" y1="100" x2="200" y2="100" gradientUnits="userSpaceOnUse"><stop offset="0" stop-color="#dd8227"></stop><stop offset="1" stop-color="#bf7022"></stop></linearGradient></defs><g id="Layer_1-2" data-name="Layer 1"><g><rect class="cls-1" width="200" height="200" rx="19.17" ry="19.17"></rect><g id="climb_up_success" data-name="climb up success"><path class="cls-2" d="M75.33,60.94l-13.42,1.49c-3.25,.36-6.23,2-8.27,4.55l-9.81,12.26c-1.96,2.45-1.77,5.99,.45,8.21l10.49,10.49"></path><polyline class="cls-2" points="85.61 155.5 87.67 100 89.72 71.22 122.61 69.17"></polyline><line class="cls-2" x1="120.56" y1="60.94" x2="120.56" y2="36.27"></line><line class="cls-2" x1="120.56" y1="147.28" x2="120.56" y2="77.39"></line><path class="cls-2" d="M153.45,40.39h8.22l-8.22,10.28,8.22,10.28h-20.56c2.27,0,4.11-1.84,4.11-4.11s-1.84-4.11-4.11-4.11h-20.56"></path><path class="cls-2" d="M128.78,36.27h12.33c2.27,0,4.11,1.84,4.11,4.11v16.45"></path><polyline class="cls-2" points="38.33 159.61 42.44 155.5 149.43 155.5 157.56 163.73"></polyline><polyline class="cls-2" points="114.39 147.28 126.72 147.28 134.95 155.5"></polyline><path class="cls-2" d="M83.54,52.72c0,4.54-3.68,8.22-8.22,8.22s-8.22-3.68-8.22-8.22v-4.11c0-4.54,3.68-8.22,8.22-8.22s8.22,3.68,8.22,8.22v4.11Z"></path><polyline class="cls-2" points="75.33 60.94 100 60.94 122.61 60.94"></polyline><circle class="cls-2" cx="122.61" cy="65.05" r="4.11"></circle><polyline class="cls-2" points="50.66 155.5 63 100 60.94 73.28 52.72 83.55"></polyline><polyline class="cls-2" points="60.94 155.5 75.33 106.17 75.33 155.5"></polyline></g></g></g></svg> 