<?xml version="1.0" encoding="UTF-8"?> <svg xmlns="http://www.w3.org/2000/svg" id="Layer_2" data-name="Layer 2" viewBox="0 0 1788.6 972.9"><defs><style> .cls-1 { fill: #fff; } .cls-2 { fill: #0e3152; } .cls-3 { fill: #ffca07; } </style></defs><g id="Layer_1-2" data-name="Layer 1"><g><g id="Layer_1-2" data-name="Layer 1-2"><path class="cls-2" d="M438.8,597.5v173.4c0,45.3-36.7,82-82,82H0v-173.4c0-45.3,36.7-82,82-82H438.8Z"></path></g><g id="Layer_1-2-2" data-name="Layer 1-2"><path class="cls-2" d="M862.1,597.5v138.4c0,45.3-36.7,82-82,82H473.3v-138.4c0-45.3,36.7-82,82-82h306.8Z"></path></g><g id="Layer_1-2-3" data-name="Layer 1-2"><path class="cls-2" d="M1295.4,597.5v138.4c0,45.3-36.7,82-82,82h-316.8v-138.4c0-45.3,36.7-82,82-82h316.8Z"></path></g><g id="Layer_1-2-4" data-name="Layer 1-2"><path class="cls-2" d="M1788.6,597.5v293.4c0,45.3-36.7,82-82,82h-376.8v-293.4c0-45.3,36.7-82,82-82h376.8Z"></path></g><g id="Layer_1-2-5" data-name="Layer 1-2"><path class="cls-3" d="M1126.1,0V143.4c0,45.3-36.7,82-82,82h-391.8V82c0-45.3,36.7-82,82-82h391.8Z"></path></g><g id="Layer_1-2-6" data-name="Layer 1-2"><path class="cls-2" d="M438.8,298.5v143.4c0,45.3-36.7,82-82,82H0v-143.4c0-45.3,36.7-82,82-82H438.8Z"></path></g><g id="Layer_1-2-7" data-name="Layer 1-2"><path class="cls-2" d="M1340.4,298.5v143.4c0,45.3-36.7,82-82,82h-406.8v-143.4c0-45.3,36.7-82,82-82h406.8Z"></path></g><path class="cls-2" d="M889.2,264.3c-1.3,0-2.3-1-2.3-2.3v-28.2c0-1.3,1-2.3,2.3-2.3s2.3,1,2.3,2.3v28.2c0,1.3-1,2.3-2.3,2.3Z"></path><path class="cls-2" d="M1096,591.9c-1.8,0-3.2-1.4-3.2-3.2v-53.6c0-1.8,1.4-3.2,3.2-3.2s3.2,1.4,3.2,3.2v53.6c0,1.8-1.4,3.2-3.2,3.2Z"></path><path class="cls-2" d="M1096,289.9c-1.4,0-2.5-1.1-2.5-2.5v-22.9H221.9v22.9c0,1.4-1.1,2.5-2.5,2.5s-2.5-1.1-2.5-2.5v-25.4c0-1.4,1.1-2.5,2.5-2.5h876.6c1.4,0,2.5,1.1,2.5,2.5v25.4c0,1.4-1.1,2.5-2.5,2.5Z"></path><path class="cls-2" d="M1559.2,591.2c-1.4,0-2.5-1.1-2.5-2.5v-22.9H670.2v22.9c0,1.4-1.1,2.5-2.5,2.5s-2.5-1.1-2.5-2.5v-25.4c0-1.4,1.1-2.5,2.5-2.5h891.6c1.4,0,2.5,1.1,2.5,2.5v25.4c0,1.4-1.1,2.5-2.5,2.5Z"></path><path class="cls-2" d="M219.4,588.2c-1.4,0-2.5-1.1-2.5-2.5v-49.9c0-1.4,1.1-2.5,2.5-2.5s2.5,1.1,2.5,2.5v49.9c0,1.4-1.1,2.5-2.5,2.5Z"></path><g><path class="cls-2" d="M782.1,41.4h8.8c2.2,0,4.2,.4,5.9,1.3,1.7,.9,3.1,2.1,4,3.7,.9,1.6,1.4,3.4,1.4,5.5s-.5,3.9-1.4,5.5c-1,1.6-2.3,2.8-4,3.7-1.7,.9-3.7,1.3-5.9,1.3h-8.8v-21Zm8.7,18.4c1.7,0,3.2-.3,4.5-1s2.3-1.6,3-2.8c.7-1.2,1-2.6,1-4.1s-.3-2.9-1-4.1c-.7-1.2-1.7-2.1-3-2.8-1.3-.7-2.8-1-4.5-1h-5.7v15.8h5.7Z"></path><path class="cls-2" d="M817.3,48c1.2,1.1,1.8,2.7,1.8,4.8v9.6h-2.7v-2.1c-.5,.7-1.2,1.3-2.1,1.7-.9,.4-1.9,.6-3.2,.6-1.8,0-3.2-.4-4.3-1.3-1.1-.9-1.6-2-1.6-3.4s.5-2.5,1.5-3.4c1-.8,2.6-1.3,4.9-1.3h4.6v-.6c0-1.2-.4-2.2-1.1-2.8-.7-.7-1.8-1-3.2-1s-1.9,.2-2.8,.5c-.9,.3-1.7,.7-2.3,1.2l-1.2-2.2c.8-.7,1.8-1.2,2.9-1.5,1.1-.3,2.4-.5,3.6-.5,2.2,0,3.9,.5,5.1,1.6Zm-2.9,11.7c.8-.5,1.4-1.2,1.7-2.1v-2.2h-4.4c-2.4,0-3.7,.8-3.7,2.5s.3,1.4,.9,1.9c.6,.5,1.5,.7,2.6,.7s2-.2,2.8-.7Z"></path><path class="cls-2" d="M837.7,48.1c1.2,1.2,1.8,2.9,1.8,5.1v9.1h-2.9v-8.8c0-1.5-.4-2.7-1.1-3.5-.7-.8-1.8-1.2-3.2-1.2s-2.8,.5-3.7,1.4-1.3,2.2-1.3,3.9v8.2h-2.9v-15.9h2.8v2.4c.6-.8,1.4-1.4,2.4-1.9,1-.4,2.1-.7,3.4-.7,2,0,3.6,.6,4.8,1.8Z"></path><path class="cls-2" d="M855.6,48c1.2,1.1,1.8,2.7,1.8,4.8v9.6h-2.7v-2.1c-.5,.7-1.2,1.3-2.1,1.7-.9,.4-1.9,.6-3.2,.6-1.8,0-3.2-.4-4.3-1.3-1.1-.9-1.6-2-1.6-3.4s.5-2.5,1.5-3.4c1-.8,2.6-1.3,4.9-1.3h4.6v-.6c0-1.2-.4-2.2-1.1-2.8-.7-.7-1.8-1-3.2-1s-1.9,.2-2.8,.5c-.9,.3-1.7,.7-2.3,1.2l-1.2-2.2c.8-.7,1.8-1.2,2.9-1.5,1.1-.3,2.4-.5,3.6-.5,2.2,0,3.9,.5,5.1,1.6Zm-2.9,11.7c.8-.5,1.4-1.2,1.7-2.1v-2.2h-4.4c-2.4,0-3.7,.8-3.7,2.5s.3,1.4,.9,1.9c.6,.5,1.5,.7,2.6,.7s2-.2,2.8-.7Z"></path><path class="cls-2" d="M878.1,53.1l-3.8,3.9v5.4h-3v-21h3v11.7l11.4-11.7h3.4l-9,9.5,9.5,11.5h-3.5l-8-9.3Z"></path><path class="cls-2" d="M906,55.4h-12.9c.2,1.4,.8,2.5,1.8,3.4,1,.9,2.4,1.3,3.9,1.3s3.4-.6,4.6-1.9l1.6,1.9c-.7,.8-1.6,1.5-2.7,1.9-1.1,.4-2.3,.7-3.6,.7s-3.2-.3-4.5-1c-1.3-.7-2.3-1.7-3-2.9-.7-1.2-1.1-2.6-1.1-4.2s.3-2.9,1-4.2c.7-1.2,1.6-2.2,2.8-2.9,1.2-.7,2.6-1,4.1-1s2.9,.3,4.1,1c1.2,.7,2.1,1.7,2.8,2.9,.7,1.2,1,2.7,1,4.3s0,.5,0,.9Zm-11.3-5.4c-.9,.8-1.5,1.9-1.6,3.3h10.2c-.2-1.3-.7-2.4-1.6-3.3-.9-.8-2.1-1.3-3.5-1.3s-2.5,.4-3.5,1.3Z"></path><path class="cls-2" d="M910,40.1h2.9v22.3h-2.9v-22.3Z"></path><path class="cls-2" d="M921,61.5c-1.3-.7-2.2-1.7-3-2.9-.7-1.2-1.1-2.6-1.1-4.2s.4-3,1.1-4.2,1.7-2.2,3-2.9c1.3-.7,2.7-1,4.3-1s3,.3,4.2,1c1.3,.7,2.2,1.6,2.9,2.9s1.1,2.6,1.1,4.2-.4,3-1.1,4.2c-.7,1.2-1.7,2.2-2.9,2.9-1.3,.7-2.7,1.1-4.2,1.1s-3-.4-4.3-1.1Zm7-2.2c.8-.5,1.4-1.1,1.9-2,.5-.9,.7-1.8,.7-2.9s-.2-2.1-.7-2.9c-.5-.8-1.1-1.5-1.9-2-.8-.5-1.7-.7-2.7-.7s-1.9,.2-2.7,.7c-.8,.5-1.5,1.1-1.9,2-.5,.9-.7,1.8-.7,2.9s.2,2.1,.7,2.9c.5,.8,1.1,1.5,1.9,2,.8,.5,1.7,.7,2.7,.7s1.9-.2,2.7-.7Z"></path><path class="cls-2" d="M937.5,40.1h2.9v22.3h-2.9v-22.3Z"></path><path class="cls-2" d="M956.7,48c1.2,1.1,1.8,2.7,1.8,4.8v9.6h-2.7v-2.1c-.5,.7-1.2,1.3-2.1,1.7-.9,.4-1.9,.6-3.2,.6-1.8,0-3.2-.4-4.3-1.3-1.1-.9-1.6-2-1.6-3.4s.5-2.5,1.5-3.4c1-.8,2.6-1.3,4.9-1.3h4.6v-.6c0-1.2-.4-2.2-1.1-2.8-.7-.7-1.8-1-3.2-1s-1.9,.2-2.8,.5c-.9,.3-1.7,.7-2.3,1.2l-1.2-2.2c.8-.7,1.8-1.2,2.9-1.5,1.1-.3,2.4-.5,3.6-.5,2.2,0,3.9,.5,5.1,1.6Zm-2.9,11.7c.8-.5,1.4-1.2,1.7-2.1v-2.2h-4.4c-2.4,0-3.7,.8-3.7,2.5s.3,1.4,.9,1.9c.6,.5,1.5,.7,2.6,.7s2-.2,2.8-.7Z"></path><path class="cls-2" d="M974.6,48c1.2,1.1,1.8,2.7,1.8,4.8v9.6h-2.7v-2.1c-.5,.7-1.2,1.3-2.1,1.7-.9,.4-1.9,.6-3.2,.6-1.8,0-3.2-.4-4.3-1.3-1.1-.9-1.6-2-1.6-3.4s.5-2.5,1.5-3.4c1-.8,2.6-1.3,4.9-1.3h4.6v-.6c0-1.2-.4-2.2-1.1-2.8-.7-.7-1.8-1-3.2-1s-1.9,.2-2.8,.5c-.9,.3-1.7,.7-2.3,1.2l-1.2-2.2c.8-.7,1.8-1.2,2.9-1.5,1.1-.3,2.4-.5,3.6-.5,2.2,0,3.9,.5,5.1,1.6Zm-2.9,11.7c.8-.5,1.4-1.2,1.7-2.1v-2.2h-4.4c-2.4,0-3.7,.8-3.7,2.5s.3,1.4,.9,1.9c.6,.5,1.5,.7,2.6,.7s2-.2,2.8-.7Z"></path><path class="cls-2" d="M995,48.1c1.2,1.2,1.8,2.9,1.8,5.1v9.1h-2.9v-8.8c0-1.5-.4-2.7-1.1-3.5-.7-.8-1.8-1.2-3.2-1.2s-2.8,.5-3.7,1.4-1.3,2.2-1.3,3.9v8.2h-2.9v-15.9h2.8v2.4c.6-.8,1.4-1.4,2.4-1.9,1-.4,2.1-.7,3.4-.7,2,0,3.6,.6,4.8,1.8Z"></path><path class="cls-2" d="M788.5,89.4c.7,.9,1,2,1,3.4s-.7,3.2-2.1,4.2c-1.4,1-3.4,1.5-6,1.5h-10v-21h9.4c2.4,0,4.3,.5,5.6,1.4s2,2.3,2,4-.3,2-.8,2.8-1.2,1.4-2.1,1.8c1.2,.3,2.2,1,2.9,1.8Zm-14-9.5v6.7h6.1c1.5,0,2.7-.3,3.6-.9,.8-.6,1.2-1.4,1.2-2.5s-.4-1.9-1.2-2.5c-.8-.6-2-.9-3.6-.9h-6.1Zm10.7,15.3c.9-.6,1.3-1.4,1.3-2.6,0-2.3-1.7-3.5-5.1-3.5h-6.9v7h6.9c1.7,0,3-.3,3.8-.8Z"></path><path class="cls-2" d="M808.9,79.4c1.6,1.3,2.3,3.1,2.3,5.4s-.8,4.1-2.3,5.4c-1.6,1.3-3.7,2-6.4,2h-5.2v6.4h-3v-21h8.2c2.7,0,4.9,.7,6.4,2Zm-2.2,8.9c1-.8,1.5-2,1.5-3.5s-.5-2.7-1.5-3.5-2.5-1.2-4.3-1.2h-5.1v9.4h5.1c1.9,0,3.3-.4,4.3-1.2Z"></path><path class="cls-2" d="M822.4,89.1l-3.8,3.9v5.4h-3v-21h3v11.7l11.4-11.7h3.4l-9,9.5,9.5,11.5h-3.5l-8-9.3Z"></path><path class="cls-2" d="M855.2,77.4v21h-3v-9.4h-12.1v9.4h-3v-21h3v9h12.1v-9h3Z"></path><path class="cls-2" d="M889.1,98.4v-15.3s-7.6,12.8-7.6,12.8h-1.4l-7.6-12.7v15.2h-2.9v-21h2.5l8.8,14.8,8.6-14.8h2.5v21s-2.8,0-2.8,0Z"></path><path class="cls-2" d="M908.7,84c1.2,1.1,1.8,2.7,1.8,4.8v9.6h-2.7v-2.1c-.5,.7-1.2,1.3-2.1,1.7-.9,.4-1.9,.6-3.2,.6-1.8,0-3.2-.4-4.3-1.3-1.1-.9-1.6-2-1.6-3.4s.5-2.5,1.5-3.4c1-.8,2.6-1.3,4.9-1.3h4.6v-.6c0-1.2-.4-2.2-1.1-2.8-.7-.7-1.8-1-3.2-1s-1.9,.2-2.8,.5c-.9,.3-1.7,.7-2.3,1.2l-1.2-2.2c.8-.7,1.8-1.2,2.9-1.5,1.1-.3,2.4-.5,3.6-.5,2.2,0,3.9,.5,5.1,1.6Zm-2.9,11.7c.8-.5,1.4-1.2,1.7-2.1v-2.2h-4.4c-2.4,0-3.7,.8-3.7,2.5s.3,1.4,.9,1.9c.6,.5,1.5,.7,2.6,.7s2-.2,2.8-.7Z"></path><path class="cls-2" d="M920.8,83.1c1-.5,2.2-.7,3.6-.7v2.8c-.2,0-.4,0-.7,0-1.6,0-2.8,.5-3.7,1.4-.9,.9-1.3,2.3-1.3,4v7.9h-2.9v-15.9h2.8v2.7c.5-.9,1.2-1.6,2.2-2.1Z"></path><path class="cls-2" d="M926.8,88.9h8.1v2.5h-8.1v-2.5Z"></path><path class="cls-2" d="M952.4,95.8v2.6h-15.1v-2l8.5-8.3c1-1,1.7-1.9,2.1-2.6,.4-.7,.5-1.5,.5-2.2,0-1.1-.4-2-1.2-2.6-.8-.6-1.9-.9-3.3-.9-2.3,0-4.1,.8-5.4,2.3l-2-1.8c.8-1,1.9-1.8,3.2-2.3s2.8-.8,4.5-.8,4,.5,5.3,1.6,2,2.5,2,4.3-.2,2.2-.7,3.2c-.5,1-1.4,2.1-2.7,3.4l-6.4,6.2h10.8Z"></path><path class="cls-2" d="M958.9,97.4c-1.3-.8-2.3-2.1-3-3.7-.7-1.6-1.1-3.5-1.1-5.8s.4-4.1,1.1-5.8,1.8-2.9,3-3.7c1.3-.8,2.8-1.3,4.4-1.3s3.1,.4,4.4,1.3c1.3,.9,2.3,2.1,3,3.7,.7,1.6,1.1,3.5,1.1,5.8s-.4,4.1-1.1,5.8c-.7,1.6-1.8,2.9-3,3.7-1.3,.9-2.8,1.3-4.4,1.3s-3.1-.4-4.4-1.3Zm8.5-3.5c1-1.4,1.5-3.4,1.5-6s-.5-4.6-1.5-6-2.4-2.1-4-2.1-3.1,.7-4.1,2.1-1.5,3.4-1.5,6,.5,4.6,1.5,6,2.4,2.1,4.1,2.1,3-.7,4-2.1Z"></path><path class="cls-2" d="M989.4,95.8v2.6h-15.1v-2l8.5-8.3c1-1,1.7-1.9,2.1-2.6,.4-.7,.5-1.5,.5-2.2,0-1.1-.4-2-1.2-2.6-.8-.6-1.9-.9-3.3-.9-2.3,0-4.1,.8-5.4,2.3l-2-1.8c.8-1,1.9-1.8,3.2-2.3s2.8-.8,4.5-.8,4,.5,5.3,1.6,2,2.5,2,4.3-.2,2.2-.7,3.2c-.5,1-1.4,2.1-2.7,3.4l-6.4,6.2h10.8Z"></path><path class="cls-2" d="M1009.6,93.2h-4v5.2h-2.9v-5.2h-11.7v-2.1l10.7-13.7h3.2l-10.3,13.3h8.1v-4.6h2.8v4.6h4v2.6Z"></path><path class="cls-2" d="M777.9,170.4l-9.6-13.5c-1.1,.1-2.2,.2-3.4,.2h-11.3v13.3h-4.4v-42h15.7c5.4,0,9.6,1.3,12.6,3.8,3,2.6,4.6,6.1,4.6,10.6s-.8,6.1-2.5,8.3c-1.7,2.3-4,3.9-7.1,4.9l10.3,14.4h-4.9Zm-3.5-19.9c2.2-1.8,3.3-4.4,3.3-7.7s-1.1-6-3.3-7.8c-2.2-1.8-5.4-2.7-9.5-2.7h-11.2v21.1h11.2c4.2,0,7.3-.9,9.5-2.8Z"></path><path class="cls-2" d="M816,140.6c2.4,1.3,4.3,3.2,5.6,5.7,1.4,2.4,2,5.2,2,8.3s-.7,6-2,8.4c-1.4,2.4-3.2,4.3-5.6,5.7-2.4,1.3-5.1,2-8.1,2s-4.9-.5-6.9-1.6c-2.1-1.1-3.8-2.6-5.1-4.6v17.6h-4.3v-43.2h4.1v6.2c1.3-2.1,3-3.7,5.1-4.8,2.1-1.1,4.5-1.7,7.1-1.7s5.6,.7,8,2Zm-2.3,24.8c1.8-1,3.2-2.5,4.2-4.3,1-1.9,1.5-4,1.5-6.4s-.5-4.5-1.5-6.4c-1-1.9-2.4-3.3-4.2-4.3-1.8-1-3.8-1.6-6-1.6s-4.3,.5-6,1.6c-1.8,1-3.2,2.5-4.2,4.3-1,1.9-1.5,4-1.5,6.4s.5,4.5,1.5,6.4c1,1.9,2.4,3.3,4.2,4.3,1.8,1,3.8,1.5,6,1.5s4.2-.5,6-1.5Z"></path><path class="cls-2" d="M839.5,128.4v42h-4.3v-38.2h-9.9v-3.8h14.2Z"></path><path class="cls-2" d="M874.3,146.8c2.1,1,3.8,2.5,5,4.4,1.2,1.9,1.8,4.1,1.8,6.6s-.6,4.8-1.9,6.8c-1.2,2-3,3.5-5.1,4.5-2.2,1.1-4.6,1.6-7.4,1.6-5.6,0-9.8-1.8-12.8-5.5s-4.4-8.8-4.4-15.5,.8-8.6,2.4-11.9,3.8-5.7,6.7-7.4c2.9-1.7,6.2-2.5,10.1-2.5s7.5,.8,10,2.3l-1.7,3.5c-2-1.3-4.7-2-8.2-2s-8.3,1.5-10.9,4.4c-2.6,2.9-4,7.2-4,12.8s0,2.1,.2,3.4c1-2.3,2.7-4.1,5-5.3s4.9-1.9,7.9-1.9,5.2,.5,7.4,1.6Zm-.3,17.8c1.9-1.7,2.8-3.9,2.8-6.6s-1-5-2.8-6.6c-1.9-1.6-4.5-2.5-7.7-2.5s-4,.4-5.6,1.2-2.9,1.9-3.8,3.3c-.9,1.4-1.4,3-1.4,4.7s.4,3.1,1.3,4.4c.9,1.4,2.1,2.5,3.8,3.3s3.7,1.3,6,1.3,5.5-.8,7.4-2.5Z"></path><path class="cls-2" d="M910.4,150c2.3,2.1,3.5,4.9,3.5,8.4s-.6,4.5-1.7,6.4c-1.2,1.9-2.9,3.3-5.2,4.4s-5.1,1.6-8.3,1.6-5.9-.5-8.6-1.5-4.9-2.3-6.5-3.9l2.1-3.4c1.4,1.4,3.3,2.6,5.6,3.5,2.3,.9,4.8,1.4,7.4,1.4s6.1-.8,8-2.3,2.8-3.6,2.8-6.2-.9-4.6-2.8-6.1c-1.9-1.5-4.7-2.2-8.5-2.2h-3v-3.2l11.6-14.6h-21.5v-3.8h27v3.1l-11.9,14.9c4.4,.2,7.7,1.4,10,3.6Z"></path><path class="cls-2" d="M925.5,165.1c.6,.6,.9,1.4,.9,2.3s0,1-.2,1.6c-.1,.6-.4,1.2-.6,1.9l-2.5,8.3h-2.9l2-8.7c-.6-.2-1.2-.6-1.6-1.1-.4-.5-.6-1.2-.6-2s.3-1.7,.9-2.3c.6-.6,1.4-.9,2.3-.9s1.7,.3,2.3,.9Z"></path><path class="cls-2" d="M943.6,128.4v42h-4.3v-38.2h-9.9v-3.8h14.2Z"></path><path class="cls-2" d="M983.2,128.4v3.1l-17.6,38.9h-4.7l17.3-38.2h-21.6v7.9h-4.3v-11.7h30.8Z"></path><path class="cls-2" d="M1016.5,132.2h-14.8v-3.8h34v3.8h-14.8v38.2h-4.4v-38.2Z"></path></g><g><path class="cls-1" d="M75.3,347.2c1.6,1.3,2.3,3.1,2.3,5.4s-.8,4.1-2.3,5.4c-1.6,1.3-3.7,2-6.4,2h-5.2v6.4h-3v-21h8.2c2.7,0,4.9,.7,6.4,2Zm-2.2,8.9c1-.8,1.5-2,1.5-3.5s-.5-2.7-1.5-3.5c-1-.8-2.5-1.2-4.3-1.2h-5.1v9.4h5.1c1.9,0,3.3-.4,4.3-1.2Z"></path><path class="cls-1" d="M95.8,359.2h-12.9c.2,1.4,.8,2.5,1.8,3.4,1,.9,2.4,1.3,3.9,1.3s3.4-.6,4.6-1.9l1.6,1.9c-.7,.8-1.6,1.5-2.7,1.9-1.1,.4-2.3,.7-3.6,.7s-3.2-.3-4.5-1c-1.3-.7-2.3-1.7-3-2.9s-1.1-2.6-1.1-4.2,.3-2.9,1-4.2c.7-1.2,1.6-2.2,2.8-2.9,1.2-.7,2.6-1,4.1-1s2.9,.3,4.1,1c1.2,.7,2.1,1.7,2.8,2.9s1,2.7,1,4.3,0,.5,0,.9Zm-11.3-5.4c-.9,.8-1.5,1.9-1.6,3.3h10.2c-.2-1.3-.7-2.4-1.6-3.3-.9-.8-2.1-1.3-3.5-1.3s-2.5,.4-3.5,1.3Z"></path><path class="cls-1" d="M113.2,351.9c1.2,1.2,1.8,2.9,1.8,5.1v9.2h-2.9v-8.8c0-1.5-.4-2.7-1.1-3.5-.7-.8-1.8-1.2-3.2-1.2s-2.8,.5-3.7,1.4c-.9,.9-1.3,2.2-1.3,3.9v8.2h-2.9v-15.9h2.8v2.4c.6-.8,1.4-1.5,2.4-1.9,1-.4,2.1-.7,3.4-.7,2,0,3.6,.6,4.8,1.8Z"></path><path class="cls-1" d="M134.7,359.2h-12.9c.2,1.4,.8,2.5,1.8,3.4,1,.9,2.4,1.3,3.9,1.3s3.4-.6,4.6-1.9l1.6,1.9c-.7,.8-1.6,1.5-2.7,1.9-1.1,.4-2.3,.7-3.6,.7s-3.2-.3-4.5-1c-1.3-.7-2.3-1.7-3-2.9s-1.1-2.6-1.1-4.2,.3-2.9,1-4.2c.7-1.2,1.6-2.2,2.8-2.9,1.2-.7,2.6-1,4.1-1s2.9,.3,4.1,1c1.2,.7,2.1,1.7,2.8,2.9s1,2.7,1,4.3,0,.5,0,.9Zm-11.3-5.4c-.9,.8-1.5,1.9-1.6,3.3h10.2c-.2-1.3-.7-2.4-1.6-3.3-.9-.8-2.1-1.3-3.5-1.3s-2.5,.4-3.5,1.3Z"></path><path class="cls-1" d="M163.4,351.9c1.2,1.2,1.8,2.9,1.8,5.2v9.2h-2.9v-8.8c0-1.5-.4-2.7-1.1-3.5-.7-.8-1.7-1.2-3-1.2s-2.6,.5-3.5,1.4c-.9,.9-1.3,2.2-1.3,3.9v8.2h-2.9v-8.8c0-1.5-.4-2.7-1.1-3.5-.7-.8-1.7-1.2-3-1.2s-2.6,.5-3.5,1.4c-.9,.9-1.3,2.2-1.3,3.9v8.2h-2.9v-15.9h2.8v2.4c.6-.8,1.3-1.4,2.3-1.9,.9-.4,2-.6,3.2-.6s2.3,.3,3.3,.8,1.7,1.2,2.2,2.2c.6-.9,1.4-1.6,2.5-2.2,1.1-.5,2.3-.8,3.6-.8,2,0,3.6,.6,4.8,1.7Z"></path><path class="cls-1" d="M183,351.2c1.2,.7,2.2,1.6,2.9,2.8,.7,1.2,1,2.6,1,4.2s-.3,3-1,4.2c-.7,1.2-1.6,2.2-2.9,2.9s-2.6,1-4.1,1-2.2-.2-3.1-.7c-1-.4-1.8-1.1-2.4-1.9v8.2h-2.9v-21.7h2.8v2.5c.6-.9,1.4-1.5,2.4-2,1-.5,2.1-.7,3.2-.7s2.9,.3,4.1,1Zm-1.6,12c.8-.5,1.5-1.1,1.9-2,.5-.8,.7-1.8,.7-2.9s-.2-2.1-.7-2.9-1.1-1.5-1.9-2-1.7-.7-2.7-.7-1.9,.2-2.7,.7c-.8,.5-1.5,1.1-1.9,2-.5,.8-.7,1.8-.7,2.9s.2,2.1,.7,2.9c.5,.9,1.1,1.5,1.9,2,.8,.5,1.7,.7,2.7,.7s1.9-.2,2.7-.7Z"></path><path class="cls-1" d="M201.6,351.8c1.2,1.1,1.8,2.7,1.8,4.8v9.6h-2.7v-2.1c-.5,.7-1.2,1.3-2.1,1.7s-1.9,.6-3.2,.6c-1.8,0-3.2-.4-4.3-1.3-1.1-.9-1.6-2-1.6-3.4s.5-2.5,1.5-3.4c1-.8,2.6-1.3,4.9-1.3h4.6v-.6c0-1.2-.4-2.2-1.1-2.8s-1.8-1-3.2-1-1.9,.2-2.8,.5c-.9,.3-1.7,.7-2.3,1.2l-1.2-2.2c.8-.7,1.8-1.2,2.9-1.5,1.1-.3,2.4-.5,3.6-.5,2.2,0,3.9,.5,5.1,1.6Zm-2.9,11.7c.8-.5,1.4-1.2,1.7-2.1v-2.2h-4.4c-2.4,0-3.7,.8-3.7,2.5s.3,1.4,.9,1.9c.6,.5,1.5,.7,2.6,.7s2-.2,2.8-.7Z"></path><path class="cls-1" d="M217.7,365.3c-.4,.4-.9,.6-1.6,.8-.6,.2-1.3,.3-1.9,.3-1.6,0-2.8-.4-3.7-1.3-.9-.9-1.3-2.1-1.3-3.7v-8.7h-2.7v-2.4h2.7v-3.5h2.9v3.5h4.6v2.4h-4.6v8.6c0,.9,.2,1.5,.6,2,.4,.5,1,.7,1.8,.7s1.6-.3,2.3-.8l.9,2.1Z"></path><path class="cls-1" d="M232,351.8c1.2,1.1,1.8,2.7,1.8,4.8v9.6h-2.7v-2.1c-.5,.7-1.2,1.3-2.1,1.7s-1.9,.6-3.2,.6c-1.8,0-3.2-.4-4.3-1.3-1.1-.9-1.6-2-1.6-3.4s.5-2.5,1.5-3.4c1-.8,2.6-1.3,4.9-1.3h4.6v-.6c0-1.2-.4-2.2-1.1-2.8s-1.8-1-3.2-1-1.9,.2-2.8,.5c-.9,.3-1.7,.7-2.3,1.2l-1.2-2.2c.8-.7,1.8-1.2,2.9-1.5,1.1-.3,2.4-.5,3.6-.5,2.2,0,3.9,.5,5.1,1.6Zm-2.9,11.7c.8-.5,1.4-1.2,1.7-2.1v-2.2h-4.4c-2.4,0-3.7,.8-3.7,2.5s.3,1.4,.9,1.9c.6,.5,1.5,.7,2.6,.7s2-.2,2.8-.7Z"></path><path class="cls-1" d="M252.4,351.9c1.2,1.2,1.8,2.9,1.8,5.1v9.2h-2.9v-8.8c0-1.5-.4-2.7-1.1-3.5-.7-.8-1.8-1.2-3.2-1.2s-2.8,.5-3.7,1.4c-.9,.9-1.3,2.2-1.3,3.9v8.2h-2.9v-15.9h2.8v2.4c.6-.8,1.4-1.5,2.4-1.9,1-.4,2.1-.7,3.4-.7,2,0,3.6,.6,4.8,1.8Z"></path><path class="cls-1" d="M282.6,344v22.3h-2.8v-2.5c-.6,.9-1.5,1.6-2.4,2-1,.5-2.1,.7-3.2,.7s-2.9-.3-4.1-1c-1.2-.7-2.2-1.6-2.9-2.9-.7-1.2-1-2.6-1-4.2s.3-3,1-4.2c.7-1.2,1.6-2.2,2.9-2.8,1.2-.7,2.6-1,4.1-1s2.2,.2,3.2,.6c1,.4,1.8,1.1,2.4,1.9v-8.8h2.9Zm-5.5,19.2c.8-.5,1.5-1.1,1.9-2,.5-.8,.7-1.8,.7-2.9s-.2-2.1-.7-2.9c-.5-.8-1.1-1.5-1.9-2s-1.7-.7-2.7-.7-1.9,.2-2.7,.7c-.8,.5-1.5,1.1-1.9,2s-.7,1.8-.7,2.9,.2,2.1,.7,2.9c.5,.9,1.1,1.5,1.9,2,.8,.5,1.7,.7,2.7,.7s1.9-.2,2.7-.7Z"></path><path class="cls-1" d="M288.1,346.7c-.4-.4-.6-.8-.6-1.3s.2-1,.6-1.3c.4-.4,.8-.6,1.4-.6s1,.2,1.4,.5c.4,.4,.6,.8,.6,1.3s-.2,1-.6,1.4-.8,.6-1.4,.6-1-.2-1.4-.5Zm0,3.6h2.9v15.9h-2.9v-15.9Z"></path><path class="cls-1" d="M321.9,357.2c.7,.9,1,2,1,3.4s-.7,3.2-2.1,4.2c-1.4,1-3.4,1.5-6,1.5h-10v-21h9.4c2.4,0,4.3,.5,5.6,1.4s2,2.3,2,4-.3,2.1-.8,2.8c-.5,.8-1.2,1.4-2.1,1.8,1.2,.3,2.2,1,2.9,1.8Zm-14-9.5v6.7h6.1c1.5,0,2.7-.3,3.6-.9,.8-.6,1.2-1.4,1.2-2.5s-.4-1.9-1.2-2.5c-.8-.6-2-.9-3.6-.9h-6.1Zm10.7,15.3c.9-.6,1.3-1.4,1.3-2.6,0-2.3-1.7-3.5-5.1-3.5h-6.9v7h6.9c1.7,0,3-.3,3.8-.8Z"></path><path class="cls-1" d="M338,351.8c1.2,1.1,1.8,2.7,1.8,4.8v9.6h-2.7v-2.1c-.5,.7-1.2,1.3-2.1,1.7s-1.9,.6-3.2,.6c-1.8,0-3.2-.4-4.3-1.3-1.1-.9-1.6-2-1.6-3.4s.5-2.5,1.5-3.4c1-.8,2.6-1.3,4.9-1.3h4.6v-.6c0-1.2-.4-2.2-1.1-2.8s-1.8-1-3.2-1-1.9,.2-2.8,.5c-.9,.3-1.7,.7-2.3,1.2l-1.2-2.2c.8-.7,1.8-1.2,2.9-1.5,1.1-.3,2.4-.5,3.6-.5,2.2,0,3.9,.5,5.1,1.6Zm-2.9,11.7c.8-.5,1.4-1.2,1.7-2.1v-2.2h-4.4c-2.4,0-3.7,.8-3.7,2.5s.3,1.4,.9,1.9c.6,.5,1.5,.7,2.6,.7s2-.2,2.8-.7Z"></path><path class="cls-1" d="M358.4,351.9c1.2,1.2,1.8,2.9,1.8,5.1v9.2h-2.9v-8.8c0-1.5-.4-2.7-1.1-3.5-.7-.8-1.8-1.2-3.2-1.2s-2.8,.5-3.7,1.4c-.9,.9-1.3,2.2-1.3,3.9v8.2h-2.9v-15.9h2.8v2.4c.6-.8,1.4-1.5,2.4-1.9,1-.4,2.1-.7,3.4-.7,2,0,3.6,.6,4.8,1.8Z"></path><path class="cls-1" d="M371.7,358.8l-3.3,3.1v4.4h-2.9v-22.3h2.9v14.3l8.7-7.9h3.5l-6.7,6.6,7.3,9.3h-3.5l-6-7.4Z"></path><path class="cls-1" d="M86.5,401.7c-1.5-.5-2.6-1.1-3.5-1.9l1.1-2.3c.8,.7,1.8,1.3,3.1,1.8s2.5,.7,3.9,.7,3-.3,3.9-.9c.9-.6,1.3-1.4,1.3-2.4s-.2-1.3-.7-1.8c-.5-.4-1-.8-1.7-1-.7-.2-1.7-.5-2.9-.8-1.6-.4-2.9-.8-3.8-1.1s-1.8-1-2.5-1.8c-.7-.8-1-1.9-1-3.2s.3-2.1,.9-3c.6-.9,1.5-1.6,2.7-2.2,1.2-.5,2.7-.8,4.5-.8s2.5,.2,3.7,.5c1.2,.3,2.2,.8,3.1,1.4l-1,2.4c-.9-.6-1.8-1-2.8-1.3s-2-.4-2.9-.4c-1.7,0-3,.3-3.8,.9-.9,.6-1.3,1.4-1.3,2.4s.2,1.3,.7,1.8c.5,.5,1.1,.8,1.8,1,.7,.3,1.7,.5,2.9,.8,1.6,.4,2.8,.8,3.8,1.1s1.8,1,2.5,1.7c.7,.8,1,1.8,1,3.1s-.3,2.1-.9,3-1.5,1.6-2.7,2.2c-1.2,.5-2.7,.8-4.5,.8s-3.1-.2-4.6-.7Z"></path><path class="cls-1" d="M117,386.3l-7.7,17.5c-.7,1.6-1.5,2.8-2.4,3.4s-2,1-3.3,1-1.5-.1-2.3-.4c-.7-.3-1.3-.6-1.8-1.1l1.2-2.2c.8,.8,1.8,1.2,2.8,1.2s1.3-.2,1.8-.6,.9-1,1.3-1.9l.5-1.1-7-15.9h3l5.5,12.7,5.5-12.7h2.8Z"></path><path class="cls-1" d="M130,387.8c1.2,1.1,1.8,2.7,1.8,4.8v9.6h-2.7v-2.1c-.5,.7-1.2,1.3-2.1,1.7s-1.9,.6-3.2,.6c-1.8,0-3.2-.4-4.3-1.3-1.1-.9-1.6-2-1.6-3.4s.5-2.5,1.5-3.4c1-.8,2.6-1.3,4.9-1.3h4.6v-.6c0-1.2-.4-2.2-1.1-2.8s-1.8-1-3.2-1-1.9,.2-2.8,.5c-.9,.3-1.7,.7-2.3,1.2l-1.2-2.2c.8-.7,1.8-1.2,2.9-1.5,1.1-.3,2.4-.5,3.6-.5,2.2,0,3.9,.5,5.1,1.6Zm-2.9,11.7c.8-.5,1.4-1.2,1.7-2.1v-2.2h-4.4c-2.4,0-3.7,.8-3.7,2.5s.3,1.4,.9,1.9c.6,.5,1.5,.7,2.6,.7s2-.2,2.8-.7Z"></path><path class="cls-1" d="M142.1,386.9c1-.5,2.2-.7,3.6-.7v2.8c-.2,0-.4,0-.7,0-1.6,0-2.8,.5-3.7,1.4-.9,.9-1.3,2.3-1.3,4v7.9h-2.9v-15.9h2.8v2.7c.5-.9,1.2-1.6,2.2-2.1Z"></path><path class="cls-1" d="M149.2,382.7c-.4-.4-.6-.8-.6-1.3s.2-1,.6-1.3c.4-.4,.8-.6,1.4-.6s1,.2,1.4,.5c.4,.4,.6,.8,.6,1.3s-.2,1-.6,1.4-.8,.6-1.4,.6-1-.2-1.4-.5Zm0,3.6h2.9v15.9h-2.9v-15.9Z"></path><path class="cls-1" d="M168.4,387.8c1.2,1.1,1.8,2.7,1.8,4.8v9.6h-2.7v-2.1c-.5,.7-1.2,1.3-2.1,1.7s-1.9,.6-3.2,.6c-1.8,0-3.2-.4-4.3-1.3-1.1-.9-1.6-2-1.6-3.4s.5-2.5,1.5-3.4c1-.8,2.6-1.3,4.9-1.3h4.6v-.6c0-1.2-.4-2.2-1.1-2.8s-1.8-1-3.2-1-1.9,.2-2.8,.5c-.9,.3-1.7,.7-2.3,1.2l-1.2-2.2c.8-.7,1.8-1.2,2.9-1.5,1.1-.3,2.4-.5,3.6-.5,2.2,0,3.9,.5,5.1,1.6Zm-2.9,11.7c.8-.5,1.4-1.2,1.7-2.1v-2.2h-4.4c-2.4,0-3.7,.8-3.7,2.5s.3,1.4,.9,1.9c.6,.5,1.5,.7,2.6,.7s2-.2,2.8-.7Z"></path><path class="cls-1" d="M188.8,387.9c1.2,1.2,1.8,2.9,1.8,5.1v9.2h-2.9v-8.8c0-1.5-.4-2.7-1.1-3.5-.7-.8-1.8-1.2-3.2-1.2s-2.8,.5-3.7,1.4c-.9,.9-1.3,2.2-1.3,3.9v8.2h-2.9v-22.3h2.9v8.6c.6-.8,1.4-1.3,2.4-1.8s2.1-.6,3.3-.6c2,0,3.6,.6,4.8,1.8Z"></path><path class="cls-1" d="M202.2,377h2.6l-9.9,28.3h-2.6l9.9-28.3Z"></path><path class="cls-1" d="M209.1,400.1c-1.6-1.6-2.3-3.9-2.3-6.9v-11.9h3v11.8c0,4.5,2,6.8,5.9,6.8s3.4-.6,4.4-1.7c1-1.1,1.5-2.8,1.5-5.1v-11.8h2.9v11.9c0,3-.8,5.3-2.3,6.9-1.6,1.6-3.7,2.4-6.5,2.4s-5-.8-6.5-2.4Z"></path><path class="cls-1" d="M232.8,400.1c-1.6-1.6-2.3-3.9-2.3-6.9v-11.9h3v11.8c0,4.5,2,6.8,5.9,6.8s3.4-.6,4.4-1.7c1-1.1,1.5-2.8,1.5-5.1v-11.8h2.9v11.9c0,3-.8,5.3-2.3,6.9-1.6,1.6-3.7,2.4-6.5,2.4s-5-.8-6.5-2.4Z"></path><path class="cls-1" d="M255.9,401.7c-1.5-.5-2.6-1.1-3.5-1.9l1.1-2.3c.8,.7,1.8,1.3,3.1,1.8s2.5,.7,3.9,.7,3-.3,3.9-.9c.9-.6,1.3-1.4,1.3-2.4s-.2-1.3-.7-1.8c-.5-.4-1-.8-1.7-1-.7-.2-1.7-.5-2.9-.8-1.6-.4-2.9-.8-3.8-1.1s-1.8-1-2.5-1.8c-.7-.8-1-1.9-1-3.2s.3-2.1,.9-3c.6-.9,1.5-1.6,2.7-2.2,1.2-.5,2.7-.8,4.5-.8s2.5,.2,3.7,.5c1.2,.3,2.2,.8,3.1,1.4l-1,2.4c-.9-.6-1.8-1-2.8-1.3s-2-.4-2.9-.4c-1.7,0-3,.3-3.8,.9-.9,.6-1.3,1.4-1.3,2.4s.2,1.3,.7,1.8c.5,.5,1.1,.8,1.8,1,.7,.3,1.7,.5,2.9,.8,1.6,.4,2.8,.8,3.8,1.1s1.8,1,2.5,1.7c.7,.8,1,1.8,1,3.1s-.3,2.1-.9,3-1.5,1.6-2.7,2.2c-1.2,.5-2.7,.8-4.5,.8s-3.1-.2-4.6-.7Z"></path><path class="cls-1" d="M281.7,401.7c-.6-2.4-.9-5-.9-7.7s.3-5.3,.9-7.7c.6-2.4,1.5-4.5,2.6-6.3h2.7c-1.2,2.1-2.1,4.3-2.6,6.6s-.8,4.8-.8,7.4,.3,5.1,.8,7.4,1.4,4.5,2.6,6.6h-2.7c-1.1-1.8-2-4-2.6-6.3Z"></path><path class="cls-1" d="M304.2,399.6v2.6h-15.1v-2l8.5-8.3c1-1,1.7-1.9,2.1-2.6,.4-.7,.5-1.5,.5-2.2,0-1.1-.4-2-1.2-2.6-.8-.6-1.9-.9-3.3-.9-2.3,0-4.1,.8-5.4,2.3l-2-1.8c.8-1,1.9-1.8,3.2-2.3,1.3-.6,2.8-.8,4.5-.8s4,.5,5.3,1.6,2,2.5,2,4.3-.2,2.2-.7,3.2c-.5,1-1.4,2.1-2.7,3.4l-6.4,6.2h10.8Z"></path><path class="cls-1" d="M319.3,391.3c1.4,1.1,2.1,2.7,2.1,4.6s-.3,2.4-.9,3.3-1.5,1.8-2.7,2.3c-1.2,.6-2.7,.9-4.4,.9s-2.9-.2-4.3-.7c-1.4-.4-2.5-1.1-3.4-1.9l1.4-2.4c.7,.7,1.6,1.2,2.8,1.6,1.1,.4,2.3,.6,3.5,.6s2.8-.3,3.7-1c.9-.7,1.3-1.6,1.3-2.7s-.5-2.2-1.4-2.9c-1-.7-2.6-1-4.9-1h-4.8l1.1-11h11.8v2.6h-9.3l-.6,5.8h2.3c3,0,5.2,.6,6.6,1.7Z"></path><path class="cls-1" d="M324.6,390.9c-.9-1.1-1.3-2.4-1.3-4.1s.4-3.1,1.3-4.1c.9-1.1,2.1-1.6,3.5-1.6s2.6,.5,3.5,1.6c.9,1,1.3,2.4,1.3,4.2s-.4,3.1-1.3,4.2c-.9,1-2.1,1.6-3.5,1.6s-2.6-.5-3.5-1.6Zm5.7-1.2c.5-.7,.8-1.7,.8-3s-.3-2.2-.8-3c-.5-.7-1.2-1.1-2.2-1.1s-1.6,.4-2.1,1.1c-.5,.7-.8,1.7-.8,2.9s.3,2.2,.8,2.9c.5,.7,1.2,1.1,2.1,1.1s1.6-.4,2.2-1.1Zm10.5-8.5h2.3l-14.3,21h-2.3l14.3-21Zm-2.9,19.6c-.9-1-1.3-2.4-1.3-4.2s.4-3.1,1.3-4.2,2.1-1.6,3.5-1.6,2.6,.5,3.5,1.6c.9,1.1,1.3,2.4,1.3,4.1s-.4,3.1-1.3,4.1c-.9,1.1-2.1,1.6-3.5,1.6s-2.6-.5-3.5-1.6Zm5.7-1.2c.5-.7,.8-1.7,.8-2.9s-.3-2.2-.8-2.9c-.5-.7-1.2-1.1-2.1-1.1s-1.6,.4-2.2,1.1c-.5,.7-.8,1.7-.8,3s.3,2.2,.8,3c.5,.7,1.2,1.1,2.2,1.1s1.6-.4,2.1-1.1Z"></path><path class="cls-1" d="M347.8,408c1.2-2.1,2.1-4.3,2.7-6.6,.6-2.3,.9-4.8,.9-7.4s-.3-5.1-.9-7.4c-.6-2.3-1.5-4.5-2.7-6.6h2.7c1.2,1.8,2,3.9,2.7,6.3,.6,2.4,.9,5,.9,7.7s-.3,5.3-.9,7.7c-.6,2.4-1.5,4.5-2.7,6.3h-2.7Z"></path><path class="cls-1" d="M106.7,474.2l-9.6-13.5c-1.1,.1-2.2,.2-3.4,.2h-11.3v13.3h-4.4v-42h15.7c5.4,0,9.6,1.3,12.6,3.8,3,2.6,4.6,6.1,4.6,10.6s-.8,6.1-2.5,8.3c-1.7,2.3-4,3.9-7.1,4.9l10.3,14.4h-4.9Zm-3.5-19.9c2.2-1.8,3.3-4.4,3.3-7.7s-1.1-6-3.3-7.8c-2.2-1.8-5.4-2.7-9.5-2.7h-11.2v21.1h11.2c4.2,0,7.3-.9,9.5-2.8Z"></path><path class="cls-1" d="M144.8,444.4c2.4,1.3,4.3,3.2,5.6,5.7,1.4,2.4,2,5.2,2,8.3s-.7,6-2,8.4c-1.4,2.4-3.2,4.3-5.6,5.7-2.4,1.3-5.1,2-8.1,2s-4.9-.5-6.9-1.6c-2.1-1.1-3.8-2.6-5.1-4.7v17.6h-4.3v-43.2h4.1v6.2c1.3-2.1,3-3.7,5.1-4.8,2.1-1.1,4.5-1.7,7.1-1.7s5.6,.7,8,2Zm-2.3,24.8c1.8-1,3.2-2.5,4.2-4.4,1-1.9,1.5-4,1.5-6.4s-.5-4.5-1.5-6.4c-1-1.9-2.4-3.3-4.2-4.4-1.8-1-3.8-1.6-6-1.6s-4.3,.5-6,1.6c-1.8,1-3.2,2.5-4.2,4.4-1,1.9-1.5,4-1.5,6.4s.5,4.5,1.5,6.4c1,1.9,2.4,3.3,4.2,4.4,1.8,1,3.8,1.5,6,1.5s4.2-.5,6-1.5Z"></path><path class="cls-1" d="M194.1,463.2h-8.4v11h-4.3v-11h-23.7v-3.1l22.3-27.8h4.8l-21.5,27.1h18.2v-9.7h4.2v9.7h8.4v3.8Z"></path><path class="cls-1" d="M206.1,472c-2.5-1.7-4.5-4.2-5.9-7.4-1.4-3.2-2.1-7-2.1-11.4s.7-8.2,2.1-11.4c1.4-3.2,3.4-5.7,5.9-7.4,2.5-1.7,5.4-2.6,8.7-2.6s6.1,.9,8.7,2.6c2.5,1.7,4.5,4.2,6,7.4s2.2,7,2.2,11.4-.7,8.2-2.2,11.4-3.4,5.7-6,7.4c-2.5,1.7-5.4,2.6-8.7,2.6s-6.1-.9-8.7-2.6Zm15.1-3.4c1.9-1.4,3.3-3.3,4.4-5.9,1-2.6,1.6-5.7,1.6-9.4s-.5-6.8-1.6-9.4c-1-2.6-2.5-4.6-4.4-5.9-1.9-1.4-4-2-6.4-2s-4.6,.7-6.5,2c-1.9,1.4-3.3,3.3-4.4,5.9-1,2.6-1.6,5.7-1.6,9.4s.5,6.8,1.6,9.4c1,2.6,2.5,4.6,4.4,5.9,1.9,1.4,4,2,6.5,2s4.6-.7,6.4-2Z"></path><path class="cls-1" d="M242.7,468.9c.6,.6,.9,1.4,.9,2.3s0,1-.2,1.6c-.1,.6-.4,1.2-.6,1.9l-2.5,8.3h-2.9l2-8.7c-.6-.2-1.2-.6-1.6-1.1-.4-.5-.6-1.2-.6-2s.3-1.7,.9-2.3c.6-.6,1.4-.9,2.3-.9s1.7,.3,2.3,.9Z"></path><path class="cls-1" d="M273.9,450.6c2.1,1,3.8,2.5,5,4.4,1.2,1.9,1.8,4.1,1.8,6.6s-.6,4.8-1.9,6.8c-1.2,2-3,3.5-5.1,4.5-2.2,1.1-4.6,1.6-7.4,1.6-5.6,0-9.8-1.8-12.8-5.5-3-3.7-4.4-8.8-4.4-15.5s.8-8.6,2.4-11.9c1.6-3.2,3.8-5.7,6.7-7.3,2.9-1.7,6.2-2.5,10.1-2.5s7.5,.8,10,2.3l-1.7,3.5c-2-1.3-4.7-2-8.2-2s-8.3,1.5-10.9,4.4c-2.6,2.9-4,7.2-4,12.8s0,2.1,.2,3.4c1-2.3,2.7-4,5-5.3s4.9-1.9,7.9-1.9,5.2,.5,7.4,1.6Zm-.3,17.8c1.9-1.7,2.8-3.9,2.8-6.6s-1-5-2.8-6.6c-1.9-1.6-4.5-2.5-7.7-2.5s-4,.4-5.6,1.2c-1.6,.8-2.9,1.9-3.8,3.3-.9,1.4-1.4,3-1.4,4.7s.4,3.1,1.3,4.4c.9,1.4,2.1,2.5,3.8,3.3s3.7,1.3,6,1.3,5.5-.8,7.4-2.5Z"></path><path class="cls-1" d="M314.9,432.2v3.1l-17.6,38.9h-4.7l17.3-38.2h-21.6v7.9h-4.3v-11.7h30.8Z"></path><path class="cls-1" d="M348.2,436.1h-14.8v-3.8h34v3.8h-14.8v38.2h-4.4v-38.2Z"></path></g><g><path class="cls-1" d="M87.6,651.5h2.9v8.2c-1,.9-2.3,1.5-3.6,2s-2.8,.7-4.3,.7-4-.5-5.7-1.4c-1.7-.9-3-2.2-4-3.8-1-1.6-1.5-3.5-1.5-5.5s.5-3.9,1.5-5.5c1-1.6,2.3-2.9,4-3.8s3.6-1.4,5.8-1.4,3.2,.3,4.6,.8,2.5,1.4,3.5,2.4l-1.9,1.9c-1.7-1.6-3.7-2.4-6.1-2.4s-3,.3-4.3,1c-1.3,.7-2.3,1.7-3,2.9-.7,1.2-1.1,2.6-1.1,4.2s.4,2.9,1.1,4.1c.7,1.2,1.7,2.2,3,2.9,1.3,.7,2.7,1,4.3,1s3.5-.4,4.9-1.3v-6.8Z"></path><path class="cls-1" d="M95.8,642.6c-.4-.4-.6-.8-.6-1.3s.2-1,.6-1.3c.4-.4,.8-.6,1.4-.6s1,.2,1.4,.5c.4,.4,.6,.8,.6,1.3s-.2,1-.6,1.4-.8,.6-1.4,.6-1-.2-1.4-.5Zm0,3.6h2.9v15.9h-2.9v-15.9Z"></path><path class="cls-1" d="M109.1,646.8c1-.5,2.2-.7,3.6-.7v2.8c-.2,0-.4,0-.7,0-1.6,0-2.8,.5-3.7,1.4-.9,.9-1.3,2.3-1.3,4v7.9h-2.9v-15.9h2.8v2.7c.5-.9,1.2-1.6,2.2-2.1Z"></path><path class="cls-1" d="M118.7,661.2c-1.3-.7-2.2-1.7-3-2.9-.7-1.2-1.1-2.6-1.1-4.2s.4-3,1.1-4.2c.7-1.2,1.7-2.2,3-2.9,1.3-.7,2.7-1,4.3-1s3,.3,4.2,1c1.3,.7,2.2,1.7,2.9,2.9,.7,1.2,1.1,2.6,1.1,4.2s-.4,3-1.1,4.2c-.7,1.2-1.7,2.2-2.9,2.9s-2.7,1-4.2,1-3-.3-4.3-1Zm7-2.2c.8-.5,1.4-1.1,1.9-2,.5-.8,.7-1.8,.7-2.9s-.2-2.1-.7-2.9c-.5-.8-1.1-1.5-1.9-2-.8-.5-1.7-.7-2.7-.7s-1.9,.2-2.7,.7c-.8,.5-1.5,1.1-1.9,2s-.7,1.8-.7,2.9,.2,2.1,.7,2.9c.5,.9,1.1,1.5,1.9,2,.8,.5,1.7,.7,2.7,.7s1.9-.2,2.7-.7Z"></path><path class="cls-1" d="M136.9,658.7c.4,.4,.6,.9,.6,1.5s0,.6-.1,.9c0,.3-.2,.7-.4,1.3l-1.4,4.2h-1.9l1.1-4.5c-.4-.1-.7-.4-.9-.7-.2-.3-.3-.7-.3-1.2s.2-1.1,.6-1.5,.9-.6,1.4-.6,1,.2,1.4,.6Z"></path><path class="cls-1" d="M154.3,643.7h-7.2v-2.6h17.4v2.6h-7.2v18.4h-3v-18.4Z"></path><path class="cls-1" d="M177.3,647.7c1.2,1.1,1.8,2.7,1.8,4.8v9.6h-2.7v-2.1c-.5,.7-1.2,1.3-2.1,1.7s-1.9,.6-3.2,.6c-1.8,0-3.2-.4-4.3-1.3-1.1-.9-1.6-2-1.6-3.4s.5-2.5,1.5-3.4c1-.8,2.6-1.3,4.9-1.3h4.6v-.6c0-1.2-.4-2.2-1.1-2.8s-1.8-1-3.2-1-1.9,.2-2.8,.5c-.9,.3-1.7,.7-2.3,1.2l-1.2-2.2c.8-.7,1.8-1.2,2.9-1.5,1.1-.3,2.4-.5,3.6-.5,2.2,0,3.9,.5,5.1,1.6Zm-2.9,11.7c.8-.5,1.4-1.2,1.7-2.1v-2.2h-4.4c-2.4,0-3.7,.8-3.7,2.5s.3,1.4,.9,1.9c.6,.5,1.5,.7,2.6,.7s2-.2,2.8-.7Z"></path><path class="cls-1" d="M197,647.1c1.2,.7,2.2,1.6,2.9,2.8,.7,1.2,1,2.6,1,4.2s-.3,3-1,4.2c-.7,1.2-1.6,2.2-2.9,2.9s-2.6,1-4.1,1-2.3-.2-3.2-.7c-1-.5-1.8-1.1-2.4-2v2.5h-2.8v-22.3h2.9v8.8c.6-.8,1.4-1.5,2.4-1.9,1-.4,2-.6,3.2-.6s2.9,.3,4.1,1Zm-1.6,12c.8-.5,1.5-1.1,1.9-2,.5-.8,.7-1.8,.7-2.9s-.2-2.1-.7-2.9-1.1-1.5-1.9-2-1.7-.7-2.7-.7-1.9,.2-2.7,.7c-.8,.5-1.5,1.1-1.9,2s-.7,1.8-.7,2.9,.2,2.1,.7,2.9c.5,.9,1.1,1.5,1.9,2,.8,.5,1.7,.7,2.7,.7s1.9-.2,2.7-.7Z"></path><path class="cls-1" d="M219.7,646.2v15.9h-2.7v-2.4c-.6,.8-1.3,1.5-2.3,1.9-1,.5-2,.7-3.1,.7-2.1,0-3.8-.6-5-1.8-1.2-1.2-1.8-2.9-1.8-5.2v-9.2h2.9v8.8c0,1.5,.4,2.7,1.1,3.5,.7,.8,1.8,1.2,3.2,1.2s2.7-.5,3.6-1.4,1.3-2.2,1.3-3.9v-8.2h2.9Z"></path><path class="cls-1" d="M238.5,647.8c1.2,1.2,1.8,2.9,1.8,5.1v9.2h-2.9v-8.8c0-1.5-.4-2.7-1.1-3.5-.7-.8-1.8-1.2-3.2-1.2s-2.8,.5-3.7,1.4c-.9,.9-1.3,2.2-1.3,3.9v8.2h-2.9v-15.9h2.8v2.4c.6-.8,1.4-1.5,2.4-1.9,1-.4,2.1-.7,3.4-.7,2,0,3.6,.6,4.8,1.8Z"></path><path class="cls-1" d="M260.9,646.2v13.7c0,2.8-.7,4.8-2.1,6.2s-3.4,2-6.2,2-2.9-.2-4.3-.6c-1.4-.4-2.5-1-3.3-1.8l1.4-2.2c.7,.6,1.7,1.1,2.7,1.5s2.2,.6,3.4,.6c1.9,0,3.2-.4,4.1-1.3,.9-.9,1.3-2.2,1.3-4v-1.3c-.7,.8-1.5,1.4-2.5,1.8-1,.4-2.1,.6-3.2,.6s-2.9-.3-4.1-1c-1.2-.7-2.2-1.6-2.9-2.7s-1-2.5-1-4,.3-2.8,1-4,1.7-2.1,2.9-2.7c1.2-.6,2.6-1,4.1-1s2.3,.2,3.3,.7c1,.4,1.9,1.1,2.5,2v-2.5h2.7Zm-5.5,12.1c.8-.4,1.5-1.1,2-1.8,.5-.8,.7-1.7,.7-2.7,0-1.5-.5-2.8-1.5-3.7-1-.9-2.3-1.4-3.9-1.4s-2.9,.5-4,1.4c-1,1-1.5,2.2-1.5,3.7s.2,1.9,.7,2.7c.5,.8,1.1,1.4,2,1.8,.8,.4,1.8,.7,2.8,.7s2-.2,2.8-.7Z"></path><path class="cls-1" d="M277.2,647.7c1.2,1.1,1.8,2.7,1.8,4.8v9.6h-2.7v-2.1c-.5,.7-1.2,1.3-2.1,1.7s-1.9,.6-3.2,.6c-1.8,0-3.2-.4-4.3-1.3-1.1-.9-1.6-2-1.6-3.4s.5-2.5,1.5-3.4c1-.8,2.6-1.3,4.9-1.3h4.6v-.6c0-1.2-.4-2.2-1.1-2.8s-1.8-1-3.2-1-1.9,.2-2.8,.5c-.9,.3-1.7,.7-2.3,1.2l-1.2-2.2c.8-.7,1.8-1.2,2.9-1.5,1.1-.3,2.4-.5,3.6-.5,2.2,0,3.9,.5,5.1,1.6Zm-2.9,11.7c.8-.5,1.4-1.2,1.7-2.1v-2.2h-4.4c-2.4,0-3.7,.8-3.7,2.5s.3,1.4,.9,1.9c.6,.5,1.5,.7,2.6,.7s2-.2,2.8-.7Z"></path><path class="cls-1" d="M297.6,647.8c1.2,1.2,1.8,2.9,1.8,5.1v9.2h-2.9v-8.8c0-1.5-.4-2.7-1.1-3.5-.7-.8-1.8-1.2-3.2-1.2s-2.8,.5-3.7,1.4c-.9,.9-1.3,2.2-1.3,3.9v8.2h-2.9v-15.9h2.8v2.4c.6-.8,1.4-1.5,2.4-1.9,1-.4,2.1-.7,3.4-.7,2,0,3.6,.6,4.8,1.8Z"></path><path class="cls-1" d="M327.8,639.8v22.3h-2.8v-2.5c-.6,.9-1.5,1.6-2.4,2-1,.5-2.1,.7-3.2,.7s-2.9-.3-4.1-1c-1.2-.7-2.2-1.6-2.9-2.9-.7-1.2-1-2.6-1-4.2s.3-3,1-4.2c.7-1.2,1.6-2.2,2.9-2.8,1.2-.7,2.6-1,4.1-1s2.2,.2,3.2,.6c1,.4,1.8,1.1,2.4,1.9v-8.8h2.9Zm-5.5,19.2c.8-.5,1.5-1.1,1.9-2,.5-.8,.7-1.8,.7-2.9s-.2-2.1-.7-2.9c-.5-.8-1.1-1.5-1.9-2s-1.7-.7-2.7-.7-1.9,.2-2.7,.7c-.8,.5-1.5,1.1-1.9,2s-.7,1.8-.7,2.9,.2,2.1,.7,2.9c.5,.9,1.1,1.5,1.9,2,.8,.5,1.7,.7,2.7,.7s1.9-.2,2.7-.7Z"></path><path class="cls-1" d="M344.1,647.7c1.2,1.1,1.8,2.7,1.8,4.8v9.6h-2.7v-2.1c-.5,.7-1.2,1.3-2.1,1.7s-1.9,.6-3.2,.6c-1.8,0-3.2-.4-4.3-1.3-1.1-.9-1.6-2-1.6-3.4s.5-2.5,1.5-3.4c1-.8,2.6-1.3,4.9-1.3h4.6v-.6c0-1.2-.4-2.2-1.1-2.8s-1.8-1-3.2-1-1.9,.2-2.8,.5c-.9,.3-1.7,.7-2.3,1.2l-1.2-2.2c.8-.7,1.8-1.2,2.9-1.5,1.1-.3,2.4-.5,3.6-.5,2.2,0,3.9,.5,5.1,1.6Zm-2.9,11.7c.8-.5,1.4-1.2,1.7-2.1v-2.2h-4.4c-2.4,0-3.7,.8-3.7,2.5s.3,1.4,.9,1.9c.6,.5,1.5,.7,2.6,.7s2-.2,2.8-.7Z"></path><path class="cls-1" d="M364.5,647.8c1.2,1.2,1.8,2.9,1.8,5.1v9.2h-2.9v-8.8c0-1.5-.4-2.7-1.1-3.5-.7-.8-1.8-1.2-3.2-1.2s-2.8,.5-3.7,1.4c-.9,.9-1.3,2.2-1.3,3.9v8.2h-2.9v-15.9h2.8v2.4c.6-.8,1.4-1.5,2.4-1.9,1-.4,2.1-.7,3.4-.7,2,0,3.6,.6,4.8,1.8Z"></path><path class="cls-1" d="M94.4,677.1h8.8c2.2,0,4.2,.4,5.9,1.3,1.7,.9,3.1,2.1,4,3.7,.9,1.6,1.4,3.4,1.4,5.5s-.5,3.9-1.4,5.5c-1,1.6-2.3,2.8-4,3.7-1.7,.9-3.7,1.3-5.9,1.3h-8.8v-21Zm8.7,18.4c1.7,0,3.2-.3,4.5-1,1.3-.7,2.3-1.6,3-2.8s1-2.6,1-4.1-.3-2.9-1-4.1-1.7-2.1-3-2.8-2.8-1-4.5-1h-5.7v15.8h5.7Z"></path><path class="cls-1" d="M133,691.1h-12.9c.2,1.4,.8,2.5,1.8,3.4,1,.9,2.4,1.3,3.9,1.3s3.4-.6,4.6-1.9l1.6,1.9c-.7,.8-1.6,1.5-2.7,1.9-1.1,.4-2.3,.7-3.6,.7s-3.2-.3-4.5-1c-1.3-.7-2.3-1.7-3-2.9s-1.1-2.6-1.1-4.2,.3-2.9,1-4.2c.7-1.2,1.6-2.2,2.8-2.9,1.2-.7,2.6-1,4.1-1s2.9,.3,4.1,1c1.2,.7,2.1,1.7,2.8,2.9s1,2.7,1,4.3,0,.5,0,.9Zm-11.3-5.4c-.9,.8-1.5,1.9-1.6,3.3h10.2c-.2-1.3-.7-2.4-1.6-3.3-.9-.8-2.1-1.3-3.5-1.3s-2.5,.4-3.5,1.3Z"></path><path class="cls-1" d="M149.6,683.1c1.2,.7,2.2,1.6,2.9,2.8,.7,1.2,1,2.6,1,4.2s-.3,3-1,4.2c-.7,1.2-1.6,2.2-2.9,2.9s-2.6,1-4.1,1-2.2-.2-3.1-.7c-1-.4-1.8-1.1-2.4-1.9v8.2h-2.9v-21.7h2.8v2.5c.6-.9,1.4-1.5,2.4-2,1-.5,2.1-.7,3.2-.7s2.9,.3,4.1,1Zm-1.6,12c.8-.5,1.5-1.1,1.9-2,.5-.8,.7-1.8,.7-2.9s-.2-2.1-.7-2.9-1.1-1.5-1.9-2-1.7-.7-2.7-.7-1.9,.2-2.7,.7c-.8,.5-1.5,1.1-1.9,2-.5,.8-.7,1.8-.7,2.9s.2,2.1,.7,2.9c.5,.9,1.1,1.5,1.9,2,.8,.5,1.7,.7,2.7,.7s1.9-.2,2.7-.7Z"></path><path class="cls-1" d="M160.1,697.2c-1.3-.7-2.2-1.7-3-2.9-.7-1.2-1.1-2.6-1.1-4.2s.4-3,1.1-4.2c.7-1.2,1.7-2.2,3-2.9,1.3-.7,2.7-1,4.3-1s3,.3,4.2,1c1.3,.7,2.2,1.7,2.9,2.9,.7,1.2,1.1,2.6,1.1,4.2s-.4,3-1.1,4.2c-.7,1.2-1.7,2.2-2.9,2.9s-2.7,1-4.2,1-3-.3-4.3-1Zm7-2.2c.8-.5,1.4-1.1,1.9-2,.5-.8,.7-1.8,.7-2.9s-.2-2.1-.7-2.9c-.5-.8-1.1-1.5-1.9-2-.8-.5-1.7-.7-2.7-.7s-1.9,.2-2.7,.7c-.8,.5-1.5,1.1-1.9,2s-.7,1.8-.7,2.9,.2,2.1,.7,2.9c.5,.9,1.1,1.5,1.9,2,.8,.5,1.7,.7,2.7,.7s1.9-.2,2.7-.7Z"></path><path class="cls-1" d="M177.4,697.7c-1.2-.3-2.1-.8-2.8-1.3l1.2-2.3c.7,.5,1.5,.9,2.5,1.2,1,.3,2,.4,3,.4,2.5,0,3.8-.7,3.8-2.2s-.2-.9-.5-1.1c-.3-.3-.8-.5-1.3-.6-.5-.1-1.2-.3-2.2-.4-1.3-.2-2.3-.4-3.1-.7-.8-.3-1.5-.7-2.1-1.3s-.9-1.5-.9-2.6,.6-2.6,1.8-3.5,2.8-1.3,4.8-1.3,2.1,.1,3.2,.4c1.1,.3,1.9,.6,2.6,1l-1.2,2.3c-1.3-.8-2.8-1.3-4.6-1.3s-2.2,.2-2.8,.6c-.6,.4-1,.9-1,1.6s.2,.9,.5,1.2c.4,.3,.8,.5,1.3,.7,.5,.1,1.3,.3,2.2,.5,1.3,.2,2.3,.5,3.1,.7s1.5,.7,2,1.3c.6,.6,.8,1.4,.8,2.5s-.6,2.6-1.8,3.4c-1.2,.9-2.9,1.3-5,1.3s-2.5-.2-3.8-.5Z"></path><path class="cls-1" d="M191.7,678.6c-.4-.4-.6-.8-.6-1.3s.2-1,.6-1.3c.4-.4,.8-.6,1.4-.6s1,.2,1.4,.5c.4,.4,.6,.8,.6,1.3s-.2,1-.6,1.4-.8,.6-1.4,.6-1-.2-1.4-.5Zm0,3.6h2.9v15.9h-2.9v-15.9Z"></path><path class="cls-1" d="M208.9,697.2c-.4,.4-.9,.6-1.6,.8-.6,.2-1.3,.3-1.9,.3-1.6,0-2.8-.4-3.7-1.3-.9-.9-1.3-2.1-1.3-3.7v-8.7h-2.7v-2.4h2.7v-3.5h2.9v3.5h4.6v2.4h-4.6v8.6c0,.9,.2,1.5,.6,2,.4,.5,1,.7,1.8,.7s1.6-.3,2.3-.8l.9,2.1Z"></path><path class="cls-1" d="M214.4,697.2c-1.3-.7-2.2-1.7-3-2.9-.7-1.2-1.1-2.6-1.1-4.2s.4-3,1.1-4.2c.7-1.2,1.7-2.2,3-2.9,1.3-.7,2.7-1,4.3-1s3,.3,4.2,1c1.3,.7,2.2,1.7,2.9,2.9,.7,1.2,1.1,2.6,1.1,4.2s-.4,3-1.1,4.2c-.7,1.2-1.7,2.2-2.9,2.9s-2.7,1-4.2,1-3-.3-4.3-1Zm7-2.2c.8-.5,1.4-1.1,1.9-2,.5-.8,.7-1.8,.7-2.9s-.2-2.1-.7-2.9c-.5-.8-1.1-1.5-1.9-2-.8-.5-1.7-.7-2.7-.7s-1.9,.2-2.7,.7c-.8,.5-1.5,1.1-1.9,2s-.7,1.8-.7,2.9,.2,2.1,.7,2.9c.5,.9,1.1,1.5,1.9,2,.8,.5,1.7,.7,2.7,.7s1.9-.2,2.7-.7Z"></path><path class="cls-1" d="M240.9,697.6c-1.5-.5-2.6-1.1-3.5-1.9l1.1-2.3c.8,.7,1.8,1.3,3.1,1.8s2.5,.7,3.9,.7,3-.3,3.9-.9c.9-.6,1.3-1.4,1.3-2.4s-.2-1.3-.7-1.8c-.5-.4-1-.8-1.7-1-.7-.2-1.7-.5-2.9-.8-1.6-.4-2.9-.8-3.8-1.1s-1.8-1-2.5-1.8c-.7-.8-1-1.9-1-3.2s.3-2.1,.9-3c.6-.9,1.5-1.6,2.7-2.2,1.2-.5,2.7-.8,4.5-.8s2.5,.2,3.7,.5c1.2,.3,2.2,.8,3.1,1.4l-1,2.4c-.9-.6-1.8-1-2.8-1.3s-2-.4-2.9-.4c-1.7,0-3,.3-3.8,.9-.9,.6-1.3,1.4-1.3,2.4s.2,1.3,.7,1.8c.5,.5,1.1,.8,1.8,1,.7,.3,1.7,.5,2.9,.8,1.6,.4,2.8,.8,3.8,1.1s1.8,1,2.5,1.7c.7,.8,1,1.8,1,3.1s-.3,2.1-.9,3-1.5,1.6-2.7,2.2c-1.2,.5-2.7,.8-4.5,.8s-3.1-.2-4.6-.7Z"></path><path class="cls-1" d="M271.4,682.2l-7.7,17.5c-.7,1.6-1.5,2.8-2.4,3.4s-2,1-3.3,1-1.5-.1-2.3-.4c-.7-.3-1.3-.6-1.8-1.1l1.2-2.2c.8,.8,1.8,1.2,2.8,1.2s1.3-.2,1.8-.6,.9-1,1.3-1.9l.5-1.1-7-15.9h3l5.5,12.7,5.5-12.7h2.8Z"></path><path class="cls-1" d="M284.4,683.7c1.2,1.1,1.8,2.7,1.8,4.8v9.6h-2.7v-2.1c-.5,.7-1.2,1.3-2.1,1.7s-1.9,.6-3.2,.6c-1.8,0-3.2-.4-4.3-1.3-1.1-.9-1.6-2-1.6-3.4s.5-2.5,1.5-3.4c1-.8,2.6-1.3,4.9-1.3h4.6v-.6c0-1.2-.4-2.2-1.1-2.8s-1.8-1-3.2-1-1.9,.2-2.8,.5c-.9,.3-1.7,.7-2.3,1.2l-1.2-2.2c.8-.7,1.8-1.2,2.9-1.5,1.1-.3,2.4-.5,3.6-.5,2.2,0,3.9,.5,5.1,1.6Zm-2.9,11.7c.8-.5,1.4-1.2,1.7-2.1v-2.2h-4.4c-2.4,0-3.7,.8-3.7,2.5s.3,1.4,.9,1.9c.6,.5,1.5,.7,2.6,.7s2-.2,2.8-.7Z"></path><path class="cls-1" d="M296.5,682.8c1-.5,2.2-.7,3.6-.7v2.8c-.2,0-.4,0-.7,0-1.6,0-2.8,.5-3.7,1.4-.9,.9-1.3,2.3-1.3,4v7.9h-2.9v-15.9h2.8v2.7c.5-.9,1.2-1.6,2.2-2.1Z"></path><path class="cls-1" d="M303.6,678.6c-.4-.4-.6-.8-.6-1.3s.2-1,.6-1.3c.4-.4,.8-.6,1.4-.6s1,.2,1.4,.5c.4,.4,.6,.8,.6,1.3s-.2,1-.6,1.4-.8,.6-1.4,.6-1-.2-1.4-.5Zm0,3.6h2.9v15.9h-2.9v-15.9Z"></path><path class="cls-1" d="M322.8,683.7c1.2,1.1,1.8,2.7,1.8,4.8v9.6h-2.7v-2.1c-.5,.7-1.2,1.3-2.1,1.7s-1.9,.6-3.2,.6c-1.8,0-3.2-.4-4.3-1.3-1.1-.9-1.6-2-1.6-3.4s.5-2.5,1.5-3.4c1-.8,2.6-1.3,4.9-1.3h4.6v-.6c0-1.2-.4-2.2-1.1-2.8s-1.8-1-3.2-1-1.9,.2-2.8,.5c-.9,.3-1.7,.7-2.3,1.2l-1.2-2.2c.8-.7,1.8-1.2,2.9-1.5,1.1-.3,2.4-.5,3.6-.5,2.2,0,3.9,.5,5.1,1.6Zm-2.9,11.7c.8-.5,1.4-1.2,1.7-2.1v-2.2h-4.4c-2.4,0-3.7,.8-3.7,2.5s.3,1.4,.9,1.9c.6,.5,1.5,.7,2.6,.7s2-.2,2.8-.7Z"></path><path class="cls-1" d="M343.2,683.8c1.2,1.2,1.8,2.9,1.8,5.1v9.2h-2.9v-8.8c0-1.5-.4-2.7-1.1-3.5-.7-.8-1.8-1.2-3.2-1.2s-2.8,.5-3.7,1.4c-.9,.9-1.3,2.2-1.3,3.9v8.2h-2.9v-22.3h2.9v8.6c.6-.8,1.4-1.3,2.4-1.8s2.1-.6,3.3-.6c2,0,3.6,.6,4.8,1.8Z"></path><path class="cls-1" d="M174.3,734.1l-4.5-6.5c-.6,0-1,0-1.3,0h-5.2v6.4h-3v-21h8.2c2.7,0,4.9,.7,6.4,2,1.6,1.3,2.3,3.1,2.3,5.4s-.4,3-1.2,4.1c-.8,1.1-1.9,2-3.4,2.5l5,7h-3.3Zm-1.6-10.2c1-.8,1.5-2,1.5-3.5s-.5-2.7-1.5-3.5c-1-.8-2.5-1.2-4.3-1.2h-5.1v9.5h5.1c1.9,0,3.3-.4,4.3-1.2Z"></path><path class="cls-1" d="M194.2,719.1c1.2,.7,2.2,1.6,2.9,2.8,.7,1.2,1,2.6,1,4.2s-.3,3-1,4.2c-.7,1.2-1.6,2.2-2.9,2.9s-2.6,1-4.1,1-2.2-.2-3.1-.7c-1-.4-1.8-1.1-2.4-1.9v8.2h-2.9v-21.7h2.8v2.5c.6-.9,1.4-1.5,2.4-2,1-.5,2.1-.7,3.2-.7s2.9,.3,4.1,1Zm-1.6,12c.8-.5,1.5-1.1,1.9-2,.5-.8,.7-1.8,.7-2.9s-.2-2.1-.7-2.9-1.1-1.5-1.9-2-1.7-.7-2.7-.7-1.9,.2-2.7,.7c-.8,.5-1.5,1.1-1.9,2-.5,.8-.7,1.8-.7,2.9s.2,2.1,.7,2.9c.5,.9,1.1,1.5,1.9,2,.8,.5,1.7,.7,2.7,.7s1.9-.2,2.7-.7Z"></path><path class="cls-1" d="M219,728.9h-4v5.2h-2.9v-5.2h-11.7v-2.1l10.7-13.7h3.2l-10.3,13.3h8.1v-4.6h2.8v4.6h4v2.6Z"></path><path class="cls-1" d="M225,733c-1.3-.8-2.3-2.1-3-3.7s-1.1-3.5-1.1-5.8,.4-4.1,1.1-5.8c.7-1.6,1.8-2.9,3-3.7,1.3-.9,2.8-1.3,4.4-1.3s3.1,.4,4.4,1.3c1.3,.8,2.3,2.1,3,3.7,.7,1.6,1.1,3.5,1.1,5.8s-.4,4.1-1.1,5.8c-.7,1.6-1.8,2.9-3,3.7-1.3,.9-2.8,1.3-4.4,1.3s-3.1-.4-4.4-1.3Zm8.5-3.5c1-1.4,1.5-3.4,1.5-6s-.5-4.6-1.5-6-2.4-2.1-4-2.1-3.1,.7-4.1,2.1-1.5,3.4-1.5,6,.5,4.6,1.5,6,2.4,2.1,4.1,2.1,3-.7,4-2.1Z"></path><path class="cls-1" d="M243.9,730.7c.4,.4,.6,.9,.6,1.5s0,.6-.1,.9c0,.3-.2,.7-.4,1.3l-1.4,4.2h-1.9l1.1-4.5c-.4-.1-.7-.4-.9-.7-.2-.3-.3-.7-.3-1.2s.2-1.1,.6-1.5,.9-.6,1.4-.6,1,.2,1.4,.6Z"></path><path class="cls-1" d="M259.7,722.1c1.1,.5,1.9,1.3,2.6,2.2,.6,1,.9,2.1,.9,3.3s-.3,2.5-1,3.5c-.6,1-1.5,1.8-2.7,2.3s-2.4,.8-3.8,.8c-2.8,0-5-.9-6.5-2.7-1.5-1.8-2.3-4.4-2.3-7.7s.4-4.3,1.2-6c.8-1.7,2-2.9,3.5-3.8,1.5-.9,3.2-1.3,5.2-1.3s2,.1,2.9,.3,1.7,.5,2.3,.9l-1.1,2.3c-1-.7-2.3-1-4-1s-3.9,.7-5.1,2c-1.2,1.3-1.9,3.3-1.9,5.9s0,.6,0,.8c.6-.9,1.4-1.6,2.5-2.1,1-.5,2.2-.7,3.6-.7s2.6,.3,3.7,.8Zm-.7,8.7c.9-.7,1.3-1.7,1.3-3s-.4-2.2-1.3-3c-.9-.7-2-1.1-3.5-1.1s-1.8,.2-2.5,.5c-.7,.4-1.3,.9-1.7,1.5-.4,.6-.6,1.3-.6,2.1s.2,1.4,.6,2,1,1.1,1.7,1.5,1.6,.6,2.7,.6,2.5-.4,3.4-1.1Z"></path><path class="cls-1" d="M280.5,713.1v2l-8.5,19h-3.2l8.3-18.4h-9.6v3.8h-2.9v-6.4h15.8Z"></path><path class="cls-1" d="M105.7,805c-1.2-4.8-1.8-9.9-1.8-15.4s.6-10.6,1.8-15.5c1.2-4.8,2.9-9,5.2-12.6h4.1c-2.4,4-4.1,8.4-5.2,13-1.1,4.6-1.6,9.7-1.6,15.1s.5,10.4,1.6,15.1c1.1,4.6,2.8,9,5.2,13h-4.1c-2.2-3.7-4-7.9-5.2-12.7Z"></path><path class="cls-1" d="M149.2,802.2v3.8h-29.5v-3.1l17.5-17.1c2.2-2.2,3.7-4,4.5-5.6,.8-1.6,1.2-3.2,1.2-4.8,0-2.5-.9-4.4-2.6-5.8s-4.1-2.1-7.3-2.1c-4.9,0-8.7,1.6-11.5,4.7l-3.1-2.6c1.6-1.9,3.7-3.4,6.3-4.4s5.4-1.6,8.6-1.6,7.7,1,10.2,3c2.5,2,3.8,4.8,3.8,8.3s-.5,4.2-1.4,6.2c-1,2-2.8,4.3-5.5,6.9l-14.3,14h23.1Z"></path><path class="cls-1" d="M188.9,795h-8.4v11h-4.3v-11h-23.7v-3.1l22.3-27.8h4.8l-21.5,27.1h18.2v-9.7h4.2v9.7h8.4v3.8Z"></path><path class="cls-1" d="M199.7,800.8c.6,.6,.9,1.4,.9,2.3s0,1-.2,1.6c-.1,.6-.4,1.2-.6,1.9l-2.5,8.3h-2.9l2-8.7c-.6-.2-1.2-.6-1.6-1.1-.4-.5-.6-1.2-.6-2s.3-1.7,.9-2.3c.6-.6,1.4-.9,2.3-.9s1.7,.3,2.3,.9Z"></path><path class="cls-1" d="M232.7,769.2c3,3.7,4.4,8.8,4.4,15.5s-.8,8.6-2.4,11.9-3.8,5.7-6.7,7.4-6.2,2.5-10.1,2.5-7.5-.8-10-2.3l1.7-3.5c2,1.3,4.7,2,8.2,2s8.3-1.5,10.9-4.4c2.6-2.9,4-7.2,4-12.8s0-2.2-.2-3.4c-1,2.3-2.7,4.1-5,5.3s-4.9,1.9-7.9,1.9-5.2-.5-7.3-1.6c-2.1-1-3.8-2.5-5-4.4-1.2-1.9-1.8-4.1-1.8-6.6s.6-4.8,1.9-6.8c1.2-2,2.9-3.5,5.1-4.5,2.2-1.1,4.6-1.6,7.4-1.6,5.6,0,9.8,1.8,12.8,5.5Zm-6.7,15.1c1.6-.8,2.9-1.9,3.8-3.3,.9-1.4,1.4-3,1.4-4.7s-.4-3.1-1.3-4.4c-.9-1.4-2.1-2.5-3.8-3.3s-3.7-1.3-6-1.3-5.5,.8-7.4,2.5c-1.9,1.7-2.8,3.9-2.8,6.6s.9,5,2.8,6.6c1.9,1.6,4.5,2.5,7.7,2.5s4-.4,5.6-1.2Z"></path><path class="cls-1" d="M267.1,785.7c2.3,2.1,3.5,4.9,3.5,8.4s-.6,4.5-1.7,6.4c-1.2,1.9-2.9,3.3-5.2,4.4-2.3,1.1-5.1,1.6-8.3,1.6s-5.9-.5-8.6-1.5c-2.7-1-4.9-2.3-6.5-3.9l2.1-3.4c1.4,1.4,3.3,2.6,5.6,3.5,2.3,.9,4.8,1.3,7.4,1.3s6.1-.8,8-2.3,2.8-3.6,2.8-6.2-.9-4.6-2.8-6.1c-1.9-1.5-4.7-2.2-8.5-2.2h-3v-3.2l11.6-14.6h-21.5v-3.8h27v3.1l-11.9,14.9c4.4,.2,7.7,1.4,10,3.6Z"></path><path class="cls-1" d="M278,783.4c-1.7-2.1-2.6-4.8-2.6-8.3s.9-6.1,2.6-8.3c1.7-2.1,4-3.1,6.9-3.1s5.1,1,6.8,3.1c1.8,2.1,2.6,4.8,2.6,8.3s-.9,6.2-2.6,8.3c-1.8,2.1-4,3.1-6.8,3.1s-5.1-1-6.9-3.2Zm11.6-1.9c1.2-1.5,1.8-3.7,1.8-6.4s-.6-4.8-1.8-6.4c-1.2-1.5-2.8-2.3-4.7-2.3s-3.6,.8-4.7,2.3c-1.2,1.6-1.7,3.7-1.7,6.4s.6,4.8,1.7,6.4c1.2,1.6,2.7,2.3,4.7,2.3s3.5-.8,4.7-2.3Zm20.7-17.5h3.5l-28.7,42h-3.5l28.7-42Zm-6.5,39.1c-1.8-2.1-2.6-4.8-2.6-8.3s.9-6.1,2.6-8.3c1.8-2.1,4-3.1,6.8-3.1s5.1,1,6.9,3.1c1.7,2.1,2.6,4.9,2.6,8.3s-.9,6.2-2.6,8.3c-1.7,2.1-4,3.2-6.9,3.2s-5.1-1-6.8-3.2Zm11.6-1.9c1.2-1.6,1.7-3.7,1.7-6.4s-.6-4.8-1.7-6.4c-1.2-1.6-2.7-2.3-4.7-2.3s-3.5,.8-4.7,2.3c-1.2,1.5-1.8,3.7-1.8,6.4s.6,4.9,1.8,6.4c1.2,1.5,2.7,2.3,4.7,2.3s3.6-.8,4.7-2.3Z"></path><path class="cls-1" d="M323.8,817.7c2.4-4,4.1-8.4,5.2-13,1.1-4.6,1.7-9.6,1.7-15.1s-.6-10.5-1.7-15.1c-1.1-4.6-2.9-8.9-5.2-13h4.1c2.2,3.6,4,7.8,5.2,12.6,1.2,4.8,1.8,10,1.8,15.5s-.6,10.6-1.8,15.4-2.9,9-5.2,12.7h-4.1Z"></path></g><g><path class="cls-1" d="M540.9,641.1h3v21h-3v-21Z"></path><path class="cls-1" d="M563,647.8c1.2,1.2,1.8,2.9,1.8,5.1v9.2h-2.9v-8.8c0-1.5-.4-2.7-1.1-3.5-.7-.8-1.8-1.2-3.2-1.2s-2.8,.5-3.7,1.4c-.9,.9-1.3,2.2-1.3,3.9v8.2h-2.9v-15.9h2.8v2.4c.6-.8,1.4-1.5,2.4-1.9,1-.4,2.1-.7,3.4-.7,2,0,3.6,.6,4.8,1.8Z"></path><path class="cls-1" d="M583.9,646.2l-7,15.9h-2.9l-7-15.9h3l5.5,12.8,5.6-12.8h2.8Z"></path><path class="cls-1" d="M600.5,655.1h-12.9c.2,1.4,.8,2.5,1.8,3.4,1,.9,2.4,1.3,3.9,1.3s3.4-.6,4.6-1.9l1.6,1.9c-.7,.8-1.6,1.5-2.7,1.9-1.1,.4-2.3,.7-3.6,.7s-3.2-.3-4.5-1c-1.3-.7-2.3-1.7-3-2.9s-1.1-2.6-1.1-4.2,.3-2.9,1-4.2c.7-1.2,1.6-2.2,2.8-2.9,1.2-.7,2.6-1,4.1-1s2.9,.3,4.1,1c1.2,.7,2.1,1.7,2.8,2.9s1,2.7,1,4.3,0,.5,0,.9Zm-11.3-5.4c-.9,.8-1.5,1.9-1.6,3.3h10.2c-.2-1.3-.7-2.4-1.6-3.3-.9-.8-2.1-1.3-3.5-1.3s-2.5,.4-3.5,1.3Z"></path><path class="cls-1" d="M605.4,661.7c-1.2-.3-2.1-.8-2.8-1.3l1.2-2.3c.7,.5,1.5,.9,2.5,1.2,1,.3,2,.4,3,.4,2.5,0,3.8-.7,3.8-2.2s-.2-.9-.5-1.1c-.3-.3-.8-.5-1.3-.6-.5-.1-1.2-.3-2.2-.4-1.3-.2-2.3-.4-3.1-.7-.8-.3-1.5-.7-2.1-1.3s-.9-1.5-.9-2.6,.6-2.6,1.8-3.5,2.8-1.3,4.8-1.3,2.1,.1,3.2,.4c1.1,.3,1.9,.6,2.6,1l-1.2,2.3c-1.3-.8-2.8-1.3-4.6-1.3s-2.2,.2-2.8,.6c-.6,.4-1,.9-1,1.6s.2,.9,.5,1.2c.4,.3,.8,.5,1.3,.7,.5,.1,1.3,.3,2.2,.5,1.3,.2,2.3,.5,3.1,.7s1.5,.7,2,1.3c.6,.6,.8,1.4,.8,2.5s-.6,2.6-1.8,3.4c-1.2,.9-2.9,1.3-5,1.3s-2.5-.2-3.8-.5Z"></path><path class="cls-1" d="M628.5,661.2c-.4,.4-.9,.6-1.6,.8-.6,.2-1.3,.3-1.9,.3-1.6,0-2.8-.4-3.7-1.3-.9-.9-1.3-2.1-1.3-3.7v-8.7h-2.7v-2.4h2.7v-3.5h2.9v3.5h4.6v2.4h-4.6v8.6c0,.9,.2,1.5,.6,2,.4,.5,1,.7,1.8,.7s1.6-.3,2.3-.8l.9,2.1Z"></path><path class="cls-1" d="M642.8,647.7c1.2,1.1,1.8,2.7,1.8,4.8v9.6h-2.7v-2.1c-.5,.7-1.2,1.3-2.1,1.7s-1.9,.6-3.2,.6c-1.8,0-3.2-.4-4.3-1.3-1.1-.9-1.6-2-1.6-3.4s.5-2.5,1.5-3.4c1-.8,2.6-1.3,4.9-1.3h4.6v-.6c0-1.2-.4-2.2-1.1-2.8s-1.8-1-3.2-1-1.9,.2-2.8,.5c-.9,.3-1.7,.7-2.3,1.2l-1.2-2.2c.8-.7,1.8-1.2,2.9-1.5,1.1-.3,2.4-.5,3.6-.5,2.2,0,3.9,.5,5.1,1.6Zm-2.9,11.7c.8-.5,1.4-1.2,1.7-2.1v-2.2h-4.4c-2.4,0-3.7,.8-3.7,2.5s.3,1.4,.9,1.9c.6,.5,1.5,.7,2.6,.7s2-.2,2.8-.7Z"></path><path class="cls-1" d="M650.8,661.7c-1.2-.3-2.1-.8-2.8-1.3l1.2-2.3c.7,.5,1.5,.9,2.5,1.2,1,.3,2,.4,3,.4,2.5,0,3.8-.7,3.8-2.2s-.2-.9-.5-1.1c-.3-.3-.8-.5-1.3-.6-.5-.1-1.2-.3-2.2-.4-1.3-.2-2.3-.4-3.1-.7-.8-.3-1.5-.7-2.1-1.3s-.9-1.5-.9-2.6,.6-2.6,1.8-3.5,2.8-1.3,4.8-1.3,2.1,.1,3.2,.4c1.1,.3,1.9,.6,2.6,1l-1.2,2.3c-1.3-.8-2.8-1.3-4.6-1.3s-2.2,.2-2.8,.6c-.6,.4-1,.9-1,1.6s.2,.9,.5,1.2c.4,.3,.8,.5,1.3,.7,.5,.1,1.3,.3,2.2,.5,1.3,.2,2.3,.5,3.1,.7s1.5,.7,2,1.3c.6,.6,.8,1.4,.8,2.5s-.6,2.6-1.8,3.4c-1.2,.9-2.9,1.3-5,1.3s-2.5-.2-3.8-.5Z"></path><path class="cls-1" d="M665,642.6c-.4-.4-.6-.8-.6-1.3s.2-1,.6-1.3c.4-.4,.8-.6,1.4-.6s1,.2,1.4,.5c.4,.4,.6,.8,.6,1.3s-.2,1-.6,1.4-.8,.6-1.4,.6-1-.2-1.4-.5Zm0,3.6h2.9v15.9h-2.9v-15.9Z"></path><path class="cls-1" d="M681.8,641.1h3v18.4h11.4v2.6h-14.4v-21Z"></path><path class="cls-1" d="M710.2,647.7c1.2,1.1,1.8,2.7,1.8,4.8v9.6h-2.7v-2.1c-.5,.7-1.2,1.3-2.1,1.7s-1.9,.6-3.2,.6c-1.8,0-3.2-.4-4.3-1.3-1.1-.9-1.6-2-1.6-3.4s.5-2.5,1.5-3.4c1-.8,2.6-1.3,4.9-1.3h4.6v-.6c0-1.2-.4-2.2-1.1-2.8s-1.8-1-3.2-1-1.9,.2-2.8,.5c-.9,.3-1.7,.7-2.3,1.2l-1.2-2.2c.8-.7,1.8-1.2,2.9-1.5,1.1-.3,2.4-.5,3.6-.5,2.2,0,3.9,.5,5.1,1.6Zm-2.9,11.7c.8-.5,1.4-1.2,1.7-2.1v-2.2h-4.4c-2.4,0-3.7,.8-3.7,2.5s.3,1.4,.9,1.9c.6,.5,1.5,.7,2.6,.7s2-.2,2.8-.7Z"></path><path class="cls-1" d="M717.3,642.6c-.4-.4-.6-.8-.6-1.3s.2-1,.6-1.3c.4-.4,.8-.6,1.4-.6s1,.2,1.4,.5c.4,.4,.6,.8,.6,1.3s-.2,1-.6,1.4-.8,.6-1.4,.6-1-.2-1.4-.5Zm0,3.6h2.9v15.9h-2.9v-15.9Z"></path><path class="cls-1" d="M738.9,647.8c1.2,1.2,1.8,2.9,1.8,5.1v9.2h-2.9v-8.8c0-1.5-.4-2.7-1.1-3.5-.7-.8-1.8-1.2-3.2-1.2s-2.8,.5-3.7,1.4c-.9,.9-1.3,2.2-1.3,3.9v8.2h-2.9v-15.9h2.8v2.4c.6-.8,1.4-1.5,2.4-1.9,1-.4,2.1-.7,3.4-.7,2,0,3.6,.6,4.8,1.8Z"></path><path class="cls-1" d="M759.4,647.8c1.2,1.2,1.8,2.9,1.8,5.1v9.2h-2.9v-8.8c0-1.5-.4-2.7-1.1-3.5-.7-.8-1.8-1.2-3.2-1.2s-2.8,.5-3.7,1.4c-.9,.9-1.3,2.2-1.3,3.9v8.2h-2.9v-15.9h2.8v2.4c.6-.8,1.4-1.5,2.4-1.9,1-.4,2.1-.7,3.4-.7,2,0,3.6,.6,4.8,1.8Z"></path><path class="cls-1" d="M780.3,646.2l-7.7,17.5c-.7,1.6-1.5,2.8-2.4,3.4s-2,1-3.3,1-1.5-.1-2.3-.4c-.7-.3-1.3-.6-1.8-1.1l1.2-2.2c.8,.8,1.8,1.2,2.8,1.2s1.3-.2,1.8-.6,.9-1,1.3-1.9l.5-1.1-7-15.9h3l5.5,12.7,5.5-12.7h2.8Z"></path><path class="cls-1" d="M793.3,647.7c1.2,1.1,1.8,2.7,1.8,4.8v9.6h-2.7v-2.1c-.5,.7-1.2,1.3-2.1,1.7s-1.9,.6-3.2,.6c-1.8,0-3.2-.4-4.3-1.3-1.1-.9-1.6-2-1.6-3.4s.5-2.5,1.5-3.4c1-.8,2.6-1.3,4.9-1.3h4.6v-.6c0-1.2-.4-2.2-1.1-2.8s-1.8-1-3.2-1-1.9,.2-2.8,.5c-.9,.3-1.7,.7-2.3,1.2l-1.2-2.2c.8-.7,1.8-1.2,2.9-1.5,1.1-.3,2.4-.5,3.6-.5,2.2,0,3.9,.5,5.1,1.6Zm-2.9,11.7c.8-.5,1.4-1.2,1.7-2.1v-2.2h-4.4c-2.4,0-3.7,.8-3.7,2.5s.3,1.4,.9,1.9c.6,.5,1.5,.7,2.6,.7s2-.2,2.8-.7Z"></path><path class="cls-1" d="M627.8,698.1l-4.5-6.5c-.6,0-1,0-1.3,0h-5.2v6.4h-3v-21h8.2c2.7,0,4.9,.7,6.4,2,1.6,1.3,2.3,3.1,2.3,5.4s-.4,3-1.2,4.1c-.8,1.1-1.9,2-3.4,2.5l5,7h-3.3Zm-1.6-10.2c1-.8,1.5-2,1.5-3.5s-.5-2.7-1.5-3.5c-1-.8-2.5-1.2-4.3-1.2h-5.1v9.5h5.1c1.9,0,3.3-.4,4.3-1.2Z"></path><path class="cls-1" d="M647.7,683.1c1.2,.7,2.2,1.6,2.9,2.8,.7,1.2,1,2.6,1,4.2s-.3,3-1,4.2c-.7,1.2-1.6,2.2-2.9,2.9s-2.6,1-4.1,1-2.2-.2-3.1-.7c-1-.4-1.8-1.1-2.4-1.9v8.2h-2.9v-21.7h2.8v2.5c.6-.9,1.4-1.5,2.4-2,1-.5,2.1-.7,3.2-.7s2.9,.3,4.1,1Zm-1.6,12c.8-.5,1.5-1.1,1.9-2,.5-.8,.7-1.8,.7-2.9s-.2-2.1-.7-2.9-1.1-1.5-1.9-2-1.7-.7-2.7-.7-1.9,.2-2.7,.7c-.8,.5-1.5,1.1-1.9,2-.5,.8-.7,1.8-.7,2.9s.2,2.1,.7,2.9c.5,.9,1.1,1.5,1.9,2,.8,.5,1.7,.7,2.7,.7s1.9-.2,2.7-.7Z"></path><path class="cls-1" d="M658.4,697c-1.3-.8-2.3-2.1-3-3.7s-1.1-3.5-1.1-5.8,.4-4.1,1.1-5.8c.7-1.6,1.8-2.9,3-3.7,1.3-.9,2.8-1.3,4.4-1.3s3.1,.4,4.4,1.3c1.3,.8,2.3,2.1,3,3.7,.7,1.6,1.1,3.5,1.1,5.8s-.4,4.1-1.1,5.8c-.7,1.6-1.8,2.9-3,3.7-1.3,.9-2.8,1.3-4.4,1.3s-3.1-.4-4.4-1.3Zm8.5-3.5c1-1.4,1.5-3.4,1.5-6s-.5-4.6-1.5-6-2.4-2.1-4-2.1-3.1,.7-4.1,2.1-1.5,3.4-1.5,6,.5,4.6,1.5,6,2.4,2.1,4.1,2.1,3-.7,4-2.1Z"></path><path class="cls-1" d="M677.3,694.7c.4,.4,.6,.9,.6,1.5s0,.6-.1,.9c0,.3-.2,.7-.4,1.3l-1.4,4.2h-1.9l1.1-4.5c-.4-.1-.7-.4-.9-.7-.2-.3-.3-.7-.3-1.2s.2-1.1,.6-1.5,.9-.6,1.4-.6,1,.2,1.4,.6Z"></path><path class="cls-1" d="M698.8,692.9h-4v5.2h-2.9v-5.2h-11.7v-2.1l10.7-13.7h3.2l-10.3,13.3h8.1v-4.6h2.8v4.6h4v2.6Z"></path><path class="cls-1" d="M714.5,679.7h-7.2v-2.6h17.4v2.6h-7.2v18.4h-3v-18.4Z"></path><path class="cls-1" d="M571.8,769c-1.2-4.8-1.8-9.9-1.8-15.4s.6-10.6,1.8-15.5c1.2-4.8,2.9-9,5.2-12.6h4.1c-2.4,4-4.1,8.4-5.2,13-1.1,4.6-1.6,9.7-1.6,15.1s.5,10.4,1.6,15.1c1.1,4.6,2.8,9,5.2,13h-4.1c-2.2-3.7-4-7.9-5.2-12.7Z"></path><path class="cls-1" d="M594.7,767.9c-2.5-1.7-4.5-4.2-5.9-7.4-1.4-3.2-2.1-7-2.1-11.4s.7-8.2,2.1-11.4c1.4-3.2,3.4-5.7,5.9-7.4,2.5-1.7,5.4-2.6,8.7-2.6s6.1,.9,8.7,2.6c2.5,1.7,4.5,4.2,6,7.4s2.2,7,2.2,11.4-.7,8.2-2.2,11.4-3.4,5.7-6,7.4c-2.5,1.7-5.4,2.6-8.7,2.6s-6.1-.9-8.7-2.6Zm15.1-3.4c1.9-1.4,3.3-3.3,4.4-5.9,1-2.6,1.6-5.7,1.6-9.4s-.5-6.8-1.6-9.4c-1-2.6-2.5-4.6-4.4-5.9-1.9-1.4-4-2-6.4-2s-4.6,.7-6.5,2c-1.9,1.4-3.3,3.3-4.4,5.9-1,2.6-1.6,5.7-1.6,9.4s.5,6.8,1.6,9.4c1,2.6,2.5,4.6,4.4,5.9,1.9,1.4,4,2,6.5,2s4.6-.7,6.4-2Z"></path><path class="cls-1" d="M631.3,764.8c.6,.6,.9,1.4,.9,2.3s0,1-.2,1.6c-.1,.6-.4,1.2-.6,1.9l-2.5,8.3h-2.9l2-8.7c-.6-.2-1.2-.6-1.6-1.1-.4-.5-.6-1.2-.6-2s.3-1.7,.9-2.3c.6-.6,1.4-.9,2.3-.9s1.7,.3,2.3,.9Z"></path><path class="cls-1" d="M667.7,766.2v3.8h-29.5v-3.1l17.5-17.1c2.2-2.2,3.7-4,4.5-5.6,.8-1.6,1.2-3.2,1.2-4.8,0-2.5-.9-4.4-2.6-5.8s-4.1-2.1-7.3-2.1c-4.9,0-8.7,1.6-11.5,4.7l-3.1-2.6c1.6-1.9,3.7-3.4,6.3-4.4s5.4-1.6,8.6-1.6,7.7,1,10.2,3c2.5,2,3.8,4.8,3.8,8.3s-.5,4.2-1.4,6.2c-1,2-2.8,4.3-5.5,6.9l-14.3,14h23.1Z"></path><path class="cls-1" d="M697.4,748.6c2.8,2.2,4.2,5.2,4.2,9.1s-.6,4.6-1.7,6.5c-1.1,1.9-2.9,3.4-5.1,4.5-2.3,1.1-5.1,1.6-8.4,1.6s-5.8-.5-8.5-1.5c-2.7-1-4.9-2.3-6.5-3.9l2.1-3.4c1.4,1.4,3.2,2.6,5.5,3.5,2.3,.9,4.7,1.3,7.4,1.3s6.2-.8,8.1-2.3c1.9-1.6,2.9-3.6,2.9-6.2s-1.1-5.1-3.2-6.5c-2.1-1.5-5.8-2.2-10.8-2.2h-8.9l2.2-21.1h23v3.8h-19.2l-1.4,13.4h5.4c6.1,0,10.5,1.1,13.3,3.3Z"></path><path class="cls-1" d="M708.5,747.4c-1.7-2.1-2.6-4.8-2.6-8.3s.9-6.1,2.6-8.3c1.7-2.1,4-3.1,6.9-3.1s5.1,1,6.8,3.1c1.8,2.1,2.6,4.8,2.6,8.3s-.9,6.2-2.6,8.3c-1.8,2.1-4,3.1-6.8,3.1s-5.1-1-6.9-3.2Zm11.6-1.9c1.2-1.5,1.8-3.7,1.8-6.4s-.6-4.8-1.8-6.4c-1.2-1.5-2.8-2.3-4.7-2.3s-3.6,.8-4.7,2.3c-1.2,1.6-1.7,3.7-1.7,6.4s.6,4.8,1.7,6.4c1.2,1.6,2.7,2.3,4.7,2.3s3.5-.8,4.7-2.3Zm20.7-17.5h3.5l-28.7,42h-3.5l28.7-42Zm-6.5,39.1c-1.8-2.1-2.6-4.8-2.6-8.3s.9-6.1,2.6-8.3c1.8-2.1,4-3.1,6.8-3.1s5.1,1,6.9,3.1c1.7,2.1,2.6,4.9,2.6,8.3s-.9,6.2-2.6,8.3c-1.7,2.1-4,3.2-6.9,3.2s-5.1-1-6.8-3.2Zm11.6-1.9c1.2-1.6,1.7-3.7,1.7-6.4s-.6-4.8-1.7-6.4c-1.2-1.6-2.7-2.3-4.7-2.3s-3.5,.8-4.7,2.3c-1.2,1.5-1.8,3.7-1.8,6.4s.6,4.9,1.8,6.4c1.2,1.5,2.7,2.3,4.7,2.3s3.6-.8,4.7-2.3Z"></path><path class="cls-1" d="M754.3,781.7c2.4-4,4.1-8.4,5.2-13,1.1-4.6,1.7-9.6,1.7-15.1s-.6-10.5-1.7-15.1c-1.1-4.6-2.9-8.9-5.2-13h4.1c2.2,3.6,4,7.8,5.2,12.6,1.2,4.8,1.8,10,1.8,15.5s-.6,10.6-1.8,15.4-2.9,9-5.2,12.7h-4.1Z"></path></g><g><path class="cls-1" d="M951.8,641.1h3v21h-3v-21Z"></path><path class="cls-1" d="M974,647.8c1.2,1.2,1.8,2.9,1.8,5.1v9.2h-2.9v-8.8c0-1.5-.4-2.7-1.1-3.5-.7-.8-1.8-1.2-3.2-1.2s-2.8,.5-3.7,1.4c-.9,.9-1.3,2.2-1.3,3.9v8.2h-2.9v-15.9h2.8v2.4c.6-.8,1.4-1.5,2.4-1.9,1-.4,2.1-.7,3.4-.7,2,0,3.6,.6,4.8,1.8Z"></path><path class="cls-1" d="M994.9,646.2l-7,15.9h-2.9l-7-15.9h3l5.5,12.8,5.6-12.8h2.8Z"></path><path class="cls-1" d="M1011.5,655.1h-12.9c.2,1.4,.8,2.5,1.8,3.4,1,.9,2.4,1.3,3.9,1.3s3.4-.6,4.6-1.9l1.6,1.9c-.7,.8-1.6,1.5-2.7,1.9-1.1,.4-2.3,.7-3.6,.7s-3.2-.3-4.5-1c-1.3-.7-2.3-1.7-3-2.9s-1.1-2.6-1.1-4.2,.3-2.9,1-4.2c.7-1.2,1.6-2.2,2.8-2.9,1.2-.7,2.6-1,4.1-1s2.9,.3,4.1,1c1.2,.7,2.1,1.7,2.8,2.9s1,2.7,1,4.3,0,.5,0,.9Zm-11.3-5.4c-.9,.8-1.5,1.9-1.6,3.3h10.2c-.2-1.3-.7-2.4-1.6-3.3-.9-.8-2.1-1.3-3.5-1.3s-2.5,.4-3.5,1.3Z"></path><path class="cls-1" d="M1016.3,661.7c-1.2-.3-2.1-.8-2.8-1.3l1.2-2.3c.7,.5,1.5,.9,2.5,1.2,1,.3,2,.4,3,.4,2.5,0,3.8-.7,3.8-2.2s-.2-.9-.5-1.1c-.3-.3-.8-.5-1.3-.6-.5-.1-1.2-.3-2.2-.4-1.3-.2-2.3-.4-3.1-.7-.8-.3-1.5-.7-2.1-1.3s-.9-1.5-.9-2.6,.6-2.6,1.8-3.5,2.8-1.3,4.8-1.3,2.1,.1,3.2,.4c1.1,.3,1.9,.6,2.6,1l-1.2,2.3c-1.3-.8-2.8-1.3-4.6-1.3s-2.2,.2-2.8,.6c-.6,.4-1,.9-1,1.6s.2,.9,.5,1.2c.4,.3,.8,.5,1.3,.7,.5,.1,1.3,.3,2.2,.5,1.3,.2,2.3,.5,3.1,.7s1.5,.7,2,1.3c.6,.6,.8,1.4,.8,2.5s-.6,2.6-1.8,3.4c-1.2,.9-2.9,1.3-5,1.3s-2.5-.2-3.8-.5Z"></path><path class="cls-1" d="M1039.5,661.2c-.4,.4-.9,.6-1.6,.8-.6,.2-1.3,.3-1.9,.3-1.6,0-2.8-.4-3.7-1.3-.9-.9-1.3-2.1-1.3-3.7v-8.7h-2.7v-2.4h2.7v-3.5h2.9v3.5h4.6v2.4h-4.6v8.6c0,.9,.2,1.5,.6,2,.4,.5,1,.7,1.8,.7s1.6-.3,2.3-.8l.9,2.1Z"></path><path class="cls-1" d="M1053.8,647.7c1.2,1.1,1.8,2.7,1.8,4.8v9.6h-2.7v-2.1c-.5,.7-1.2,1.3-2.1,1.7s-1.9,.6-3.2,.6c-1.8,0-3.2-.4-4.3-1.3-1.1-.9-1.6-2-1.6-3.4s.5-2.5,1.5-3.4c1-.8,2.6-1.3,4.9-1.3h4.6v-.6c0-1.2-.4-2.2-1.1-2.8s-1.8-1-3.2-1-1.9,.2-2.8,.5c-.9,.3-1.7,.7-2.3,1.2l-1.2-2.2c.8-.7,1.8-1.2,2.9-1.5,1.1-.3,2.4-.5,3.6-.5,2.2,0,3.9,.5,5.1,1.6Zm-2.9,11.7c.8-.5,1.4-1.2,1.7-2.1v-2.2h-4.4c-2.4,0-3.7,.8-3.7,2.5s.3,1.4,.9,1.9c.6,.5,1.5,.7,2.6,.7s2-.2,2.8-.7Z"></path><path class="cls-1" d="M1061.7,661.7c-1.2-.3-2.1-.8-2.8-1.3l1.2-2.3c.7,.5,1.5,.9,2.5,1.2,1,.3,2,.4,3,.4,2.5,0,3.8-.7,3.8-2.2s-.2-.9-.5-1.1c-.3-.3-.8-.5-1.3-.6-.5-.1-1.2-.3-2.2-.4-1.3-.2-2.3-.4-3.1-.7-.8-.3-1.5-.7-2.1-1.3s-.9-1.5-.9-2.6,.6-2.6,1.8-3.5,2.8-1.3,4.8-1.3,2.1,.1,3.2,.4c1.1,.3,1.9,.6,2.6,1l-1.2,2.3c-1.3-.8-2.8-1.3-4.6-1.3s-2.2,.2-2.8,.6c-.6,.4-1,.9-1,1.6s.2,.9,.5,1.2c.4,.3,.8,.5,1.3,.7,.5,.1,1.3,.3,2.2,.5,1.3,.2,2.3,.5,3.1,.7s1.5,.7,2,1.3c.6,.6,.8,1.4,.8,2.5s-.6,2.6-1.8,3.4c-1.2,.9-2.9,1.3-5,1.3s-2.5-.2-3.8-.5Z"></path><path class="cls-1" d="M1076,642.6c-.4-.4-.6-.8-.6-1.3s.2-1,.6-1.3c.4-.4,.8-.6,1.4-.6s1,.2,1.4,.5c.4,.4,.6,.8,.6,1.3s-.2,1-.6,1.4-.8,.6-1.4,.6-1-.2-1.4-.5Zm0,3.6h2.9v15.9h-2.9v-15.9Z"></path><path class="cls-1" d="M1092.8,641.1h3v18.4h11.4v2.6h-14.4v-21Z"></path><path class="cls-1" d="M1121.1,647.7c1.2,1.1,1.8,2.7,1.8,4.8v9.6h-2.7v-2.1c-.5,.7-1.2,1.3-2.1,1.7s-1.9,.6-3.2,.6c-1.8,0-3.2-.4-4.3-1.3-1.1-.9-1.6-2-1.6-3.4s.5-2.5,1.5-3.4c1-.8,2.6-1.3,4.9-1.3h4.6v-.6c0-1.2-.4-2.2-1.1-2.8s-1.8-1-3.2-1-1.9,.2-2.8,.5c-.9,.3-1.7,.7-2.3,1.2l-1.2-2.2c.8-.7,1.8-1.2,2.9-1.5,1.1-.3,2.4-.5,3.6-.5,2.2,0,3.9,.5,5.1,1.6Zm-2.9,11.7c.8-.5,1.4-1.2,1.7-2.1v-2.2h-4.4c-2.4,0-3.7,.8-3.7,2.5s.3,1.4,.9,1.9c.6,.5,1.5,.7,2.6,.7s2-.2,2.8-.7Z"></path><path class="cls-1" d="M1141.5,647.8c1.2,1.2,1.8,2.9,1.8,5.1v9.2h-2.9v-8.8c0-1.5-.4-2.7-1.1-3.5-.7-.8-1.8-1.2-3.2-1.2s-2.8,.5-3.7,1.4c-.9,.9-1.3,2.2-1.3,3.9v8.2h-2.9v-15.9h2.8v2.4c.6-.8,1.4-1.5,2.4-1.9,1-.4,2.1-.7,3.4-.7,2,0,3.6,.6,4.8,1.8Z"></path><path class="cls-1" d="M1163.9,646.2v13.7c0,2.8-.7,4.8-2.1,6.2s-3.4,2-6.2,2-2.9-.2-4.3-.6c-1.4-.4-2.5-1-3.3-1.8l1.4-2.2c.7,.6,1.7,1.1,2.7,1.5s2.2,.6,3.4,.6c1.9,0,3.2-.4,4.1-1.3,.9-.9,1.3-2.2,1.3-4v-1.3c-.7,.8-1.5,1.4-2.5,1.8-1,.4-2.1,.6-3.2,.6s-2.9-.3-4.1-1c-1.2-.7-2.2-1.6-2.9-2.7s-1-2.5-1-4,.3-2.8,1-4,1.7-2.1,2.9-2.7c1.2-.6,2.6-1,4.1-1s2.3,.2,3.3,.7c1,.4,1.9,1.1,2.5,2v-2.5h2.7Zm-5.5,12.1c.8-.4,1.5-1.1,2-1.8,.5-.8,.7-1.7,.7-2.7,0-1.5-.5-2.8-1.5-3.7-1-.9-2.3-1.4-3.9-1.4s-2.9,.5-4,1.4c-1,1-1.5,2.2-1.5,3.7s.2,1.9,.7,2.7c.5,.8,1.1,1.4,2,1.8,.8,.4,1.8,.7,2.8,.7s2-.2,2.8-.7Z"></path><path class="cls-1" d="M1170.2,661.7c-1.2-.3-2.1-.8-2.8-1.3l1.2-2.3c.7,.5,1.5,.9,2.5,1.2,1,.3,2,.4,3,.4,2.5,0,3.8-.7,3.8-2.2s-.2-.9-.5-1.1c-.3-.3-.8-.5-1.3-.6-.5-.1-1.2-.3-2.2-.4-1.3-.2-2.3-.4-3.1-.7-.8-.3-1.5-.7-2.1-1.3s-.9-1.5-.9-2.6,.6-2.6,1.8-3.5,2.8-1.3,4.8-1.3,2.1,.1,3.2,.4c1.1,.3,1.9,.6,2.6,1l-1.2,2.3c-1.3-.8-2.8-1.3-4.6-1.3s-2.2,.2-2.8,.6c-.6,.4-1,.9-1,1.6s.2,.9,.5,1.2c.4,.3,.8,.5,1.3,.7,.5,.1,1.3,.3,2.2,.5,1.3,.2,2.3,.5,3.1,.7s1.5,.7,2,1.3c.6,.6,.8,1.4,.8,2.5s-.6,2.6-1.8,3.4c-1.2,.9-2.9,1.3-5,1.3s-2.5-.2-3.8-.5Z"></path><path class="cls-1" d="M1199.3,646.2v15.9h-2.7v-2.4c-.6,.8-1.3,1.5-2.3,1.9-1,.5-2,.7-3.1,.7-2.1,0-3.8-.6-5-1.8-1.2-1.2-1.8-2.9-1.8-5.2v-9.2h2.9v8.8c0,1.5,.4,2.7,1.1,3.5,.7,.8,1.8,1.2,3.2,1.2s2.7-.5,3.6-1.4,1.3-2.2,1.3-3.9v-8.2h2.9Z"></path><path class="cls-1" d="M1218.1,647.8c1.2,1.2,1.8,2.9,1.8,5.1v9.2h-2.9v-8.8c0-1.5-.4-2.7-1.1-3.5-.7-.8-1.8-1.2-3.2-1.2s-2.8,.5-3.7,1.4c-.9,.9-1.3,2.2-1.3,3.9v8.2h-2.9v-15.9h2.8v2.4c.6-.8,1.4-1.5,2.4-1.9,1-.4,2.1-.7,3.4-.7,2,0,3.6,.6,4.8,1.8Z"></path><path class="cls-1" d="M1240.5,646.2v13.7c0,2.8-.7,4.8-2.1,6.2s-3.4,2-6.2,2-2.9-.2-4.3-.6c-1.4-.4-2.5-1-3.3-1.8l1.4-2.2c.7,.6,1.7,1.1,2.7,1.5s2.2,.6,3.4,.6c1.9,0,3.2-.4,4.1-1.3,.9-.9,1.3-2.2,1.3-4v-1.3c-.7,.8-1.5,1.4-2.5,1.8-1,.4-2.1,.6-3.2,.6s-2.9-.3-4.1-1c-1.2-.7-2.2-1.6-2.9-2.7s-1-2.5-1-4,.3-2.8,1-4,1.7-2.1,2.9-2.7c1.2-.6,2.6-1,4.1-1s2.3,.2,3.3,.7c1,.4,1.9,1.1,2.5,2v-2.5h2.7Zm-5.5,12.1c.8-.4,1.5-1.1,2-1.8,.5-.8,.7-1.7,.7-2.7,0-1.5-.5-2.8-1.5-3.7-1-.9-2.3-1.4-3.9-1.4s-2.9,.5-4,1.4c-1,1-1.5,2.2-1.5,3.7s.2,1.9,.7,2.7c.5,.8,1.1,1.4,2,1.8,.8,.4,1.8,.7,2.8,.7s2-.2,2.8-.7Z"></path><path class="cls-1" d="M1047.2,698.1l-4.5-6.5c-.6,0-1,0-1.3,0h-5.2v6.4h-3v-21h8.2c2.7,0,4.9,.7,6.4,2,1.6,1.3,2.3,3.1,2.3,5.4s-.4,3-1.2,4.1c-.8,1.1-1.9,2-3.4,2.5l5,7h-3.3Zm-1.6-10.2c1-.8,1.5-2,1.5-3.5s-.5-2.7-1.5-3.5c-1-.8-2.5-1.2-4.3-1.2h-5.1v9.5h5.1c1.9,0,3.3-.4,4.3-1.2Z"></path><path class="cls-1" d="M1067.1,683.1c1.2,.7,2.2,1.6,2.9,2.8,.7,1.2,1,2.6,1,4.2s-.3,3-1,4.2c-.7,1.2-1.6,2.2-2.9,2.9s-2.6,1-4.1,1-2.2-.2-3.1-.7c-1-.4-1.8-1.1-2.4-1.9v8.2h-2.9v-21.7h2.8v2.5c.6-.9,1.4-1.5,2.4-2,1-.5,2.1-.7,3.2-.7s2.9,.3,4.1,1Zm-1.6,12c.8-.5,1.5-1.1,1.9-2,.5-.8,.7-1.8,.7-2.9s-.2-2.1-.7-2.9-1.1-1.5-1.9-2-1.7-.7-2.7-.7-1.9,.2-2.7,.7c-.8,.5-1.5,1.1-1.9,2-.5,.8-.7,1.8-.7,2.9s.2,2.1,.7,2.9c.5,.9,1.1,1.5,1.9,2,.8,.5,1.7,.7,2.7,.7s1.9-.2,2.7-.7Z"></path><path class="cls-1" d="M1092,692.9h-4v5.2h-2.9v-5.2h-11.7v-2.1l10.7-13.7h3.2l-10.3,13.3h8.1v-4.6h2.8v4.6h4v2.6Z"></path><path class="cls-1" d="M1097.8,694.7c.4,.4,.6,.9,.6,1.5s0,.6-.1,.9c0,.3-.2,.7-.4,1.3l-1.4,4.2h-1.9l1.1-4.5c-.4-.1-.7-.4-.9-.7-.2-.3-.3-.7-.3-1.2s.2-1.1,.6-1.5,.9-.6,1.4-.6,1,.2,1.4,.6Z"></path><path class="cls-1" d="M1105,697c-1.3-.8-2.3-2.1-3-3.7s-1.1-3.5-1.1-5.8,.4-4.1,1.1-5.8c.7-1.6,1.8-2.9,3-3.7,1.3-.9,2.8-1.3,4.4-1.3s3.1,.4,4.4,1.3c1.3,.8,2.3,2.1,3,3.7,.7,1.6,1.1,3.5,1.1,5.8s-.4,4.1-1.1,5.8c-.7,1.6-1.8,2.9-3,3.7-1.3,.9-2.8,1.3-4.4,1.3s-3.1-.4-4.4-1.3Zm8.5-3.5c1-1.4,1.5-3.4,1.5-6s-.5-4.6-1.5-6-2.4-2.1-4-2.1-3.1,.7-4.1,2.1-1.5,3.4-1.5,6,.5,4.6,1.5,6,2.4,2.1,4.1,2.1,3-.7,4-2.1Z"></path><path class="cls-1" d="M1133.3,687.8c1.1,1.1,1.6,2.4,1.6,4.1s-.3,2.3-.9,3.3c-.6,1-1.5,1.7-2.7,2.3-1.2,.6-2.6,.9-4.4,.9s-2.9-.2-4.3-.7c-1.4-.4-2.5-1.1-3.4-1.9l1.4-2.4c.7,.7,1.6,1.2,2.8,1.6s2.3,.6,3.6,.6,2.8-.3,3.6-1,1.3-1.6,1.3-2.7-.4-2.1-1.3-2.7c-.9-.6-2.2-1-3.9-1h-1.7v-2.1l5.3-6.5h-10.1v-2.6h13.9v2l-5.5,6.8c2.1,.2,3.6,.8,4.7,1.9Z"></path><path class="cls-1" d="M1151.6,679.7h-7.2v-2.6h17.4v2.6h-7.2v18.4h-3v-18.4Z"></path><path class="cls-1" d="M1000.6,769c-1.2-4.8-1.8-9.9-1.8-15.4s.6-10.6,1.8-15.5c1.2-4.8,2.9-9,5.2-12.6h4.1c-2.4,4-4.1,8.4-5.2,13-1.1,4.6-1.6,9.7-1.6,15.1s.5,10.4,1.6,15.1c1.1,4.6,2.8,9,5.2,13h-4.1c-2.2-3.7-4-7.9-5.2-12.7Z"></path><path class="cls-1" d="M1044.1,766.2v3.8h-29.5v-3.1l17.5-17.1c2.2-2.2,3.7-4,4.5-5.6,.8-1.6,1.2-3.2,1.2-4.8,0-2.5-.9-4.4-2.6-5.8s-4.1-2.1-7.3-2.1c-4.9,0-8.7,1.6-11.5,4.7l-3.1-2.6c1.6-1.9,3.7-3.4,6.3-4.4s5.4-1.6,8.6-1.6,7.7,1,10.2,3c2.5,2,3.8,4.8,3.8,8.3s-.5,4.2-1.4,6.2c-1,2-2.8,4.3-5.5,6.9l-14.3,14h23.1Z"></path><path class="cls-1" d="M1055.7,764.8c.6,.6,.9,1.4,.9,2.3s0,1-.2,1.6c-.1,.6-.4,1.2-.6,1.9l-2.5,8.3h-2.9l2-8.7c-.6-.2-1.2-.6-1.6-1.1-.4-.5-.6-1.2-.6-2s.3-1.7,.9-2.3c.6-.6,1.4-.9,2.3-.9s1.7,.3,2.3,.9Z"></path><path class="cls-1" d="M1097.8,759h-8.4v11h-4.3v-11h-23.7v-3.1l22.3-27.8h4.8l-21.5,27.1h18.2v-9.7h4.2v9.7h8.4v3.8Z"></path><path class="cls-1" d="M1128.4,728.1v3.1l-17.6,38.9h-4.7l17.3-38.2h-21.6v7.9h-4.3v-11.7h30.8Z"></path><path class="cls-1" d="M1136.2,747.4c-1.7-2.1-2.6-4.8-2.6-8.3s.9-6.1,2.6-8.3c1.7-2.1,4-3.1,6.9-3.1s5.1,1,6.8,3.1c1.8,2.1,2.6,4.8,2.6,8.3s-.9,6.2-2.6,8.3c-1.8,2.1-4,3.1-6.8,3.1s-5.1-1-6.9-3.2Zm11.6-1.9c1.2-1.5,1.8-3.7,1.8-6.4s-.6-4.8-1.8-6.4c-1.2-1.5-2.8-2.3-4.7-2.3s-3.6,.8-4.7,2.3c-1.2,1.6-1.7,3.7-1.7,6.4s.6,4.8,1.7,6.4c1.2,1.6,2.7,2.3,4.7,2.3s3.5-.8,4.7-2.3Zm20.7-17.5h3.5l-28.7,42h-3.5l28.7-42Zm-6.5,39.1c-1.8-2.1-2.6-4.8-2.6-8.3s.9-6.1,2.6-8.3c1.8-2.1,4-3.1,6.8-3.1s5.1,1,6.9,3.1c1.7,2.1,2.6,4.9,2.6,8.3s-.9,6.2-2.6,8.3c-1.7,2.1-4,3.2-6.9,3.2s-5.1-1-6.8-3.2Zm11.6-1.9c1.2-1.6,1.7-3.7,1.7-6.4s-.6-4.8-1.7-6.4c-1.2-1.6-2.7-2.3-4.7-2.3s-3.5,.8-4.7,2.3c-1.2,1.5-1.8,3.7-1.8,6.4s.6,4.9,1.8,6.4c1.2,1.5,2.7,2.3,4.7,2.3s3.6-.8,4.7-2.3Z"></path><path class="cls-1" d="M1182,781.7c2.4-4,4.1-8.4,5.2-13,1.1-4.6,1.7-9.6,1.7-15.1s-.6-10.5-1.7-15.1c-1.1-4.6-2.9-8.9-5.2-13h4.1c2.2,3.6,4,7.8,5.2,12.6,1.2,4.8,1.8,10,1.8,15.5s-.6,10.6-1.8,15.4-2.9,9-5.2,12.7h-4.1Z"></path></g><g><path class="cls-1" d="M1398.3,661.6c-1.5-.5-2.6-1.1-3.5-1.9l1.1-2.3c.8,.7,1.8,1.3,3.1,1.8s2.5,.7,3.9,.7,3-.3,3.9-.9c.9-.6,1.3-1.4,1.3-2.4s-.2-1.3-.7-1.8c-.5-.4-1-.8-1.7-1-.7-.2-1.7-.5-2.9-.8-1.6-.4-2.9-.8-3.8-1.1s-1.8-1-2.5-1.8c-.7-.8-1-1.9-1-3.2s.3-2.1,.9-3c.6-.9,1.5-1.6,2.7-2.2,1.2-.5,2.7-.8,4.5-.8s2.5,.2,3.7,.5c1.2,.3,2.2,.8,3.1,1.4l-1,2.4c-.9-.6-1.8-1-2.8-1.3s-2-.4-2.9-.4c-1.7,0-3,.3-3.8,.9-.9,.6-1.3,1.4-1.3,2.4s.2,1.3,.7,1.8c.5,.5,1.1,.8,1.8,1,.7,.3,1.7,.5,2.9,.8,1.6,.4,2.8,.8,3.8,1.1s1.8,1,2.5,1.7c.7,.8,1,1.8,1,3.1s-.3,2.1-.9,3-1.5,1.6-2.7,2.2c-1.2,.5-2.7,.8-4.5,.8s-3.1-.2-4.6-.7Z"></path><path class="cls-1" d="M1429.8,646.2v15.9h-2.7v-2.4c-.6,.8-1.3,1.5-2.3,1.9-1,.5-2,.7-3.1,.7-2.1,0-3.8-.6-5-1.8-1.2-1.2-1.8-2.9-1.8-5.2v-9.2h2.9v8.8c0,1.5,.4,2.7,1.1,3.5,.7,.8,1.8,1.2,3.2,1.2s2.7-.5,3.6-1.4,1.3-2.2,1.3-3.9v-8.2h2.9Z"></path><path class="cls-1" d="M1440.3,646.8c1-.5,2.2-.7,3.6-.7v2.8c-.2,0-.4,0-.7,0-1.6,0-2.8,.5-3.7,1.4-.9,.9-1.3,2.3-1.3,4v7.9h-2.9v-15.9h2.8v2.7c.5-.9,1.2-1.6,2.2-2.1Z"></path><path class="cls-1" d="M1458.2,647.7c1.2,1.1,1.8,2.7,1.8,4.8v9.6h-2.7v-2.1c-.5,.7-1.2,1.3-2.1,1.7s-1.9,.6-3.2,.6c-1.8,0-3.2-.4-4.3-1.3-1.1-.9-1.6-2-1.6-3.4s.5-2.5,1.5-3.4c1-.8,2.6-1.3,4.9-1.3h4.6v-.6c0-1.2-.4-2.2-1.1-2.8s-1.8-1-3.2-1-1.9,.2-2.8,.5c-.9,.3-1.7,.7-2.3,1.2l-1.2-2.2c.8-.7,1.8-1.2,2.9-1.5,1.1-.3,2.4-.5,3.6-.5,2.2,0,3.9,.5,5.1,1.6Zm-2.9,11.7c.8-.5,1.4-1.2,1.7-2.1v-2.2h-4.4c-2.4,0-3.7,.8-3.7,2.5s.3,1.4,.9,1.9c.6,.5,1.5,.7,2.6,.7s2-.2,2.8-.7Z"></path><path class="cls-1" d="M1474.2,661.2c-.4,.4-.9,.6-1.6,.8-.6,.2-1.3,.3-1.9,.3-1.6,0-2.8-.4-3.7-1.3-.9-.9-1.3-2.1-1.3-3.7v-8.7h-2.7v-2.4h2.7v-3.5h2.9v3.5h4.6v2.4h-4.6v8.6c0,.9,.2,1.5,.6,2,.4,.5,1,.7,1.8,.7s1.6-.3,2.3-.8l.9,2.1Z"></path><path class="cls-1" d="M1503.2,653c.7,.9,1,2,1,3.4s-.7,3.2-2.1,4.2c-1.4,1-3.4,1.5-6,1.5h-10v-21h9.4c2.4,0,4.3,.5,5.6,1.4s2,2.3,2,4-.3,2.1-.8,2.8c-.5,.8-1.2,1.4-2.1,1.8,1.2,.3,2.2,1,2.9,1.8Zm-14-9.5v6.7h6.1c1.5,0,2.7-.3,3.6-.9,.8-.6,1.2-1.4,1.2-2.5s-.4-1.9-1.2-2.5c-.8-.6-2-.9-3.6-.9h-6.1Zm10.7,15.3c.9-.6,1.3-1.4,1.3-2.6,0-2.3-1.7-3.5-5.1-3.5h-6.9v7h6.9c1.7,0,3-.3,3.8-.8Z"></path><path class="cls-1" d="M1522.8,655.1h-12.9c.2,1.4,.8,2.5,1.8,3.4,1,.9,2.4,1.3,3.9,1.3s3.4-.6,4.6-1.9l1.6,1.9c-.7,.8-1.6,1.5-2.7,1.9-1.1,.4-2.3,.7-3.6,.7s-3.2-.3-4.5-1c-1.3-.7-2.3-1.7-3-2.9s-1.1-2.6-1.1-4.2,.3-2.9,1-4.2c.7-1.2,1.6-2.2,2.8-2.9,1.2-.7,2.6-1,4.1-1s2.9,.3,4.1,1c1.2,.7,2.1,1.7,2.8,2.9s1,2.7,1,4.3,0,.5,0,.9Zm-11.3-5.4c-.9,.8-1.5,1.9-1.6,3.3h10.2c-.2-1.3-.7-2.4-1.6-3.3-.9-.8-2.1-1.3-3.5-1.3s-2.5,.4-3.5,1.3Z"></path><path class="cls-1" d="M1531.9,646.8c1-.5,2.2-.7,3.6-.7v2.8c-.2,0-.4,0-.7,0-1.6,0-2.8,.5-3.7,1.4-.9,.9-1.3,2.3-1.3,4v7.9h-2.9v-15.9h2.8v2.7c.5-.9,1.2-1.6,2.2-2.1Z"></path><path class="cls-1" d="M1552.3,647.8c1.2,1.2,1.8,2.9,1.8,5.1v9.2h-2.9v-8.8c0-1.5-.4-2.7-1.1-3.5-.7-.8-1.8-1.2-3.2-1.2s-2.8,.5-3.7,1.4c-.9,.9-1.3,2.2-1.3,3.9v8.2h-2.9v-22.3h2.9v8.6c.6-.8,1.4-1.3,2.4-1.8s2.1-.6,3.3-.6c2,0,3.6,.6,4.8,1.8Z"></path><path class="cls-1" d="M1570.2,647.7c1.2,1.1,1.8,2.7,1.8,4.8v9.6h-2.7v-2.1c-.5,.7-1.2,1.3-2.1,1.7s-1.9,.6-3.2,.6c-1.8,0-3.2-.4-4.3-1.3-1.1-.9-1.6-2-1.6-3.4s.5-2.5,1.5-3.4c1-.8,2.6-1.3,4.9-1.3h4.6v-.6c0-1.2-.4-2.2-1.1-2.8s-1.8-1-3.2-1-1.9,.2-2.8,.5c-.9,.3-1.7,.7-2.3,1.2l-1.2-2.2c.8-.7,1.8-1.2,2.9-1.5,1.1-.3,2.4-.5,3.6-.5,2.2,0,3.9,.5,5.1,1.6Zm-2.9,11.7c.8-.5,1.4-1.2,1.7-2.1v-2.2h-4.4c-2.4,0-3.7,.8-3.7,2.5s.3,1.4,.9,1.9c.6,.5,1.5,.7,2.6,.7s2-.2,2.8-.7Z"></path><path class="cls-1" d="M1582.3,646.8c1-.5,2.2-.7,3.6-.7v2.8c-.2,0-.4,0-.7,0-1.6,0-2.8,.5-3.7,1.4-.9,.9-1.3,2.3-1.3,4v7.9h-2.9v-15.9h2.8v2.7c.5-.9,1.2-1.6,2.2-2.1Z"></path><path class="cls-1" d="M1604.5,646.2v13.7c0,2.8-.7,4.8-2.1,6.2s-3.4,2-6.2,2-2.9-.2-4.3-.6c-1.4-.4-2.5-1-3.3-1.8l1.4-2.2c.7,.6,1.7,1.1,2.7,1.5s2.2,.6,3.4,.6c1.9,0,3.2-.4,4.1-1.3,.9-.9,1.3-2.2,1.3-4v-1.3c-.7,.8-1.5,1.4-2.5,1.8-1,.4-2.1,.6-3.2,.6s-2.9-.3-4.1-1c-1.2-.7-2.2-1.6-2.9-2.7s-1-2.5-1-4,.3-2.8,1-4,1.7-2.1,2.9-2.7c1.2-.6,2.6-1,4.1-1s2.3,.2,3.3,.7c1,.4,1.9,1.1,2.5,2v-2.5h2.7Zm-5.5,12.1c.8-.4,1.5-1.1,2-1.8,.5-.8,.7-1.7,.7-2.7,0-1.5-.5-2.8-1.5-3.7-1-.9-2.3-1.4-3.9-1.4s-2.9,.5-4,1.4c-1,1-1.5,2.2-1.5,3.7s.2,1.9,.7,2.7c.5,.8,1.1,1.4,2,1.8,.8,.4,1.8,.7,2.8,.7s2-.2,2.8-.7Z"></path><path class="cls-1" d="M1620.8,647.7c1.2,1.1,1.8,2.7,1.8,4.8v9.6h-2.7v-2.1c-.5,.7-1.2,1.3-2.1,1.7s-1.9,.6-3.2,.6c-1.8,0-3.2-.4-4.3-1.3-1.1-.9-1.6-2-1.6-3.4s.5-2.5,1.5-3.4c1-.8,2.6-1.3,4.9-1.3h4.6v-.6c0-1.2-.4-2.2-1.1-2.8s-1.8-1-3.2-1-1.9,.2-2.8,.5c-.9,.3-1.7,.7-2.3,1.2l-1.2-2.2c.8-.7,1.8-1.2,2.9-1.5,1.1-.3,2.4-.5,3.6-.5,2.2,0,3.9,.5,5.1,1.6Zm-2.9,11.7c.8-.5,1.4-1.2,1.7-2.1v-2.2h-4.4c-2.4,0-3.7,.8-3.7,2.5s.3,1.4,.9,1.9c.6,.5,1.5,.7,2.6,.7s2-.2,2.8-.7Z"></path><path class="cls-1" d="M1630,658.7c.4,.4,.6,.9,.6,1.5s0,.6-.1,.9c0,.3-.2,.7-.4,1.3l-1.4,4.2h-1.9l1.1-4.5c-.4-.1-.7-.4-.9-.7-.2-.3-.3-.7-.3-1.2s.2-1.1,.6-1.5,.9-.6,1.4-.6,1,.2,1.4,.6Z"></path><path class="cls-1" d="M1658.4,659.5v2.6h-15.2v-21h14.8v2.6h-11.8v6.5h10.5v2.5h-10.5v6.8h12.2Z"></path><path class="cls-1" d="M1687.5,647.8c1.2,1.2,1.8,2.9,1.8,5.2v9.2h-2.9v-8.8c0-1.5-.4-2.7-1.1-3.5-.7-.8-1.7-1.2-3-1.2s-2.6,.5-3.5,1.4c-.9,.9-1.3,2.2-1.3,3.9v8.2h-2.9v-8.8c0-1.5-.4-2.7-1.1-3.5-.7-.8-1.7-1.2-3-1.2s-2.6,.5-3.5,1.4c-.9,.9-1.3,2.2-1.3,3.9v8.2h-2.9v-15.9h2.8v2.4c.6-.8,1.3-1.4,2.3-1.9,.9-.4,2-.6,3.2-.6s2.3,.3,3.3,.8,1.7,1.2,2.2,2.2c.6-.9,1.4-1.6,2.5-2.2,1.1-.5,2.3-.8,3.6-.8,2,0,3.6,.6,4.8,1.7Z"></path><path class="cls-1" d="M1705.4,647.7c1.2,1.1,1.8,2.7,1.8,4.8v9.6h-2.7v-2.1c-.5,.7-1.2,1.3-2.1,1.7s-1.9,.6-3.2,.6c-1.8,0-3.2-.4-4.3-1.3-1.1-.9-1.6-2-1.6-3.4s.5-2.5,1.5-3.4c1-.8,2.6-1.3,4.9-1.3h4.6v-.6c0-1.2-.4-2.2-1.1-2.8s-1.8-1-3.2-1-1.9,.2-2.8,.5c-.9,.3-1.7,.7-2.3,1.2l-1.2-2.2c.8-.7,1.8-1.2,2.9-1.5,1.1-.3,2.4-.5,3.6-.5,2.2,0,3.9,.5,5.1,1.6Zm-2.9,11.7c.8-.5,1.4-1.2,1.7-2.1v-2.2h-4.4c-2.4,0-3.7,.8-3.7,2.5s.3,1.4,.9,1.9c.6,.5,1.5,.7,2.6,.7s2-.2,2.8-.7Z"></path><path class="cls-1" d="M1713.3,661.7c-1.2-.3-2.1-.8-2.8-1.3l1.2-2.3c.7,.5,1.5,.9,2.5,1.2,1,.3,2,.4,3,.4,2.5,0,3.8-.7,3.8-2.2s-.2-.9-.5-1.1c-.3-.3-.8-.5-1.3-.6-.5-.1-1.2-.3-2.2-.4-1.3-.2-2.3-.4-3.1-.7-.8-.3-1.5-.7-2.1-1.3s-.9-1.5-.9-2.6,.6-2.6,1.8-3.5,2.8-1.3,4.8-1.3,2.1,.1,3.2,.4c1.1,.3,1.9,.6,2.6,1l-1.2,2.3c-1.3-.8-2.8-1.3-4.6-1.3s-2.2,.2-2.8,.6c-.6,.4-1,.9-1,1.6s.2,.9,.5,1.2c.4,.3,.8,.5,1.3,.7,.5,.1,1.3,.3,2.2,.5,1.3,.2,2.3,.5,3.1,.7s1.5,.7,2,1.3c.6,.6,.8,1.4,.8,2.5s-.6,2.6-1.8,3.4c-1.2,.9-2.9,1.3-5,1.3s-2.5-.2-3.8-.5Z"></path><path class="cls-1" d="M1411,677.1h8.8c2.2,0,4.2,.4,5.9,1.3,1.7,.9,3.1,2.1,4,3.7,.9,1.6,1.4,3.4,1.4,5.5s-.5,3.9-1.4,5.5c-1,1.6-2.3,2.8-4,3.7-1.7,.9-3.7,1.3-5.9,1.3h-8.8v-21Zm8.7,18.4c1.7,0,3.2-.3,4.5-1,1.3-.7,2.3-1.6,3-2.8s1-2.6,1-4.1-.3-2.9-1-4.1-1.7-2.1-3-2.8-2.8-1-4.5-1h-5.7v15.8h5.7Z"></path><path class="cls-1" d="M1446.2,683.7c1.2,1.1,1.8,2.7,1.8,4.8v9.6h-2.7v-2.1c-.5,.7-1.2,1.3-2.1,1.7s-1.9,.6-3.2,.6c-1.8,0-3.2-.4-4.3-1.3-1.1-.9-1.6-2-1.6-3.4s.5-2.5,1.5-3.4c1-.8,2.6-1.3,4.9-1.3h4.6v-.6c0-1.2-.4-2.2-1.1-2.8s-1.8-1-3.2-1-1.9,.2-2.8,.5c-.9,.3-1.7,.7-2.3,1.2l-1.2-2.2c.8-.7,1.8-1.2,2.9-1.5,1.1-.3,2.4-.5,3.6-.5,2.2,0,3.9,.5,5.1,1.6Zm-2.9,11.7c.8-.5,1.4-1.2,1.7-2.1v-2.2h-4.4c-2.4,0-3.7,.8-3.7,2.5s.3,1.4,.9,1.9c.6,.5,1.5,.7,2.6,.7s2-.2,2.8-.7Z"></path><path class="cls-1" d="M1466.6,683.8c1.2,1.2,1.8,2.9,1.8,5.1v9.2h-2.9v-8.8c0-1.5-.4-2.7-1.1-3.5-.7-.8-1.8-1.2-3.2-1.2s-2.8,.5-3.7,1.4c-.9,.9-1.3,2.2-1.3,3.9v8.2h-2.9v-15.9h2.8v2.4c.6-.8,1.4-1.5,2.4-1.9,1-.4,2.1-.7,3.4-.7,2,0,3.6,.6,4.8,1.8Z"></path><path class="cls-1" d="M1483.8,697.6c-1.5-.5-2.6-1.1-3.5-1.9l1.1-2.3c.8,.7,1.8,1.3,3.1,1.8s2.5,.7,3.9,.7,3-.3,3.9-.9c.9-.6,1.3-1.4,1.3-2.4s-.2-1.3-.7-1.8c-.5-.4-1-.8-1.7-1-.7-.2-1.7-.5-2.9-.8-1.6-.4-2.9-.8-3.8-1.1s-1.8-1-2.5-1.8c-.7-.8-1-1.9-1-3.2s.3-2.1,.9-3c.6-.9,1.5-1.6,2.7-2.2,1.2-.5,2.7-.8,4.5-.8s2.5,.2,3.7,.5c1.2,.3,2.2,.8,3.1,1.4l-1,2.4c-.9-.6-1.8-1-2.8-1.3s-2-.4-2.9-.4c-1.7,0-3,.3-3.8,.9-.9,.6-1.3,1.4-1.3,2.4s.2,1.3,.7,1.8c.5,.5,1.1,.8,1.8,1,.7,.3,1.7,.5,2.9,.8,1.6,.4,2.8,.8,3.8,1.1s1.8,1,2.5,1.7c.7,.8,1,1.8,1,3.1s-.3,2.1-.9,3-1.5,1.6-2.7,2.2c-1.2,.5-2.7,.8-4.5,.8s-3.1-.2-4.6-.7Z"></path><path class="cls-1" d="M1515.3,682.2v15.9h-2.7v-2.4c-.6,.8-1.3,1.5-2.3,1.9-1,.5-2,.7-3.1,.7-2.1,0-3.8-.6-5-1.8-1.2-1.2-1.8-2.9-1.8-5.2v-9.2h2.9v8.8c0,1.5,.4,2.7,1.1,3.5,.7,.8,1.8,1.2,3.2,1.2s2.7-.5,3.6-1.4,1.3-2.2,1.3-3.9v-8.2h2.9Z"></path><path class="cls-1" d="M1525.7,682.8c1-.5,2.2-.7,3.6-.7v2.8c-.2,0-.4,0-.7,0-1.6,0-2.8,.5-3.7,1.4-.9,.9-1.3,2.3-1.3,4v7.9h-2.9v-15.9h2.8v2.7c.5-.9,1.2-1.6,2.2-2.1Z"></path><path class="cls-1" d="M1543.7,683.7c1.2,1.1,1.8,2.7,1.8,4.8v9.6h-2.7v-2.1c-.5,.7-1.2,1.3-2.1,1.7s-1.9,.6-3.2,.6c-1.8,0-3.2-.4-4.3-1.3-1.1-.9-1.6-2-1.6-3.4s.5-2.5,1.5-3.4c1-.8,2.6-1.3,4.9-1.3h4.6v-.6c0-1.2-.4-2.2-1.1-2.8s-1.8-1-3.2-1-1.9,.2-2.8,.5c-.9,.3-1.7,.7-2.3,1.2l-1.2-2.2c.8-.7,1.8-1.2,2.9-1.5,1.1-.3,2.4-.5,3.6-.5,2.2,0,3.9,.5,5.1,1.6Zm-2.9,11.7c.8-.5,1.4-1.2,1.7-2.1v-2.2h-4.4c-2.4,0-3.7,.8-3.7,2.5s.3,1.4,.9,1.9c.6,.5,1.5,.7,2.6,.7s2-.2,2.8-.7Z"></path><path class="cls-1" d="M1559.7,697.2c-.4,.4-.9,.6-1.6,.8-.6,.2-1.3,.3-1.9,.3-1.6,0-2.8-.4-3.7-1.3-.9-.9-1.3-2.1-1.3-3.7v-8.7h-2.7v-2.4h2.7v-3.5h2.9v3.5h4.6v2.4h-4.6v8.6c0,.9,.2,1.5,.6,2,.4,.5,1,.7,1.8,.7s1.6-.3,2.3-.8l.9,2.1Z"></path><path class="cls-1" d="M1588.7,689c.7,.9,1,2,1,3.4s-.7,3.2-2.1,4.2c-1.4,1-3.4,1.5-6,1.5h-10v-21h9.4c2.4,0,4.3,.5,5.6,1.4s2,2.3,2,4-.3,2.1-.8,2.8c-.5,.8-1.2,1.4-2.1,1.8,1.2,.3,2.2,1,2.9,1.8Zm-14-9.5v6.7h6.1c1.5,0,2.7-.3,3.6-.9,.8-.6,1.2-1.4,1.2-2.5s-.4-1.9-1.2-2.5c-.8-.6-2-.9-3.6-.9h-6.1Zm10.7,15.3c.9-.6,1.3-1.4,1.3-2.6,0-2.3-1.7-3.5-5.1-3.5h-6.9v7h6.9c1.7,0,3-.3,3.8-.8Z"></path><path class="cls-1" d="M1608.3,691.1h-12.9c.2,1.4,.8,2.5,1.8,3.4,1,.9,2.4,1.3,3.9,1.3s3.4-.6,4.6-1.9l1.6,1.9c-.7,.8-1.6,1.5-2.7,1.9-1.1,.4-2.3,.7-3.6,.7s-3.2-.3-4.5-1c-1.3-.7-2.3-1.7-3-2.9s-1.1-2.6-1.1-4.2,.3-2.9,1-4.2c.7-1.2,1.6-2.2,2.8-2.9,1.2-.7,2.6-1,4.1-1s2.9,.3,4.1,1c1.2,.7,2.1,1.7,2.8,2.9s1,2.7,1,4.3,0,.5,0,.9Zm-11.3-5.4c-.9,.8-1.5,1.9-1.6,3.3h10.2c-.2-1.3-.7-2.4-1.6-3.3-.9-.8-2.1-1.3-3.5-1.3s-2.5,.4-3.5,1.3Z"></path><path class="cls-1" d="M1617.3,682.8c1-.5,2.2-.7,3.6-.7v2.8c-.2,0-.4,0-.7,0-1.6,0-2.8,.5-3.7,1.4-.9,.9-1.3,2.3-1.3,4v7.9h-2.9v-15.9h2.8v2.7c.5-.9,1.2-1.6,2.2-2.1Z"></path><path class="cls-1" d="M1637.7,683.8c1.2,1.2,1.8,2.9,1.8,5.1v9.2h-2.9v-8.8c0-1.5-.4-2.7-1.1-3.5-.7-.8-1.8-1.2-3.2-1.2s-2.8,.5-3.7,1.4c-.9,.9-1.3,2.2-1.3,3.9v8.2h-2.9v-22.3h2.9v8.6c.6-.8,1.4-1.3,2.4-1.8s2.1-.6,3.3-.6c2,0,3.6,.6,4.8,1.8Z"></path><path class="cls-1" d="M1655.7,683.7c1.2,1.1,1.8,2.7,1.8,4.8v9.6h-2.7v-2.1c-.5,.7-1.2,1.3-2.1,1.7s-1.9,.6-3.2,.6c-1.8,0-3.2-.4-4.3-1.3-1.1-.9-1.6-2-1.6-3.4s.5-2.5,1.5-3.4c1-.8,2.6-1.3,4.9-1.3h4.6v-.6c0-1.2-.4-2.2-1.1-2.8s-1.8-1-3.2-1-1.9,.2-2.8,.5c-.9,.3-1.7,.7-2.3,1.2l-1.2-2.2c.8-.7,1.8-1.2,2.9-1.5,1.1-.3,2.4-.5,3.6-.5,2.2,0,3.9,.5,5.1,1.6Zm-2.9,11.7c.8-.5,1.4-1.2,1.7-2.1v-2.2h-4.4c-2.4,0-3.7,.8-3.7,2.5s.3,1.4,.9,1.9c.6,.5,1.5,.7,2.6,.7s2-.2,2.8-.7Z"></path><path class="cls-1" d="M1667.7,682.8c1-.5,2.2-.7,3.6-.7v2.8c-.2,0-.4,0-.7,0-1.6,0-2.8,.5-3.7,1.4-.9,.9-1.3,2.3-1.3,4v7.9h-2.9v-15.9h2.8v2.7c.5-.9,1.2-1.6,2.2-2.1Z"></path><path class="cls-1" d="M1689.9,682.2v13.7c0,2.8-.7,4.8-2.1,6.2s-3.4,2-6.2,2-2.9-.2-4.3-.6c-1.4-.4-2.5-1-3.3-1.8l1.4-2.2c.7,.6,1.7,1.1,2.7,1.5s2.2,.6,3.4,.6c1.9,0,3.2-.4,4.1-1.3,.9-.9,1.3-2.2,1.3-4v-1.3c-.7,.8-1.5,1.4-2.5,1.8-1,.4-2.1,.6-3.2,.6s-2.9-.3-4.1-1c-1.2-.7-2.2-1.6-2.9-2.7s-1-2.5-1-4,.3-2.8,1-4,1.7-2.1,2.9-2.7c1.2-.6,2.6-1,4.1-1s2.3,.2,3.3,.7c1,.4,1.9,1.1,2.5,2v-2.5h2.7Zm-5.5,12.1c.8-.4,1.5-1.1,2-1.8,.5-.8,.7-1.7,.7-2.7,0-1.5-.5-2.8-1.5-3.7-1-.9-2.3-1.4-3.9-1.4s-2.9,.5-4,1.4c-1,1-1.5,2.2-1.5,3.7s.2,1.9,.7,2.7c.5,.8,1.1,1.4,2,1.8,.8,.4,1.8,.7,2.8,.7s2-.2,2.8-.7Z"></path><path class="cls-1" d="M1706.3,683.7c1.2,1.1,1.8,2.7,1.8,4.8v9.6h-2.7v-2.1c-.5,.7-1.2,1.3-2.1,1.7s-1.9,.6-3.2,.6c-1.8,0-3.2-.4-4.3-1.3-1.1-.9-1.6-2-1.6-3.4s.5-2.5,1.5-3.4c1-.8,2.6-1.3,4.9-1.3h4.6v-.6c0-1.2-.4-2.2-1.1-2.8s-1.8-1-3.2-1-1.9,.2-2.8,.5c-.9,.3-1.7,.7-2.3,1.2l-1.2-2.2c.8-.7,1.8-1.2,2.9-1.5,1.1-.3,2.4-.5,3.6-.5,2.2,0,3.9,.5,5.1,1.6Zm-2.9,11.7c.8-.5,1.4-1.2,1.7-2.1v-2.2h-4.4c-2.4,0-3.7,.8-3.7,2.5s.3,1.4,.9,1.9c.6,.5,1.5,.7,2.6,.7s2-.2,2.8-.7Z"></path><path class="cls-1" d="M1502.9,713.1h3v18.4h11.4v2.6h-14.4v-21Z"></path><path class="cls-1" d="M1531.2,719.7c1.2,1.1,1.8,2.7,1.8,4.8v9.6h-2.7v-2.1c-.5,.7-1.2,1.3-2.1,1.7s-1.9,.6-3.2,.6c-1.8,0-3.2-.4-4.3-1.3-1.1-.9-1.6-2-1.6-3.4s.5-2.5,1.5-3.4c1-.8,2.6-1.3,4.9-1.3h4.6v-.6c0-1.2-.4-2.2-1.1-2.8s-1.8-1-3.2-1-1.9,.2-2.8,.5c-.9,.3-1.7,.7-2.3,1.2l-1.2-2.2c.8-.7,1.8-1.2,2.9-1.5,1.1-.3,2.4-.5,3.6-.5,2.2,0,3.9,.5,5.1,1.6Zm-2.9,11.7c.8-.5,1.4-1.2,1.7-2.1v-2.2h-4.4c-2.4,0-3.7,.8-3.7,2.5s.3,1.4,.9,1.9c.6,.5,1.5,.7,2.6,.7s2-.2,2.8-.7Z"></path><path class="cls-1" d="M1538.4,714.6c-.4-.4-.6-.8-.6-1.3s.2-1,.6-1.3c.4-.4,.8-.6,1.4-.6s1,.2,1.4,.5c.4,.4,.6,.8,.6,1.3s-.2,1-.6,1.4-.8,.6-1.4,.6-1-.2-1.4-.5Zm0,3.6h2.9v15.9h-2.9v-15.9Z"></path><path class="cls-1" d="M1560,719.8c1.2,1.2,1.8,2.9,1.8,5.1v9.2h-2.9v-8.8c0-1.5-.4-2.7-1.1-3.5-.7-.8-1.8-1.2-3.2-1.2s-2.8,.5-3.7,1.4c-.9,.9-1.3,2.2-1.3,3.9v8.2h-2.9v-15.9h2.8v2.4c.6-.8,1.4-1.5,2.4-1.9,1-.4,2.1-.7,3.4-.7,2,0,3.6,.6,4.8,1.8Z"></path><path class="cls-1" d="M1580.4,719.8c1.2,1.2,1.8,2.9,1.8,5.1v9.2h-2.9v-8.8c0-1.5-.4-2.7-1.1-3.5-.7-.8-1.8-1.2-3.2-1.2s-2.8,.5-3.7,1.4c-.9,.9-1.3,2.2-1.3,3.9v8.2h-2.9v-15.9h2.8v2.4c.6-.8,1.4-1.5,2.4-1.9,1-.4,2.1-.7,3.4-.7,2,0,3.6,.6,4.8,1.8Z"></path><path class="cls-1" d="M1601.3,718.2l-7.7,17.5c-.7,1.6-1.5,2.8-2.4,3.4s-2,1-3.3,1-1.5-.1-2.3-.4c-.7-.3-1.3-.6-1.8-1.1l1.2-2.2c.8,.8,1.8,1.2,2.8,1.2s1.3-.2,1.8-.6,.9-1,1.3-1.9l.5-1.1-7-15.9h3l5.5,12.7,5.5-12.7h2.8Z"></path><path class="cls-1" d="M1614.4,719.7c1.2,1.1,1.8,2.7,1.8,4.8v9.6h-2.7v-2.1c-.5,.7-1.2,1.3-2.1,1.7s-1.9,.6-3.2,.6c-1.8,0-3.2-.4-4.3-1.3-1.1-.9-1.6-2-1.6-3.4s.5-2.5,1.5-3.4c1-.8,2.6-1.3,4.9-1.3h4.6v-.6c0-1.2-.4-2.2-1.1-2.8s-1.8-1-3.2-1-1.9,.2-2.8,.5c-.9,.3-1.7,.7-2.3,1.2l-1.2-2.2c.8-.7,1.8-1.2,2.9-1.5,1.1-.3,2.4-.5,3.6-.5,2.2,0,3.9,.5,5.1,1.6Zm-2.9,11.7c.8-.5,1.4-1.2,1.7-2.1v-2.2h-4.4c-2.4,0-3.7,.8-3.7,2.5s.3,1.4,.9,1.9c.6,.5,1.5,.7,2.6,.7s2-.2,2.8-.7Z"></path><path class="cls-1" d="M1383.3,769.6c-.6-2.4-.9-5-.9-7.7s.3-5.3,.9-7.7c.6-2.4,1.5-4.5,2.6-6.3h2.7c-1.2,2.1-2.1,4.3-2.6,6.6s-.8,4.8-.8,7.4,.3,5.1,.8,7.4,1.4,4.5,2.6,6.6h-2.7c-1.1-1.8-2-4-2.6-6.3Z"></path><path class="cls-1" d="M1394.3,769.6c-1.5-.5-2.6-1.1-3.5-1.9l1.1-2.3c.8,.7,1.8,1.3,3.1,1.8s2.5,.7,3.9,.7,3-.3,3.9-.9c.9-.6,1.3-1.4,1.3-2.4s-.2-1.3-.7-1.8c-.5-.4-1-.8-1.7-1-.7-.2-1.7-.5-2.9-.8-1.6-.4-2.9-.8-3.8-1.1s-1.8-1-2.5-1.8c-.7-.8-1-1.9-1-3.2s.3-2.1,.9-3c.6-.9,1.5-1.6,2.7-2.2,1.2-.5,2.7-.8,4.5-.8s2.5,.2,3.7,.5c1.2,.3,2.2,.8,3.1,1.4l-1,2.4c-.9-.6-1.8-1-2.8-1.3s-2-.4-2.9-.4c-1.7,0-3,.3-3.8,.9-.9,.6-1.3,1.4-1.3,2.4s.2,1.3,.7,1.8c.5,.5,1.1,.8,1.8,1,.7,.3,1.7,.5,2.9,.8,1.6,.4,2.8,.8,3.8,1.1s1.8,1,2.5,1.7c.7,.8,1,1.8,1,3.1s-.3,2.1-.9,3-1.5,1.6-2.7,2.2c-1.2,.5-2.7,.8-4.5,.8s-3.1-.2-4.6-.7Z"></path><path class="cls-1" d="M1428.4,761c.7,.9,1,2,1,3.4s-.7,3.2-2.1,4.2c-1.4,1-3.4,1.5-6,1.5h-10v-21h9.4c2.4,0,4.3,.5,5.6,1.4s2,2.3,2,4-.3,2.1-.8,2.8c-.5,.8-1.2,1.4-2.1,1.8,1.2,.3,2.2,1,2.9,1.8Zm-14-9.5v6.7h6.1c1.5,0,2.7-.3,3.6-.9,.8-.6,1.2-1.4,1.2-2.5s-.4-1.9-1.2-2.5c-.8-.6-2-.9-3.6-.9h-6.1Zm10.7,15.3c.9-.6,1.3-1.4,1.3-2.6,0-2.3-1.7-3.5-5.1-3.5h-6.9v7h6.9c1.7,0,3-.3,3.8-.8Z"></path><path class="cls-1" d="M1435.6,769.6c-1.5-.5-2.6-1.1-3.5-1.9l1.1-2.3c.8,.7,1.8,1.3,3.1,1.8s2.5,.7,3.9,.7,3-.3,3.9-.9c.9-.6,1.3-1.4,1.3-2.4s-.2-1.3-.7-1.8c-.5-.4-1-.8-1.7-1-.7-.2-1.7-.5-2.9-.8-1.6-.4-2.9-.8-3.8-1.1s-1.8-1-2.5-1.8c-.7-.8-1-1.9-1-3.2s.3-2.1,.9-3c.6-.9,1.5-1.6,2.7-2.2,1.2-.5,2.7-.8,4.5-.8s2.5,.2,3.7,.5c1.2,.3,2.2,.8,3.1,1.4l-1,2.4c-.9-.6-1.8-1-2.8-1.3s-2-.4-2.9-.4c-1.7,0-3,.3-3.8,.9-.9,.6-1.3,1.4-1.3,2.4s.2,1.3,.7,1.8c.5,.5,1.1,.8,1.8,1,.7,.3,1.7,.5,2.9,.8,1.6,.4,2.8,.8,3.8,1.1s1.8,1,2.5,1.7c.7,.8,1,1.8,1,3.1s-.3,2.1-.9,3-1.5,1.6-2.7,2.2c-1.2,.5-2.7,.8-4.5,.8s-3.1-.2-4.6-.7Z"></path><path class="cls-1" d="M1470.8,749.1v21h-2.5l-12.6-15.7v15.7h-3v-21h2.5l12.6,15.7v-15.7h3Z"></path><path class="cls-1" d="M1483,744.8h2.6l-9.9,28.3h-2.6l9.9-28.3Z"></path><path class="cls-1" d="M1488.6,769.6c-1.5-.5-2.6-1.1-3.5-1.9l1.1-2.3c.8,.7,1.8,1.3,3.1,1.8s2.5,.7,3.9,.7,3-.3,3.9-.9c.9-.6,1.3-1.4,1.3-2.4s-.2-1.3-.7-1.8c-.5-.4-1-.8-1.7-1-.7-.2-1.7-.5-2.9-.8-1.6-.4-2.9-.8-3.8-1.1s-1.8-1-2.5-1.8c-.7-.8-1-1.9-1-3.2s.3-2.1,.9-3c.6-.9,1.5-1.6,2.7-2.2,1.2-.5,2.7-.8,4.5-.8s2.5,.2,3.7,.5c1.2,.3,2.2,.8,3.1,1.4l-1,2.4c-.9-.6-1.8-1-2.8-1.3s-2-.4-2.9-.4c-1.7,0-3,.3-3.8,.9-.9,.6-1.3,1.4-1.3,2.4s.2,1.3,.7,1.8c.5,.5,1.1,.8,1.8,1,.7,.3,1.7,.5,2.9,.8,1.6,.4,2.8,.8,3.8,1.1s1.8,1,2.5,1.7c.7,.8,1,1.8,1,3.1s-.3,2.1-.9,3-1.5,1.6-2.7,2.2c-1.2,.5-2.7,.8-4.5,.8s-3.1-.2-4.6-.7Z"></path><path class="cls-1" d="M1505.7,749.1h8.8c2.2,0,4.2,.4,5.9,1.3,1.7,.9,3.1,2.1,4,3.7,.9,1.6,1.4,3.4,1.4,5.5s-.5,3.9-1.4,5.5c-1,1.6-2.3,2.8-4,3.7-1.7,.9-3.7,1.3-5.9,1.3h-8.8v-21Zm8.7,18.4c1.7,0,3.2-.3,4.5-1,1.3-.7,2.3-1.6,3-2.8s1-2.6,1-4.1-.3-2.9-1-4.1-1.7-2.1-3-2.8-2.8-1-4.5-1h-5.7v15.8h5.7Z"></path><path class="cls-1" d="M1548.5,749.1v21h-3v-9.4h-12.1v9.4h-3v-21h3v9h12.1v-9h3Z"></path><path class="cls-1" d="M1554.8,749.1h3v21h-3v-21Z"></path><path class="cls-1" d="M1562.7,760.6h8.1v2.5h-8.1v-2.5Z"></path><path class="cls-1" d="M1590.2,751c1.6,1.3,2.3,3.1,2.3,5.4s-.8,4.1-2.3,5.4c-1.6,1.3-3.7,2-6.4,2h-5.2v6.4h-3v-21h8.2c2.7,0,4.9,.7,6.4,2Zm-2.2,8.9c1-.8,1.5-2,1.5-3.5s-.5-2.7-1.5-3.5c-1-.8-2.5-1.2-4.3-1.2h-5.1v9.4h5.1c1.9,0,3.3-.4,4.3-1.2Z"></path><path class="cls-1" d="M1614,761c.7,.9,1,2,1,3.4s-.7,3.2-2.1,4.2c-1.4,1-3.4,1.5-6,1.5h-10v-21h9.4c2.4,0,4.3,.5,5.6,1.4s2,2.3,2,4-.3,2.1-.8,2.8c-.5,.8-1.2,1.4-2.1,1.8,1.2,.3,2.2,1,2.9,1.8Zm-14-9.5v6.7h6.1c1.5,0,2.7-.3,3.6-.9,.8-.6,1.2-1.4,1.2-2.5s-.4-1.9-1.2-2.5c-.8-.6-2-.9-3.6-.9h-6.1Zm10.7,15.3c.9-.6,1.3-1.4,1.3-2.6,0-2.3-1.7-3.5-5.1-3.5h-6.9v7h6.9c1.7,0,3-.3,3.8-.8Z"></path><path class="cls-1" d="M1621.2,769.6c-1.5-.5-2.6-1.1-3.5-1.9l1.1-2.3c.8,.7,1.8,1.3,3.1,1.8s2.5,.7,3.9,.7,3-.3,3.9-.9c.9-.6,1.3-1.4,1.3-2.4s-.2-1.3-.7-1.8c-.5-.4-1-.8-1.7-1-.7-.2-1.7-.5-2.9-.8-1.6-.4-2.9-.8-3.8-1.1s-1.8-1-2.5-1.8c-.7-.8-1-1.9-1-3.2s.3-2.1,.9-3c.6-.9,1.5-1.6,2.7-2.2,1.2-.5,2.7-.8,4.5-.8s2.5,.2,3.7,.5c1.2,.3,2.2,.8,3.1,1.4l-1,2.4c-.9-.6-1.8-1-2.8-1.3s-2-.4-2.9-.4c-1.7,0-3,.3-3.8,.9-.9,.6-1.3,1.4-1.3,2.4s.2,1.3,.7,1.8c.5,.5,1.1,.8,1.8,1,.7,.3,1.7,.5,2.9,.8,1.6,.4,2.8,.8,3.8,1.1s1.8,1,2.5,1.7c.7,.8,1,1.8,1,3.1s-.3,2.1-.9,3-1.5,1.6-2.7,2.2c-1.2,.5-2.7,.8-4.5,.8s-3.1-.2-4.6-.7Z"></path><path class="cls-1" d="M1640.6,766.7c.4,.4,.6,.9,.6,1.5s0,.6-.1,.9c0,.3-.2,.7-.4,1.3l-1.4,4.2h-1.9l1.1-4.5c-.4-.1-.7-.4-.9-.7-.2-.3-.3-.7-.3-1.2s.2-1.1,.6-1.5,.9-.6,1.4-.6,1,.2,1.4,.6Z"></path><path class="cls-1" d="M1667.8,770.1l-4.5-6.5c-.6,0-1,0-1.3,0h-5.2v6.4h-3v-21h8.2c2.7,0,4.9,.7,6.4,2,1.6,1.3,2.3,3.1,2.3,5.4s-.4,3-1.2,4.1c-.8,1.1-1.9,2-3.4,2.5l5,7h-3.3Zm-1.6-10.2c1-.8,1.5-2,1.5-3.5s-.5-2.7-1.5-3.5c-1-.8-2.5-1.2-4.3-1.2h-5.1v9.5h5.1c1.9,0,3.3-.4,4.3-1.2Z"></path><path class="cls-1" d="M1675.6,749.1h8.8c2.2,0,4.2,.4,5.9,1.3,1.7,.9,3.1,2.1,4,3.7,.9,1.6,1.4,3.4,1.4,5.5s-.5,3.9-1.4,5.5c-1,1.6-2.3,2.8-4,3.7-1.7,.9-3.7,1.3-5.9,1.3h-8.8v-21Zm8.7,18.4c1.7,0,3.2-.3,4.5-1,1.3-.7,2.3-1.6,3-2.8s1-2.6,1-4.1-.3-2.9-1-4.1-1.7-2.1-3-2.8-2.8-1-4.5-1h-5.7v15.8h5.7Z"></path><path class="cls-1" d="M1701.9,769.6c-1.5-.5-2.6-1.1-3.5-1.9l1.1-2.3c.8,.7,1.8,1.3,3.1,1.8s2.5,.7,3.9,.7,3-.3,3.9-.9c.9-.6,1.3-1.4,1.3-2.4s-.2-1.3-.7-1.8c-.5-.4-1-.8-1.7-1-.7-.2-1.7-.5-2.9-.8-1.6-.4-2.9-.8-3.8-1.1s-1.8-1-2.5-1.8c-.7-.8-1-1.9-1-3.2s.3-2.1,.9-3c.6-.9,1.5-1.6,2.7-2.2,1.2-.5,2.7-.8,4.5-.8s2.5,.2,3.7,.5c1.2,.3,2.2,.8,3.1,1.4l-1,2.4c-.9-.6-1.8-1-2.8-1.3s-2-.4-2.9-.4c-1.7,0-3,.3-3.8,.9-.9,.6-1.3,1.4-1.3,2.4s.2,1.3,.7,1.8c.5,.5,1.1,.8,1.8,1,.7,.3,1.7,.5,2.9,.8,1.6,.4,2.8,.8,3.8,1.1s1.8,1,2.5,1.7c.7,.8,1,1.8,1,3.1s-.3,2.1-.9,3-1.5,1.6-2.7,2.2c-1.2,.5-2.7,.8-4.5,.8s-3.1-.2-4.6-.7Z"></path><path class="cls-1" d="M1722.9,751.7h-7.2v-2.6h17.4v2.6h-7.2v18.4h-3v-18.4Z"></path><path class="cls-1" d="M1737,766.7c.4,.4,.6,.9,.6,1.5s0,.6-.1,.9c0,.3-.2,.7-.4,1.3l-1.4,4.2h-1.9l1.1-4.5c-.4-.1-.7-.4-.9-.7-.2-.3-.3-.7-.3-1.2s.2-1.1,.6-1.5,.9-.6,1.4-.6,1,.2,1.4,.6Z"></path><path class="cls-1" d="M1431,805.6c-1.5-.5-2.6-1.1-3.5-1.9l1.1-2.3c.8,.7,1.8,1.3,3.1,1.8s2.5,.7,3.9,.7,3-.3,3.9-.9c.9-.6,1.3-1.4,1.3-2.4s-.2-1.3-.7-1.8c-.5-.4-1-.8-1.7-1-.7-.2-1.7-.5-2.9-.8-1.6-.4-2.9-.8-3.8-1.1s-1.8-1-2.5-1.8c-.7-.8-1-1.9-1-3.2s.3-2.1,.9-3c.6-.9,1.5-1.6,2.7-2.2,1.2-.5,2.7-.8,4.5-.8s2.5,.2,3.7,.5c1.2,.3,2.2,.8,3.1,1.4l-1,2.4c-.9-.6-1.8-1-2.8-1.3s-2-.4-2.9-.4c-1.7,0-3,.3-3.8,.9-.9,.6-1.3,1.4-1.3,2.4s.2,1.3,.7,1.8c.5,.5,1.1,.8,1.8,1,.7,.3,1.7,.5,2.9,.8,1.6,.4,2.8,.8,3.8,1.1s1.8,1,2.5,1.7c.7,.8,1,1.8,1,3.1s-.3,2.1-.9,3-1.5,1.6-2.7,2.2c-1.2,.5-2.7,.8-4.5,.8s-3.1-.2-4.6-.7Z"></path><path class="cls-1" d="M1462.5,790.2v15.9h-2.7v-2.4c-.6,.8-1.3,1.5-2.3,1.9-1,.5-2,.7-3.1,.7-2.1,0-3.8-.6-5-1.8-1.2-1.2-1.8-2.9-1.8-5.2v-9.2h2.9v8.8c0,1.5,.4,2.7,1.1,3.5,.7,.8,1.8,1.2,3.2,1.2s2.7-.5,3.6-1.4,1.3-2.2,1.3-3.9v-8.2h2.9Z"></path><path class="cls-1" d="M1474.2,798.7l-3.3,3.1v4.4h-2.9v-22.3h2.9v14.3l8.7-7.9h3.5l-6.7,6.6,7.3,9.3h-3.5l-6-7.4Z"></path><path class="cls-1" d="M1501,790.2v15.9h-2.7v-2.4c-.6,.8-1.3,1.5-2.3,1.9-1,.5-2,.7-3.1,.7-2.1,0-3.8-.6-5-1.8-1.2-1.2-1.8-2.9-1.8-5.2v-9.2h2.9v8.8c0,1.5,.4,2.7,1.1,3.5,.7,.8,1.8,1.2,3.2,1.2s2.7-.5,3.6-1.4,1.3-2.2,1.3-3.9v-8.2h2.9Z"></path><path class="cls-1" d="M1512.6,798.7l-3.3,3.1v4.4h-2.9v-22.3h2.9v14.3l8.7-7.9h3.5l-6.7,6.6,7.3,9.3h-3.5l-6-7.4Z"></path><path class="cls-1" d="M1540.3,796.8l-3.8,3.9v5.4h-3v-21h3v11.7l11.4-11.7h3.4l-9,9.5,9.5,11.5h-3.5l-8-9.3Z"></path><path class="cls-1" d="M1556.4,805.2c-1.3-.7-2.2-1.7-3-2.9-.7-1.2-1.1-2.6-1.1-4.2s.4-3,1.1-4.2c.7-1.2,1.7-2.2,3-2.9,1.3-.7,2.7-1,4.3-1s3,.3,4.2,1c1.3,.7,2.2,1.7,2.9,2.9,.7,1.2,1.1,2.6,1.1,4.2s-.4,3-1.1,4.2c-.7,1.2-1.7,2.2-2.9,2.9s-2.7,1-4.2,1-3-.3-4.3-1Zm7-2.2c.8-.5,1.4-1.1,1.9-2,.5-.8,.7-1.8,.7-2.9s-.2-2.1-.7-2.9c-.5-.8-1.1-1.5-1.9-2-.8-.5-1.7-.7-2.7-.7s-1.9,.2-2.7,.7c-.8,.5-1.5,1.1-1.9,2s-.7,1.8-.7,2.9,.2,2.1,.7,2.9c.5,.9,1.1,1.5,1.9,2,.8,.5,1.7,.7,2.7,.7s1.9-.2,2.7-.7Z"></path><path class="cls-1" d="M1577.9,790.8c1-.5,2.2-.7,3.6-.7v2.8c-.2,0-.4,0-.7,0-1.6,0-2.8,.5-3.7,1.4-.9,.9-1.3,2.3-1.3,4v7.9h-2.9v-15.9h2.8v2.7c.5-.9,1.2-1.6,2.2-2.1Z"></path><path class="cls-1" d="M1597.6,791.1c1.2,.7,2.2,1.6,2.9,2.8,.7,1.2,1,2.6,1,4.2s-.3,3-1,4.2c-.7,1.2-1.6,2.2-2.9,2.9s-2.6,1-4.1,1-2.2-.2-3.1-.7c-1-.4-1.8-1.1-2.4-1.9v8.2h-2.9v-21.7h2.8v2.5c.6-.9,1.4-1.5,2.4-2,1-.5,2.1-.7,3.2-.7s2.9,.3,4.1,1Zm-1.6,12c.8-.5,1.5-1.1,1.9-2,.5-.8,.7-1.8,.7-2.9s-.2-2.1-.7-2.9-1.1-1.5-1.9-2-1.7-.7-2.7-.7-1.9,.2-2.7,.7c-.8,.5-1.5,1.1-1.9,2-.5,.8-.7,1.8-.7,2.9s.2,2.1,.7,2.9c.5,.9,1.1,1.5,1.9,2,.8,.5,1.7,.7,2.7,.7s1.9-.2,2.7-.7Z"></path><path class="cls-1" d="M1608,805.2c-1.3-.7-2.2-1.7-3-2.9-.7-1.2-1.1-2.6-1.1-4.2s.4-3,1.1-4.2c.7-1.2,1.7-2.2,3-2.9,1.3-.7,2.7-1,4.3-1s3,.3,4.2,1c1.3,.7,2.2,1.7,2.9,2.9,.7,1.2,1.1,2.6,1.1,4.2s-.4,3-1.1,4.2c-.7,1.2-1.7,2.2-2.9,2.9s-2.7,1-4.2,1-3-.3-4.3-1Zm7-2.2c.8-.5,1.4-1.1,1.9-2,.5-.8,.7-1.8,.7-2.9s-.2-2.1-.7-2.9c-.5-.8-1.1-1.5-1.9-2-.8-.5-1.7-.7-2.7-.7s-1.9,.2-2.7,.7c-.8,.5-1.5,1.1-1.9,2s-.7,1.8-.7,2.9,.2,2.1,.7,2.9c.5,.9,1.1,1.5,1.9,2,.8,.5,1.7,.7,2.7,.7s1.9-.2,2.7-.7Z"></path><path class="cls-1" d="M1629.5,790.8c1-.5,2.2-.7,3.6-.7v2.8c-.2,0-.4,0-.7,0-1.6,0-2.8,.5-3.7,1.4-.9,.9-1.3,2.3-1.3,4v7.9h-2.9v-15.9h2.8v2.7c.5-.9,1.2-1.6,2.2-2.1Z"></path><path class="cls-1" d="M1647.5,791.7c1.2,1.1,1.8,2.7,1.8,4.8v9.6h-2.7v-2.1c-.5,.7-1.2,1.3-2.1,1.7s-1.9,.6-3.2,.6c-1.8,0-3.2-.4-4.3-1.3-1.1-.9-1.6-2-1.6-3.4s.5-2.5,1.5-3.4c1-.8,2.6-1.3,4.9-1.3h4.6v-.6c0-1.2-.4-2.2-1.1-2.8s-1.8-1-3.2-1-1.9,.2-2.8,.5c-.9,.3-1.7,.7-2.3,1.2l-1.2-2.2c.8-.7,1.8-1.2,2.9-1.5,1.1-.3,2.4-.5,3.6-.5,2.2,0,3.9,.5,5.1,1.6Zm-2.9,11.7c.8-.5,1.4-1.2,1.7-2.1v-2.2h-4.4c-2.4,0-3.7,.8-3.7,2.5s.3,1.4,.9,1.9c.6,.5,1.5,.7,2.6,.7s2-.2,2.8-.7Z"></path><path class="cls-1" d="M1655.4,805.7c-1.2-.3-2.1-.8-2.8-1.3l1.2-2.3c.7,.5,1.5,.9,2.5,1.2,1,.3,2,.4,3,.4,2.5,0,3.8-.7,3.8-2.2s-.2-.9-.5-1.1c-.3-.3-.8-.5-1.3-.6-.5-.1-1.2-.3-2.2-.4-1.3-.2-2.3-.4-3.1-.7-.8-.3-1.5-.7-2.1-1.3s-.9-1.5-.9-2.6,.6-2.6,1.8-3.5,2.8-1.3,4.8-1.3,2.1,.1,3.2,.4c1.1,.3,1.9,.6,2.6,1l-1.2,2.3c-1.3-.8-2.8-1.3-4.6-1.3s-2.2,.2-2.8,.6c-.6,.4-1,.9-1,1.6s.2,.9,.5,1.2c.4,.3,.8,.5,1.3,.7,.5,.1,1.3,.3,2.2,.5,1.3,.2,2.3,.5,3.1,.7s1.5,.7,2,1.3c.6,.6,.8,1.4,.8,2.5s-.6,2.6-1.8,3.4c-1.2,.9-2.9,1.3-5,1.3s-2.5-.2-3.8-.5Z"></path><path class="cls-1" d="M1669.6,786.6c-.4-.4-.6-.8-.6-1.3s.2-1,.6-1.3c.4-.4,.8-.6,1.4-.6s1,.2,1.4,.5c.4,.4,.6,.8,.6,1.3s-.2,1-.6,1.4-.8,.6-1.4,.6-1-.2-1.4-.5Zm0,3.6h2.9v15.9h-2.9v-15.9Z"></path><path class="cls-1" d="M1676.2,811.9c1.2-2.1,2.1-4.3,2.7-6.6,.6-2.3,.9-4.8,.9-7.4s-.3-5.1-.9-7.4c-.6-2.3-1.5-4.5-2.7-6.6h2.7c1.2,1.8,2,3.9,2.7,6.3,.6,2.4,.9,5,.9,7.7s-.3,5.3-.9,7.7c-.6,2.4-1.5,4.5-2.7,6.3h-2.7Z"></path><path class="cls-1" d="M1690.2,802.7c.4,.4,.6,.9,.6,1.5s0,.6-.1,.9c0,.3-.2,.7-.4,1.3l-1.4,4.2h-1.9l1.1-4.5c-.4-.1-.7-.4-.9-.7-.2-.3-.3-.7-.3-1.2s.2-1.1,.6-1.5,.9-.6,1.4-.6,1,.2,1.4,.6Z"></path><path class="cls-1" d="M1499.5,842.1l-4.5-6.5c-.6,0-1,0-1.3,0h-5.2v6.4h-3v-21h8.2c2.7,0,4.9,.7,6.4,2,1.6,1.3,2.3,3.1,2.3,5.4s-.4,3-1.2,4.1c-.8,1.1-1.9,2-3.4,2.5l5,7h-3.3Zm-1.6-10.2c1-.8,1.5-2,1.5-3.5s-.5-2.7-1.5-3.5c-1-.8-2.5-1.2-4.3-1.2h-5.1v9.5h5.1c1.9,0,3.3-.4,4.3-1.2Z"></path><path class="cls-1" d="M1519.4,827.1c1.2,.7,2.2,1.6,2.9,2.8,.7,1.2,1,2.6,1,4.2s-.3,3-1,4.2c-.7,1.2-1.6,2.2-2.9,2.9s-2.6,1-4.1,1-2.2-.2-3.1-.7c-1-.4-1.8-1.1-2.4-1.9v8.2h-2.9v-21.7h2.8v2.5c.6-.9,1.4-1.5,2.4-2,1-.5,2.1-.7,3.2-.7s2.9,.3,4.1,1Zm-1.6,12c.8-.5,1.5-1.1,1.9-2,.5-.8,.7-1.8,.7-2.9s-.2-2.1-.7-2.9-1.1-1.5-1.9-2-1.7-.7-2.7-.7-1.9,.2-2.7,.7c-.8,.5-1.5,1.1-1.9,2-.5,.8-.7,1.8-.7,2.9s.2,2.1,.7,2.9c.5,.9,1.1,1.5,1.9,2,.8,.5,1.7,.7,2.7,.7s1.9-.2,2.7-.7Z"></path><path class="cls-1" d="M1531.7,821.1v21h-3v-18.4h-4.7v-2.6h7.7Z"></path><path class="cls-1" d="M1542.8,821.1v21h-3v-18.4h-4.7v-2.6h7.7Z"></path><path class="cls-1" d="M1563,833.1c.6,.9,1,1.9,1,3.1s-.3,2.4-1,3.3c-.7,.9-1.7,1.6-2.9,2.1-1.3,.5-2.7,.8-4.4,.8s-3.1-.3-4.4-.8c-1.3-.5-2.2-1.2-2.9-2.1s-1-2-1-3.3,.3-2.2,.9-3.1c.6-.9,1.5-1.5,2.7-2-1-.5-1.7-1.1-2.2-1.8-.5-.8-.8-1.7-.8-2.7s.3-2.2,.9-3c.6-.9,1.5-1.5,2.7-2s2.5-.7,4-.7,2.9,.2,4,.7,2,1.1,2.7,2c.6,.9,.9,1.9,.9,3s-.3,1.9-.8,2.7c-.5,.8-1.2,1.4-2.2,1.8,1.2,.5,2.1,1.1,2.8,2Zm-3.5,5.8c1-.7,1.4-1.6,1.4-2.8s-.5-2.1-1.4-2.7c-1-.7-2.3-1-3.9-1s-3,.3-3.9,1c-.9,.7-1.4,1.6-1.4,2.7s.5,2.1,1.4,2.8c.9,.7,2.2,1,3.9,1s3-.3,3.9-1Zm-7.3-14.7c-.8,.6-1.2,1.4-1.2,2.5s.4,1.9,1.2,2.5c.8,.6,1.9,.9,3.4,.9s2.6-.3,3.4-.9c.8-.6,1.2-1.4,1.2-2.5s-.4-1.9-1.3-2.5c-.9-.6-2-.9-3.4-.9s-2.5,.3-3.4,.9Z"></path><path class="cls-1" d="M1570.4,838.7c.4,.4,.6,.9,.6,1.5s0,.6-.1,.9c0,.3-.2,.7-.4,1.3l-1.4,4.2h-1.9l1.1-4.5c-.4-.1-.7-.4-.9-.7-.2-.3-.3-.7-.3-1.2s.2-1.1,.6-1.5,.9-.6,1.4-.6,1,.2,1.4,.6Z"></path><path class="cls-1" d="M1577.6,841c-1.3-.8-2.3-2.1-3-3.7s-1.1-3.5-1.1-5.8,.4-4.1,1.1-5.8c.7-1.6,1.8-2.9,3-3.7,1.3-.9,2.8-1.3,4.4-1.3s3.1,.4,4.4,1.3c1.3,.8,2.3,2.1,3,3.7,.7,1.6,1.1,3.5,1.1,5.8s-.4,4.1-1.1,5.8c-.7,1.6-1.8,2.9-3,3.7-1.3,.9-2.8,1.3-4.4,1.3s-3.1-.4-4.4-1.3Zm8.5-3.5c1-1.4,1.5-3.4,1.5-6s-.5-4.6-1.5-6-2.4-2.1-4-2.1-3.1,.7-4.1,2.1-1.5,3.4-1.5,6,.5,4.6,1.5,6,2.4,2.1,4.1,2.1,3-.7,4-2.1Z"></path><path class="cls-1" d="M1606.2,830.1c1.1,.5,1.9,1.3,2.6,2.2,.6,1,.9,2.1,.9,3.3s-.3,2.5-1,3.5c-.6,1-1.5,1.8-2.7,2.3s-2.4,.8-3.8,.8c-2.8,0-5-.9-6.5-2.7-1.5-1.8-2.3-4.4-2.3-7.7s.4-4.3,1.2-6c.8-1.7,2-2.9,3.5-3.8,1.5-.9,3.2-1.3,5.2-1.3s2,.1,2.9,.3,1.7,.5,2.3,.9l-1.1,2.3c-1-.7-2.3-1-4-1s-3.9,.7-5.1,2c-1.2,1.3-1.9,3.3-1.9,5.9s0,.6,0,.8c.6-.9,1.4-1.6,2.5-2.1,1-.5,2.2-.7,3.6-.7s2.6,.3,3.7,.8Zm-.7,8.7c.9-.7,1.3-1.7,1.3-3s-.4-2.2-1.3-3c-.9-.7-2-1.1-3.5-1.1s-1.8,.2-2.5,.5c-.7,.4-1.3,.9-1.7,1.5-.4,.6-.6,1.3-.6,2.1s.2,1.4,.6,2,1,1.1,1.7,1.5,1.6,.6,2.7,.6,2.5-.4,3.4-1.1Z"></path><path class="cls-1" d="M1625.9,823.7h-7.2v-2.6h17.4v2.6h-7.2v18.4h-3v-18.4Z"></path><path class="cls-1" d="M1447,913c-1.2-4.8-1.8-9.9-1.8-15.4s.6-10.6,1.8-15.5c1.2-4.8,2.9-9,5.2-12.6h4.1c-2.4,4-4.1,8.4-5.2,13-1.1,4.6-1.6,9.7-1.6,15.1s.5,10.4,1.6,15.1c1.1,4.6,2.8,9,5.2,13h-4.1c-2.2-3.7-4-7.9-5.2-12.7Z"></path><path class="cls-1" d="M1491.5,872.1v3.1l-17.6,38.9h-4.7l17.3-38.2h-21.6v7.9h-4.3v-11.7h30.8Z"></path><path class="cls-1" d="M1525.8,910.2v3.8h-29.5v-3.1l17.5-17.1c2.2-2.2,3.7-4,4.5-5.6,.8-1.6,1.2-3.2,1.2-4.8,0-2.5-.9-4.4-2.6-5.8s-4.1-2.1-7.3-2.1c-4.9,0-8.7,1.6-11.5,4.7l-3.1-2.6c1.6-1.9,3.7-3.4,6.3-4.4s5.4-1.6,8.6-1.6,7.7,1,10.2,3c2.5,2,3.8,4.8,3.8,8.3s-.5,4.2-1.4,6.2c-1,2-2.8,4.3-5.5,6.9l-14.3,14h23.1Z"></path><path class="cls-1" d="M1537.4,908.8c.6,.6,.9,1.4,.9,2.3s0,1-.2,1.6c-.1,.6-.4,1.2-.6,1.9l-2.5,8.3h-2.9l2-8.7c-.6-.2-1.2-.6-1.6-1.1-.4-.5-.6-1.2-.6-2s.3-1.7,.9-2.3c.6-.6,1.4-.9,2.3-.9s1.7,.3,2.3,.9Z"></path><path class="cls-1" d="M1569.5,893.7c2.3,2.1,3.5,4.9,3.5,8.4s-.6,4.5-1.7,6.4c-1.2,1.9-2.9,3.3-5.2,4.4-2.3,1.1-5.1,1.6-8.3,1.6s-5.9-.5-8.6-1.5c-2.7-1-4.9-2.3-6.5-3.9l2.1-3.4c1.4,1.4,3.3,2.6,5.6,3.5,2.3,.9,4.8,1.3,7.4,1.3s6.1-.8,8-2.3,2.8-3.6,2.8-6.2-.9-4.6-2.8-6.1c-1.9-1.5-4.7-2.2-8.5-2.2h-3v-3.2l11.6-14.6h-21.5v-3.8h27v3.1l-11.9,14.9c4.4,.2,7.7,1.4,10,3.6Z"></path><path class="cls-1" d="M1603.8,890.5c2.1,1,3.8,2.5,5,4.4,1.2,1.9,1.8,4.1,1.8,6.6s-.6,4.8-1.9,6.8c-1.2,2-3,3.5-5.1,4.5-2.2,1.1-4.6,1.6-7.4,1.6-5.6,0-9.8-1.8-12.8-5.5-3-3.7-4.4-8.8-4.4-15.5s.8-8.6,2.4-11.9c1.6-3.2,3.8-5.7,6.7-7.3,2.9-1.7,6.2-2.5,10.1-2.5s7.5,.8,10,2.3l-1.7,3.5c-2-1.3-4.7-2-8.2-2s-8.3,1.5-10.9,4.4c-2.6,2.9-4,7.2-4,12.8s0,2.1,.2,3.4c1-2.3,2.7-4,5-5.3s4.9-1.9,7.9-1.9,5.2,.5,7.4,1.6Zm-.3,17.8c1.9-1.7,2.8-3.9,2.8-6.6s-1-5-2.8-6.6c-1.9-1.6-4.5-2.5-7.7-2.5s-4,.4-5.6,1.2c-1.6,.8-2.9,1.9-3.8,3.3-.9,1.4-1.4,3-1.4,4.7s.4,3.1,1.3,4.4c.9,1.4,2.1,2.5,3.8,3.3s3.7,1.3,6,1.3,5.5-.8,7.4-2.5Z"></path><path class="cls-1" d="M1616.4,891.4c-1.7-2.1-2.6-4.8-2.6-8.3s.9-6.1,2.6-8.3c1.7-2.1,4-3.1,6.9-3.1s5.1,1,6.8,3.1c1.8,2.1,2.6,4.8,2.6,8.3s-.9,6.2-2.6,8.3c-1.8,2.1-4,3.1-6.8,3.1s-5.1-1-6.9-3.2Zm11.6-1.9c1.2-1.5,1.8-3.7,1.8-6.4s-.6-4.8-1.8-6.4c-1.2-1.5-2.8-2.3-4.7-2.3s-3.6,.8-4.7,2.3c-1.2,1.6-1.7,3.7-1.7,6.4s.6,4.8,1.7,6.4c1.2,1.6,2.7,2.3,4.7,2.3s3.5-.8,4.7-2.3Zm20.7-17.5h3.5l-28.7,42h-3.5l28.7-42Zm-6.5,39.1c-1.8-2.1-2.6-4.8-2.6-8.3s.9-6.1,2.6-8.3c1.8-2.1,4-3.1,6.8-3.1s5.1,1,6.9,3.1c1.7,2.1,2.6,4.9,2.6,8.3s-.9,6.2-2.6,8.3c-1.7,2.1-4,3.2-6.9,3.2s-5.1-1-6.8-3.2Zm11.6-1.9c1.2-1.6,1.7-3.7,1.7-6.4s-.6-4.8-1.7-6.4c-1.2-1.6-2.7-2.3-4.7-2.3s-3.5,.8-4.7,2.3c-1.2,1.5-1.8,3.7-1.8,6.4s.6,4.9,1.8,6.4c1.2,1.5,2.7,2.3,4.7,2.3s3.6-.8,4.7-2.3Z"></path><path class="cls-1" d="M1662.2,925.7c2.4-4,4.1-8.4,5.2-13,1.1-4.6,1.7-9.6,1.7-15.1s-.6-10.5-1.7-15.1c-1.1-4.6-2.9-8.9-5.2-13h4.1c2.2,3.6,4,7.8,5.2,12.6,1.2,4.8,1.8,10,1.8,15.5s-.6,10.6-1.8,15.4-2.9,9-5.2,12.7h-4.1Z"></path></g><g><path class="cls-1" d="M989,362.1h3v21h-3v-21Z"></path><path class="cls-1" d="M1011.2,368.8c1.2,1.2,1.8,2.9,1.8,5.1v9.1h-2.9v-8.8c0-1.5-.4-2.7-1.1-3.5-.7-.8-1.8-1.2-3.2-1.2s-2.8,.5-3.7,1.4-1.3,2.2-1.3,3.9v8.2h-2.9v-15.9h2.8v2.4c.6-.8,1.4-1.4,2.4-1.9,1-.4,2.1-.7,3.4-.7,2,0,3.6,.6,4.8,1.8Z"></path><path class="cls-1" d="M1032.1,367.2l-7,15.9h-2.9l-7-15.9h3l5.5,12.8,5.6-12.8h2.8Z"></path><path class="cls-1" d="M1048.6,376.1h-12.9c.2,1.4,.8,2.5,1.8,3.4,1,.9,2.4,1.3,3.9,1.3s3.4-.6,4.6-1.9l1.6,1.9c-.7,.8-1.6,1.5-2.7,1.9-1.1,.4-2.3,.7-3.6,.7s-3.2-.3-4.5-1c-1.3-.7-2.3-1.7-3-2.9-.7-1.2-1.1-2.6-1.1-4.2s.3-2.9,1-4.2c.7-1.2,1.6-2.2,2.8-2.9,1.2-.7,2.6-1,4.1-1s2.9,.3,4.1,1c1.2,.7,2.1,1.7,2.8,2.9,.7,1.2,1,2.7,1,4.3s0,.5,0,.9Zm-11.3-5.4c-.9,.8-1.5,1.9-1.6,3.3h10.2c-.2-1.3-.7-2.4-1.6-3.3-.9-.8-2.1-1.3-3.5-1.3s-2.5,.4-3.5,1.3Z"></path><path class="cls-1" d="M1053.5,382.7c-1.2-.3-2.1-.8-2.8-1.3l1.2-2.3c.7,.5,1.5,.9,2.5,1.2s2,.5,3,.5c2.5,0,3.8-.7,3.8-2.2s-.2-.9-.5-1.1-.8-.5-1.3-.6-1.2-.3-2.2-.4c-1.3-.2-2.3-.4-3.1-.7-.8-.3-1.5-.7-2.1-1.3-.6-.6-.9-1.5-.9-2.6s.6-2.6,1.8-3.5,2.8-1.3,4.8-1.3,2.1,.1,3.2,.4c1.1,.3,1.9,.6,2.6,1.1l-1.2,2.3c-1.3-.8-2.8-1.3-4.6-1.3s-2.2,.2-2.8,.6c-.6,.4-1,.9-1,1.6s.2,.9,.5,1.2,.8,.5,1.3,.7c.5,.1,1.3,.3,2.2,.5,1.3,.2,2.3,.5,3.1,.7,.8,.3,1.5,.7,2,1.3,.6,.6,.8,1.4,.8,2.5s-.6,2.6-1.8,3.4c-1.2,.9-2.9,1.3-5,1.3s-2.5-.2-3.8-.5Z"></path><path class="cls-1" d="M1076.7,382.1c-.4,.4-.9,.6-1.6,.8-.6,.2-1.3,.3-1.9,.3-1.6,0-2.8-.4-3.7-1.3-.9-.9-1.3-2.1-1.3-3.7v-8.7h-2.7v-2.4h2.7v-3.5h2.9v3.5h4.6v2.4h-4.6v8.6c0,.9,.2,1.5,.6,2s1,.7,1.8,.7,1.6-.3,2.3-.8l.9,2.1Z"></path><path class="cls-1" d="M1091,368.6c1.2,1.1,1.8,2.7,1.8,4.8v9.6h-2.7v-2.1c-.5,.7-1.2,1.3-2.1,1.7-.9,.4-1.9,.6-3.2,.6-1.8,0-3.2-.4-4.3-1.3-1.1-.9-1.6-2-1.6-3.4s.5-2.5,1.5-3.4c1-.8,2.6-1.3,4.9-1.3h4.6v-.6c0-1.2-.4-2.2-1.1-2.8-.7-.7-1.8-1-3.2-1s-1.9,.2-2.8,.5c-.9,.3-1.7,.7-2.3,1.2l-1.2-2.2c.8-.7,1.8-1.2,2.9-1.5,1.1-.3,2.4-.5,3.6-.5,2.2,0,3.9,.5,5.1,1.6Zm-2.9,11.7c.8-.5,1.4-1.2,1.7-2.1v-2.2h-4.4c-2.4,0-3.7,.8-3.7,2.5s.3,1.4,.9,1.9c.6,.5,1.5,.7,2.6,.7s2-.2,2.8-.7Z"></path><path class="cls-1" d="M1098.9,382.7c-1.2-.3-2.1-.8-2.8-1.3l1.2-2.3c.7,.5,1.5,.9,2.5,1.2s2,.5,3,.5c2.5,0,3.8-.7,3.8-2.2s-.2-.9-.5-1.1-.8-.5-1.3-.6-1.2-.3-2.2-.4c-1.3-.2-2.3-.4-3.1-.7-.8-.3-1.5-.7-2.1-1.3-.6-.6-.9-1.5-.9-2.6s.6-2.6,1.8-3.5,2.8-1.3,4.8-1.3,2.1,.1,3.2,.4c1.1,.3,1.9,.6,2.6,1.1l-1.2,2.3c-1.3-.8-2.8-1.3-4.6-1.3s-2.2,.2-2.8,.6c-.6,.4-1,.9-1,1.6s.2,.9,.5,1.2,.8,.5,1.3,.7c.5,.1,1.3,.3,2.2,.5,1.3,.2,2.3,.5,3.1,.7,.8,.3,1.5,.7,2,1.3,.6,.6,.8,1.4,.8,2.5s-.6,2.6-1.8,3.4c-1.2,.9-2.9,1.3-5,1.3s-2.5-.2-3.8-.5Z"></path><path class="cls-1" d="M1113.2,363.6c-.4-.4-.6-.8-.6-1.3s.2-1,.6-1.3c.4-.4,.8-.6,1.4-.6s1,.2,1.4,.5c.4,.3,.6,.8,.6,1.3s-.2,1-.6,1.4c-.4,.4-.8,.6-1.4,.6s-1-.2-1.4-.5Zm0,3.6h2.9v15.9h-2.9v-15.9Z"></path><path class="cls-1" d="M1130.6,382.6c-.6-2.4-.9-5-.9-7.7s.3-5.3,.9-7.7c.6-2.4,1.5-4.5,2.6-6.3h2.7c-1.2,2.1-2.1,4.3-2.6,6.6-.6,2.3-.8,4.8-.8,7.4s.3,5.1,.8,7.4c.6,2.3,1.4,4.5,2.6,6.6h-2.7c-1.1-1.8-2-4-2.6-6.3Z"></path><path class="cls-1" d="M1153.7,362.1v2l-8.5,19h-3.2l8.3-18.4h-9.6v3.8h-2.9v-6.4h15.8Z"></path><path class="cls-1" d="M1168.4,372.1c1.4,1.1,2.1,2.7,2.1,4.6s-.3,2.4-.9,3.3c-.6,1-1.5,1.8-2.7,2.3-1.2,.6-2.7,.9-4.4,.9s-2.9-.2-4.3-.7-2.5-1.1-3.4-1.9l1.4-2.4c.7,.7,1.6,1.2,2.8,1.6,1.1,.4,2.3,.6,3.5,.6s2.8-.3,3.7-1,1.3-1.6,1.3-2.7-.5-2.2-1.4-2.9c-1-.6-2.6-1-4.9-1h-4.8l1.1-11h11.8v2.6h-9.3l-.6,5.8h2.3c3,0,5.2,.6,6.6,1.7Z"></path><path class="cls-1" d="M1173.7,371.8c-.9-1.1-1.3-2.4-1.3-4.1s.4-3.1,1.3-4.1c.9-1.1,2.1-1.6,3.5-1.6s2.6,.5,3.5,1.6c.9,1,1.3,2.4,1.3,4.2s-.4,3.1-1.3,4.2c-.9,1-2.1,1.6-3.5,1.6s-2.6-.5-3.5-1.6Zm5.7-1.2c.5-.7,.8-1.7,.8-3s-.3-2.2-.8-3c-.5-.7-1.2-1.1-2.2-1.1s-1.6,.4-2.1,1.1c-.5,.7-.8,1.7-.8,2.9s.3,2.2,.8,2.9c.5,.7,1.2,1.1,2.1,1.1s1.6-.4,2.2-1.1Zm10.5-8.5h2.3l-14.3,21h-2.3l14.3-21Zm-2.9,19.6c-.9-1-1.3-2.4-1.3-4.2s.4-3.1,1.3-4.2c.9-1,2.1-1.6,3.5-1.6s2.6,.5,3.5,1.6c.9,1.1,1.3,2.4,1.3,4.1s-.4,3.1-1.3,4.1c-.9,1.1-2.1,1.6-3.5,1.6s-2.6-.5-3.5-1.6Zm5.7-1.2c.5-.7,.8-1.7,.8-2.9s-.3-2.2-.8-2.9c-.5-.7-1.2-1.1-2.1-1.1s-1.6,.4-2.2,1.1c-.5,.7-.8,1.7-.8,3s.3,2.2,.8,3c.5,.7,1.2,1.1,2.2,1.1s1.6-.4,2.1-1.1Z"></path><path class="cls-1" d="M1196.9,388.9c1.2-2.1,2.1-4.3,2.7-6.6,.6-2.3,.9-4.8,.9-7.4s-.3-5.1-.9-7.4c-.6-2.3-1.5-4.5-2.7-6.6h2.7c1.2,1.8,2,3.9,2.7,6.3,.6,2.4,.9,5,.9,7.7s-.3,5.3-.9,7.7c-.6,2.4-1.5,4.5-2.7,6.3h-2.7Z"></path><path class="cls-1" d="M976.2,455.1l-9.6-13.5c-1.1,.1-2.2,.2-3.4,.2h-11.3v13.3h-4.4v-42h15.7c5.4,0,9.6,1.3,12.6,3.8,3,2.6,4.6,6.1,4.6,10.6s-.8,6.1-2.5,8.3c-1.7,2.3-4,3.9-7.1,4.9l10.3,14.4h-4.9Zm-3.5-19.9c2.2-1.8,3.3-4.4,3.3-7.7s-1.1-6-3.3-7.8c-2.2-1.8-5.4-2.7-9.5-2.7h-11.2v21.1h11.2c4.2,0,7.3-.9,9.5-2.8Z"></path><path class="cls-1" d="M1014.3,425.3c2.4,1.3,4.3,3.2,5.6,5.7,1.4,2.4,2,5.2,2,8.3s-.7,6-2,8.4c-1.4,2.4-3.2,4.3-5.6,5.7-2.4,1.3-5.1,2-8.1,2s-4.9-.5-6.9-1.6c-2.1-1.1-3.8-2.6-5.1-4.6v17.6h-4.3v-43.2h4.1v6.2c1.3-2.1,3-3.7,5.1-4.8,2.1-1.1,4.5-1.7,7.1-1.7s5.6,.7,8,2Zm-2.3,24.8c1.8-1,3.2-2.5,4.2-4.3,1-1.9,1.5-4,1.5-6.4s-.5-4.5-1.5-6.4c-1-1.9-2.4-3.3-4.2-4.3-1.8-1-3.8-1.6-6-1.6s-4.3,.5-6,1.6c-1.8,1-3.2,2.5-4.2,4.3-1,1.9-1.5,4-1.5,6.4s.5,4.5,1.5,6.4c1,1.9,2.4,3.3,4.2,4.3,1.8,1,3.8,1.5,6,1.5s4.2-.5,6-1.5Z"></path><path class="cls-1" d="M1037.8,413.1v42h-4.3v-38.2h-9.9v-3.8h14.2Z"></path><path class="cls-1" d="M1076.5,451.2v3.8h-29.5v-3.1l17.5-17.1c2.2-2.2,3.7-4,4.5-5.6,.8-1.6,1.2-3.2,1.2-4.8,0-2.5-.9-4.4-2.6-5.8s-4.1-2.1-7.3-2.1c-4.9,0-8.7,1.6-11.5,4.7l-3.1-2.6c1.6-1.9,3.7-3.4,6.3-4.4,2.5-1,5.4-1.6,8.6-1.6s7.7,1,10.2,3c2.5,2,3.8,4.8,3.8,8.3s-.5,4.2-1.4,6.2-2.8,4.3-5.5,6.9l-14.3,14h23.1Z"></path><path class="cls-1" d="M1110.6,451.2v3.8h-29.5v-3.1l17.5-17.1c2.2-2.2,3.7-4,4.5-5.6,.8-1.6,1.2-3.2,1.2-4.8,0-2.5-.9-4.4-2.6-5.8s-4.1-2.1-7.3-2.1c-4.9,0-8.7,1.6-11.5,4.7l-3.1-2.6c1.6-1.9,3.7-3.4,6.3-4.4,2.5-1,5.4-1.6,8.6-1.6s7.7,1,10.2,3c2.5,2,3.8,4.8,3.8,8.3s-.5,4.2-1.4,6.2-2.8,4.3-5.5,6.9l-14.3,14h23.1Z"></path><path class="cls-1" d="M1122.2,449.8c.6,.6,.9,1.4,.9,2.3s0,1-.2,1.6c-.1,.6-.4,1.2-.6,1.9l-2.5,8.3h-2.9l2-8.7c-.6-.2-1.2-.6-1.6-1.1-.4-.5-.6-1.2-.6-2s.3-1.7,.9-2.3c.6-.6,1.4-.9,2.3-.9s1.7,.3,2.3,.9Z"></path><path class="cls-1" d="M1164.2,444h-8.4v11h-4.3v-11h-23.7v-3.1l22.3-27.8h4.8l-21.5,27.1h18.2v-9.7h4.2v9.7h8.4v3.8Z"></path><path class="cls-1" d="M1193.6,418.2c3,3.7,4.4,8.8,4.4,15.5s-.8,8.6-2.4,11.9c-1.6,3.2-3.8,5.7-6.7,7.3-2.9,1.7-6.2,2.5-10.1,2.5s-7.5-.8-10-2.3l1.7-3.5c2,1.3,4.7,2,8.2,2s8.3-1.5,10.9-4.4c2.6-2.9,4-7.2,4-12.8s0-2.2-.2-3.4c-1,2.3-2.7,4-5,5.3s-4.9,1.9-7.9,1.9-5.2-.5-7.3-1.6c-2.1-1-3.8-2.5-5-4.4-1.2-1.9-1.8-4.1-1.8-6.6s.6-4.8,1.9-6.8c1.2-2,2.9-3.5,5.1-4.5,2.2-1.1,4.6-1.6,7.4-1.6,5.6,0,9.8,1.8,12.8,5.5Zm-6.7,15.2c1.6-.8,2.9-1.9,3.8-3.3s1.4-3,1.4-4.7-.4-3.1-1.3-4.4c-.9-1.4-2.1-2.5-3.8-3.3s-3.7-1.3-6-1.3-5.5,.8-7.4,2.5c-1.9,1.7-2.8,3.9-2.8,6.6s.9,5,2.8,6.6c1.9,1.6,4.5,2.5,7.7,2.5s4-.4,5.6-1.2Z"></path><path class="cls-1" d="M1231.8,416.9h-14.8v-3.8h34v3.8h-14.8v38.2h-4.4v-38.2Z"></path></g></g></g></svg> 