<?xml version="1.0" encoding="UTF-8"?> <svg xmlns="http://www.w3.org/2000/svg" xmlns:xlink="http://www.w3.org/1999/xlink" id="Layer_2" data-name="Layer 2" viewBox="0 0 200 200"><defs><style> .cls-1 { fill: url(#linear-gradient); } .cls-2 { fill: none; stroke: #fff; stroke-linecap: round; stroke-linejoin: round; stroke-width: 3px; } </style><linearGradient id="linear-gradient" x1="0" y1="100" x2="200" y2="100" gradientUnits="userSpaceOnUse"><stop offset="0" stop-color="#dd8227"></stop><stop offset="1" stop-color="#bf7022"></stop></linearGradient></defs><g id="Layer_1-2" data-name="Layer 1"><g><rect class="cls-1" width="200" height="200" rx="19.17" ry="19.17"></rect><g id="paper_boat_new_horizons" data-name="paper boat new horizons"><g id="climbing_ladder" data-name="climbing ladder"><path class="cls-2" d="M122.71,48.27c0,4.57-3.71,8.28-8.28,8.28s-8.28-3.71-8.28-8.28v-4.14c0-4.57,3.71-8.28,8.28-8.28s8.28,3.71,8.28,8.28v4.14Z"></path><path class="cls-2" d="M147.55,112.42v-5.63c0-3.95-2.78-7.34-6.65-8.12l-14.04-2.81,.04-26.9,7.19,5.13c3.53,2.52,8.49,.74,9.61-3.45l5.97-22.38"></path><path class="cls-2" d="M114.48,56.55l10.29,1.47c2.75,.39,5.37,1.47,7.59,3.14l4.88,3.66"></path><line class="cls-2" x1="114.48" y1="126.49" x2="116.55" y2="110.35"></line><polyline class="cls-2" points="116.55 110.35 135.14 110.35 135.18 118"></polyline><path class="cls-2" d="M114.48,56.55l-10.71,2.14c-5.8,1.16-9.98,6.26-9.98,12.17v35.35"></path><line class="cls-2" x1="102.07" y1="71.03" x2="102.07" y2="131.87"></line><line class="cls-2" x1="118.62" y1="46.2" x2="131.04" y2="45.21"></line><polygon class="cls-2" points="131.12 41.06 131.44 48.27 160.01 48.27 159.43 35.85 131.12 41.06"></polygon></g><polygon class="cls-2" points="85.52 139.32 35.85 114.48 54.72 164.15 87.58 164.15 145.28 164.15 164.15 106.1 85.52 139.32"></polygon><polyline class="cls-2" points="62.75 155.87 85.52 139.32 137.25 155.87"></polyline><polyline class="cls-2" points="46.2 118.62 77.24 73.1 85.52 81.38"></polyline><line class="cls-2" x1="77.24" y1="73.1" x2="77.24" y2="124.83"></line></g></g></g></svg> 